<svg width="345" height="345" viewBox="0 0 345 345" fill="none" xmlns="http://www.w3.org/2000/svg">
<path d="M247.147 56.4354C252.13 57.9699 255.44 60.9242 259.272 64.3104C259.935 64.8941 260.597 65.4778 261.279 66.0792C281.23 83.908 295.779 106.62 303.147 132.435C317.541 129.484 317.541 129.484 331.8 125.951C334.147 125.435 334.147 125.435 338.147 125.435C338.97 129.371 339.778 133.309 340.585 137.248C340.93 138.898 340.93 138.898 341.282 140.582C350.445 185.6 339.395 231.595 314.647 269.752C311.173 274.96 307.295 279.749 303.147 284.435C302.718 284.925 302.289 285.414 301.847 285.919C287.294 302.453 270.694 315.35 251.147 325.435C250.529 325.755 249.911 326.074 249.273 326.404C208.769 347 162.317 349.243 119.147 336.435C95.8279 328.782 74.1954 316.452 56.37 299.541C54.5957 297.86 52.8156 296.318 50.8974 294.81C35.9368 281.89 24.6045 263.081 16.1474 245.435C15.7735 244.659 15.3996 243.882 15.0143 243.081C12.7763 238.261 11.2805 233.629 10.1474 228.435C16.7388 226.044 23.2217 224.536 30.1474 223.435C30.5483 224.405 30.9492 225.374 31.3622 226.373C44.5647 257.745 65.3196 284.304 95.1474 301.435C96.1374 301.765 97.1274 302.095 98.1474 302.435C98.4091 301.725 98.6709 301.015 98.9406 300.284C100.216 297.273 101.738 294.638 103.456 291.857C104.116 290.786 104.776 289.714 105.456 288.611C106.165 287.469 106.875 286.327 107.585 285.185C108.306 284.019 109.028 282.852 109.749 281.686C115.425 272.522 121.226 263.443 127.147 254.435C128.056 254.822 128.965 255.209 129.901 255.607C141.468 260.437 153.497 264.914 166.147 265.435C167.083 265.487 168.019 265.538 168.983 265.592C193.754 266.326 217.882 257.032 236.147 240.435C236.779 239.885 237.411 239.335 238.061 238.767C254.696 223.386 264.259 199.356 265.405 177.092C266.236 152.215 258.067 128.83 241.647 110.06C238.031 106.209 234.202 102.659 230.19 99.2244C228.081 97.3776 226.121 95.4254 224.147 93.4354C224.56 92.7764 224.972 92.1175 225.397 91.4385C236.334 73.975 236.334 73.975 247.147 56.4354Z" fill="#DB4A25"/>
<path d="M278.147 36.4354C278.946 37.0814 278.946 37.0814 279.76 37.7405C303.699 57.2272 321.767 81.653 333.147 110.435C333.147 111.425 333.147 112.415 333.147 113.435C329.857 114.273 326.565 115.104 323.272 115.935C321.867 116.293 321.867 116.293 320.433 116.658C319.537 116.884 318.641 117.109 317.718 117.342C316.89 117.551 316.063 117.761 315.21 117.976C313.147 118.435 313.147 118.435 311.147 118.435C310.473 116.8 310.473 116.8 309.784 115.131C302.567 98.0437 293.559 83.2128 281.147 69.4354C279.981 68.0187 278.814 66.602 277.647 65.1854C269.351 55.7851 257.224 46.3254 246.147 40.4354C245.157 40.4354 244.167 40.4354 243.147 40.4354C241.6 42.2997 241.6 42.2997 240.214 44.7986C239.653 45.7398 239.092 46.681 238.514 47.6507C237.919 48.6728 237.323 49.6948 236.71 50.7479C235.456 52.8568 234.201 54.9649 232.944 57.0721C232.312 58.1373 231.68 59.2026 231.028 60.3001C228.248 64.9352 225.363 69.5014 222.46 74.0604C218.23 80.7023 218.23 80.7023 214.147 87.4354C209.52 86.8056 205.415 85.5693 201.022 83.9979C177.905 76.1059 153.197 78.0875 131.147 88.4354C107.859 100.417 91.9164 119.968 83.1474 144.435C81.8817 148.738 80.9141 153.019 80.1474 157.435C80.0172 158.137 79.887 158.838 79.7528 159.56C76.1105 182.871 83.0071 208.081 96.7216 227.064C105.048 238.281 105.048 238.281 116.147 246.435C115.575 250.383 114.401 253.016 112.233 256.349C111.636 257.276 111.04 258.203 110.425 259.158C109.797 260.116 109.169 261.074 108.522 262.06C107.616 263.462 107.616 263.462 106.69 264.892C105.469 266.781 104.243 268.666 103.014 270.55C100.495 274.444 98.0516 278.385 95.6146 282.331C94.1474 284.435 94.1474 284.435 92.1474 285.435C85.491 280.435 79.2487 275.097 73.1474 269.435C72.256 268.643 72.256 268.643 71.3466 267.834C55.0345 252.651 43.2113 229.916 38.1474 208.435C37.3253 208.653 36.5033 208.87 35.6564 209.094C32.5928 209.898 29.5269 210.693 26.4591 211.481C25.1342 211.824 23.8103 212.17 22.4874 212.52C20.5812 213.024 18.6709 213.513 16.7606 214.002C15.6138 214.3 14.4669 214.599 13.2853 214.906C10.1698 215.432 8.16094 215.287 5.14736 214.435C0.443785 189.947 0.443785 189.947 0.147361 180.435C0.1074 179.257 0.0674392 178.079 0.0262674 176.865C-0.652975 136.67 11.8443 96.8741 37.1474 65.4354C37.6243 64.8389 38.1013 64.2423 38.5927 63.6277C53.7257 44.8835 71.7874 30.513 93.1474 19.4354C93.804 19.0888 94.4606 18.7422 95.1371 18.3851C152.588 -11.6155 227.772 -4.41476 278.147 36.4354Z" fill="#DB4A25"/>
</svg>
