<?xml version="1.0" encoding="UTF-8"?>
<svg version="1.1" xmlns="http://www.w3.org/2000/svg" width="1839" height="680">
<path d="M0 0 C1.31218506 0.29801514 1.31218506 0.29801514 2.65087891 0.60205078 C27.88592723 6.53004471 51.42801741 17.19588455 72 33 C72.89589844 33.67160156 73.79179688 34.34320313 74.71484375 35.03515625 C80.84371261 39.81843886 86.35781781 45.15709408 91.875 50.625 C92.96421753 51.70019897 92.96421753 51.70019897 94.07543945 52.79711914 C105 63.78758956 105 63.78758956 105 69 C102.73054526 70.92430214 100.47924451 72.65278004 98.0625 74.375 C96.57745823 75.4600255 95.09310442 76.54599311 93.609375 77.6328125 C92.84173828 78.19129883 92.07410156 78.74978516 91.28320312 79.32519531 C87.75287739 81.91480551 84.28286361 84.58087176 80.8125 87.25 C79.40513463 88.32836872 77.99757698 89.40648654 76.58984375 90.484375 C75.85878418 91.04447266 75.12772461 91.60457031 74.37451172 92.18164062 C69.87777648 95.6251615 65.37722806 99.0636649 60.875 102.5 C59.9981958 103.17063477 59.1213916 103.84126953 58.21801758 104.53222656 C53.53416485 108.10559579 48.81598014 111.60662646 44 115 C41.29541174 112.37495846 38.88857984 109.85715364 36.5625 106.875 C22.3847861 90.27405439 -1.05464972 79.1059343 -22.50390625 76.25 C-51.47033844 74.17865736 -78.82976041 79.62522805 -101.5703125 98.82421875 C-110.86918442 107.1513436 -117.79422829 115.24009054 -124 126 C-124.56589844 126.97710937 -125.13179687 127.95421875 -125.71484375 128.9609375 C-138.10606792 151.97771523 -140.34544237 179.97453359 -132.875 204.875 C-128.76819382 217.74351321 -122.52608384 229.51389689 -114 240 C-113.02160156 241.24136719 -113.02160156 241.24136719 -112.0234375 242.5078125 C-99.12862519 257.91397403 -81.44357759 266.0836584 -63 273 C-63 282.57 -63 292.14 -63 302 C-20.42111075 305.27529917 15.87102148 299.78791467 49.20019531 271.3527832 C58.90614412 262.99768826 58.90614412 262.99768826 66.14794922 252.66723633 C67.54761147 249.96391465 68.74892141 248.06265757 71 246 C75.7219626 244.70345452 80.3925707 244.83225144 85.25 244.9375 C86.62574529 244.93506498 88.00148896 244.92859033 89.37719727 244.91821289 C92.19312519 244.9046171 95.00702732 244.9170886 97.82275391 244.953125 C101.82377704 245.00419251 105.82288374 244.99323236 109.82421875 244.96875 C115.88339112 244.93665865 121.94098155 244.94925445 128 245 C120.18727512 265.14820575 108.87116263 282.35024247 94 298 C92.78472745 299.41071844 91.57579395 300.82693719 90.375 302.25 C86.88762267 306.23788055 83.10236102 309.65478614 79 313 C77.63101563 314.12535156 77.63101563 314.12535156 76.234375 315.2734375 C47.53250304 338.13397371 11.04791517 353.83214051 -26.03125 354.23828125 C-26.77633316 354.2480751 -27.52141632 354.25786896 -28.28907776 354.26795959 C-45.53217698 354.44774419 -62.14721548 354.10774819 -79 350 C-80.28632324 349.68651611 -80.28632324 349.68651611 -81.59863281 349.36669922 C-111.4363855 341.78516137 -137.73463281 327.15045926 -160 306 C-160.52706543 305.5054834 -161.05413086 305.0109668 -161.59716797 304.50146484 C-185.14663786 282.28232164 -201.58325381 254.25185899 -210 223 C-210.29946533 221.88890869 -210.29946533 221.88890869 -210.60498047 220.75537109 C-222.09154514 176.83501286 -215.75962328 128.713506 -194 89 C-193.4121875 87.92105469 -192.824375 86.84210938 -192.21875 85.73046875 C-169.14509643 44.8796139 -130.34480179 16.02166496 -85.69482422 2.74316406 C-78.23957664 0.68719617 -70.63978129 -0.81467636 -63 -2 C-62.33911377 -2.103125 -61.67822754 -2.20625 -60.99731445 -2.3125 C-41.41262211 -4.91728036 -19.23466951 -4.40407059 0 0 Z " fill="#DB4A25" transform="translate(1121,133)"/>
<path d="M0 0 C17.49 0 34.98 0 53 0 C53 36.96 53 73.92 53 112 C61.25 112 69.5 112 78 112 C78 129.82 78 147.64 78 166 C90.684375 165.37351562 90.684375 165.37351562 103.625 164.734375 C109.71961002 164.52659833 115.81151005 164.34218912 121.90742302 164.19086075 C129.77732627 163.99243839 137.63310565 163.74123514 145.49267578 163.28417969 C192.94996382 160.57828429 192.94996382 160.57828429 203.90985107 169.45831299 C211.97745623 177.35632387 216.86505758 187.38870549 221.13241577 197.70132446 C223.58613499 203.57573052 227.02322017 208.63858033 230.625 213.875 C231.7080689 215.57594645 232.78469564 217.28103229 233.8515625 218.9921875 C237.21165113 224.3426605 240.60473535 229.67180155 244 235 C245.16679288 236.83325301 246.33345988 238.66658614 247.5 240.5 C248.0775 241.4075 248.655 242.315 249.25 243.25 C260.33333333 260.66666667 271.41666667 278.08333333 282.5 295.5 C283.07862793 296.40911133 283.65725586 297.31822266 284.25341797 298.25488281 C285.40928234 300.07156425 286.56456469 301.88861616 287.71923828 303.70605469 C290.79628245 308.54750297 293.88585257 313.38040839 296.9921875 318.203125 C297.641875 319.21503906 298.2915625 320.22695313 298.9609375 321.26953125 C300.21508161 323.2224128 301.47276843 325.17302479 302.734375 327.12109375 C303.57355469 328.43013672 303.57355469 328.43013672 304.4296875 329.765625 C304.92710449 330.53680664 305.42452148 331.30798828 305.93701172 332.10253906 C307 334 307 334 307 336 C295.0655006 336.39496648 283.13256889 336.69646445 271.19285107 336.88080692 C265.64745023 336.96931825 260.10653747 337.08918809 254.5637207 337.2824707 C249.20756356 337.46806192 243.85570156 337.56899158 238.49657631 337.61291313 C236.45911298 337.64417925 234.42186959 337.70525257 232.38625145 337.79741096 C216.86675538 338.4716735 216.86675538 338.4716735 212.07908821 334.34381866 C208.65795857 330.2896306 206.23419063 325.81945085 203.98635864 321.03605843 C202.64552579 318.26828826 200.99475136 315.74745217 199.28515625 313.1953125 C198.21017838 311.50569107 197.1359531 309.81559057 196.0625 308.125 C195.47533203 307.20138672 194.88816406 306.27777344 194.28320312 305.32617188 C190.02245111 298.62019864 185.7777814 291.90415082 181.53930664 285.18408203 C177.12097654 278.18224498 172.67445257 271.19850401 168.22631836 264.21557617 C163.85792593 257.35511123 159.50726549 250.48364975 155.16992188 243.60351562 C154.29155784 242.21055449 153.40034697 240.82558113 152.49429321 239.45046997 C151 237 151 237 149.72531128 234.20394897 C148.09807195 230.96157598 146.57930952 228.56489712 144 226 C138.97497289 224.41080552 134.0826338 224.57165545 128.87890625 224.70703125 C126.94331848 224.69416077 126.94331848 224.69416077 124.96862793 224.68103027 C120.16641175 224.66509855 115.36426026 224.74443779 110.5625 224.8125 C99.816875 224.874375 89.07125 224.93625 78 225 C78 250.74 78 276.48 78 303 C60.77550405 311.03809811 60.77550405 311.03809811 52.47265625 314.59375 C51.09647377 315.18657776 51.09647377 315.18657776 49.69248962 315.79138184 C46.81673949 317.02972339 43.93968929 318.26500647 41.0625 319.5 C38.19801822 320.73183156 35.33382004 321.96431883 32.46981812 323.19726562 C30.61266173 323.99639134 28.75510401 324.79458508 26.89712524 325.59179688 C22.6410032 327.42013606 18.392846 329.26262966 14.16357422 331.15234375 C13.42344589 331.48182007 12.68331757 331.81129639 11.92076111 332.15075684 C10.55479873 332.76060112 9.19084234 333.37496736 7.82936096 333.99475098 C5.01976822 335.24754926 3.11727307 336 0 336 C0 225.12 0 114.24 0 0 Z " fill="#DB4A25" transform="translate(411,151)"/>
<path d="M0 0 C1.27606056 0.94736311 2.5507856 1.89652528 3.82495117 2.84643555 C4.88996101 3.63898994 4.88996101 3.63898994 5.97648621 4.44755554 C8.56119005 6.4305463 10.93691127 8.58469284 13.3125 10.8125 C16.90968397 14.1325969 20.5564692 17.31239378 24.375 20.375 C29.1706049 24.24154184 33.66878667 28.34851983 38.16137695 32.5559082 C42.37411123 36.47892724 46.76404453 40.11903719 51.25390625 43.72265625 C54.79678299 46.66077451 58.15441772 49.78231178 61.52197266 52.91650391 C64.73316873 55.88730066 68.02636841 58.69968321 71.4375 61.4375 C76.21621628 65.28110057 80.69157687 69.36960164 85.16381836 73.55834961 C88.51099327 76.67553945 91.93005023 79.63573798 95.5 82.5 C100.26108478 86.31994011 104.71273025 90.38938819 109.1640625 94.55859375 C112.51116869 97.67568554 115.93014141 100.63581113 119.5 103.5 C124.26108478 107.31994011 128.71273025 111.38938819 133.1640625 115.55859375 C136.51116869 118.67568554 139.93014141 121.63581113 143.5 124.5 C148.26108478 128.31994011 152.71273025 132.38938819 157.1640625 136.55859375 C160.51116869 139.67568554 163.93014141 142.63581113 167.5 145.5 C172.26108478 149.31994011 176.71273025 153.38938819 181.1640625 157.55859375 C185.34202608 161.44944609 189.69629636 165.05491196 194.15234375 168.625 C198.16191469 171.96905917 201.96527344 175.5208931 205.76171875 179.10351562 C208.64468718 181.87435368 208.64468718 181.87435368 212 184 C212.33 134.17 212.66 84.34 213 33 C230.325 25.575 230.325 25.575 248 18 C252.14820313 16.21722656 256.29640625 14.43445313 260.5703125 12.59765625 C265.95703125 10.28320312 265.95703125 10.28320312 268.52978516 9.17797852 C270.32105165 8.40805409 272.11205089 7.63750771 273.90283203 6.86645508 C276.58295233 5.71270341 279.26402683 4.5611965 281.9453125 3.41015625 C282.74905304 3.06348404 283.55279358 2.71681183 284.38088989 2.3596344 C289.88613218 0 289.88613218 0 291 0 C291 117.81 291 235.62 291 357 C287.13446451 355.06723226 284.50962091 352.8660126 281.4375 349.9375 C277.58430108 346.32951001 273.68643989 342.86407064 269.5625 339.5625 C264.78378372 335.71889943 260.30842313 331.63039836 255.83618164 327.44165039 C252.48900673 324.32446055 249.06994977 321.36426202 245.5 318.5 C241.3333379 315.15698041 237.39580188 311.64884863 233.5 308 C228.73911006 303.54125556 223.8353218 299.3620217 218.74609375 295.27734375 C215.20242256 292.33856664 211.84397498 289.21637652 208.47583008 286.08129883 C205.28658081 283.13053653 202.01626095 280.33999777 198.625 277.625 C197.74328125 276.87476563 196.8615625 276.12453125 195.953125 275.3515625 C193.718419 273.57207439 191.65742937 272.16891835 189.234375 270.7109375 C184.80276076 267.75299269 181.22647512 264.95393004 179 260 C178.12920804 253.73553447 178.34115649 247.50474652 178.49060059 241.19580078 C179.03606161 231.35136282 179.03606161 231.35136282 175.48046875 222.50390625 C172.87135708 219.86316419 169.93462133 217.86425193 166.72363281 216.01953125 C164.08332494 214.4577854 161.83330983 212.48228092 159.5 210.5 C158.613125 209.7884375 157.72625 209.076875 156.8125 208.34375 C153.60150066 205.66791722 150.54972364 202.85640293 147.5 200 C142.73911006 195.54125556 137.8353218 191.3620217 132.74609375 187.27734375 C129.73680948 184.78173531 126.86061346 182.16234857 124 179.5 C120.26672745 176.02580757 116.47628889 172.6993129 112.5 169.5 C107.98141824 165.8643595 103.72016671 162.03163598 99.47827148 158.08374023 C96.2670095 155.11284372 92.97372185 152.30038923 89.5625 149.5625 C84.78458662 145.71954521 80.31005016 141.63168671 75.83837891 137.44384766 C71.62570895 133.52093146 67.23586445 129.88088976 62.74609375 126.27734375 C59.73680948 123.78173531 56.86061346 121.16234857 54 118.5 C50.26672745 115.02580757 46.47628889 111.6993129 42.5 108.5 C37.98061455 104.86371286 33.71851914 101.03037427 29.47607422 97.08154297 C26.28675885 94.13068108 23.01635132 91.34007012 19.625 88.625 C18.37614014 87.55415161 18.37614014 87.55415161 17.10205078 86.46166992 C14.81793807 84.64908465 12.91628542 83.36286629 10.41894531 81.98120117 C5.78703157 79.07668983 2.39283057 75.98637356 0 71 C-2.26367113 59.96177293 -1.38759086 48.38710164 -0.96130371 37.19445801 C-0.81685391 32.99846706 -0.75389096 28.80128763 -0.68359375 24.60351562 C-0.53441898 16.39907934 -0.29622626 8.20043919 0 0 Z " fill="#141414" transform="translate(1513,125)"/>
<path d="M0 0 C4.9825049 1.53453573 8.29242108 4.4888781 12.125 7.875 C12.78733643 8.45870361 13.44967285 9.04240723 14.13208008 9.64379883 C34.08249518 27.47259879 48.63150175 50.18449214 56 76 C70.39327332 73.04898991 70.39327332 73.04898991 84.65234375 69.515625 C87 69 87 69 91 69 C91.82244246 72.93548914 92.63107889 76.87369939 93.4375 80.8125 C93.78264648 82.46282227 93.78264648 82.46282227 94.13476562 84.14648438 C103.29780072 129.16487417 92.24729478 175.15941006 67.5 213.31640625 C64.02528577 218.5244683 60.14714411 223.31372715 56 228 C55.57074219 228.48952148 55.14148438 228.97904297 54.69921875 229.48339844 C40.1463596 246.0178789 23.54646016 258.91511734 4 269 C3.38157227 269.31952637 2.76314453 269.63905273 2.12597656 269.96826172 C-38.37848034 290.56502569 -84.83072137 292.80770029 -128 280 C-151.31945659 272.34658129 -172.95199335 260.01669862 -190.77734375 243.10546875 C-192.55168137 241.42468144 -194.33177505 239.88253449 -196.25 238.375 C-211.21057453 225.45450381 -222.5428683 206.6453182 -231 189 C-231.37390869 188.22317871 -231.74781738 187.44635742 -232.13305664 186.64599609 C-234.37107794 181.82588169 -235.86690837 177.19333663 -237 172 C-230.40854513 169.60853204 -223.92563623 168.10033473 -217 167 C-216.59910156 167.969375 -216.19820312 168.93875 -215.78515625 169.9375 C-202.5826995 201.30963534 -181.82779421 227.86834739 -152 245 C-151.01 245.33 -150.02 245.66 -149 246 C-148.73823975 245.29004883 -148.47647949 244.58009766 -148.20678711 243.84863281 C-146.93139698 240.8380619 -145.40934895 238.20306021 -143.69140625 235.421875 C-143.03140625 234.35050293 -142.37140625 233.27913086 -141.69140625 232.17529297 C-140.98197898 231.0333993 -140.27233969 229.89163734 -139.5625 228.75 C-138.84101114 227.5835794 -138.11965774 226.417075 -137.3984375 225.25048828 C-131.72206304 216.08698654 -125.9211754 207.00721173 -120 198 C-119.09121094 198.38671875 -118.18242187 198.7734375 -117.24609375 199.171875 C-105.67915923 204.00152843 -93.65062191 208.47832487 -81 209 C-80.06414062 209.0515625 -79.12828125 209.103125 -78.1640625 209.15625 C-53.39368075 209.89018724 -29.26567377 200.59688298 -11 184 C-10.36835938 183.44957031 -9.73671875 182.89914062 -9.0859375 182.33203125 C7.5483137 166.95104555 17.11183894 142.92087909 18.2578125 120.65625 C19.08859659 95.77916872 10.91983382 72.39461807 -5.5 53.625 C-9.11654709 49.77410572 -12.94500123 46.22376944 -16.95703125 42.7890625 C-19.06598433 40.9422164 -21.02671563 38.9900093 -23 37 C-22.5875 36.34104736 -22.175 35.68209473 -21.75 35.00317383 C-10.81363497 17.53962851 -10.81363497 17.53962851 0 0 Z " fill="#DB4A25" transform="translate(264,199)"/>
<path d="M0 0 C0.79833252 0.64606201 0.79833252 0.64606201 1.61279297 1.30517578 C25.55148318 20.79178926 43.62010434 45.21761775 55 74 C55 74.99 55 75.98 55 77 C51.70929159 77.83714909 48.41728353 78.66906896 45.125 79.5 C43.71927734 79.85771484 43.71927734 79.85771484 42.28515625 80.22265625 C41.38925781 80.44824219 40.49335938 80.67382812 39.5703125 80.90625 C38.74289551 81.11572266 37.91547852 81.32519531 37.06298828 81.54101562 C35 82 35 82 33 82 C32.32517578 80.36417969 32.32517578 80.36417969 31.63671875 78.6953125 C24.419738 61.60830241 15.41142018 46.77745699 3 33 C1.83333333 31.58333333 0.66666667 30.16666667 -0.5 28.75 C-8.79663362 19.34977616 -20.92373228 9.89005541 -32 4 C-32.99 4 -33.98 4 -35 4 C-36.54707935 5.86438397 -36.54707935 5.86438397 -37.93359375 8.36328125 C-38.49457764 9.30445801 -39.05556152 10.24563477 -39.63354492 11.21533203 C-40.2288501 12.23739746 -40.82415527 13.25946289 -41.4375 14.3125 C-42.69126764 16.42143008 -43.94650107 18.52948936 -45.203125 20.63671875 C-45.83541016 21.70196777 -46.46769531 22.7672168 -47.11914062 23.86474609 C-49.89975156 28.49981952 -52.78428579 33.0660429 -55.6875 37.625 C-59.9172552 44.26696556 -59.9172552 44.26696556 -64 51 C-68.62782948 50.37021892 -72.73248961 49.13391826 -77.125 47.5625 C-100.24190092 39.67050805 -124.94997794 41.65208864 -147 52 C-170.28852051 63.98182076 -186.2309884 83.53291922 -195 108 C-196.26562681 112.30220397 -197.23321365 116.58331065 -198 121 C-198.13019531 121.70125 -198.26039063 122.4025 -198.39453125 123.125 C-202.03682624 146.4356879 -195.14030144 171.64536073 -181.42578125 190.62890625 C-173.09964448 201.84551812 -173.09964448 201.84551812 -162 210 C-162.57223932 213.94766017 -163.74646766 216.5803524 -165.9140625 219.9140625 C-166.51089844 220.84089844 -167.10773438 221.76773437 -167.72265625 222.72265625 C-168.35042969 223.68042969 -168.97820312 224.63820313 -169.625 225.625 C-170.53185547 227.02685547 -170.53185547 227.02685547 -171.45703125 228.45703125 C-172.67859746 230.34537986 -173.90419037 232.23112969 -175.13378906 234.11425781 C-177.6524478 238.0088871 -180.09572615 241.94982763 -182.53271484 245.89599609 C-184 248 -184 248 -186 249 C-192.65633404 243.99971042 -198.898623 238.66191433 -205 233 C-205.89138672 232.20722656 -205.89138672 232.20722656 -206.80078125 231.3984375 C-223.11282909 216.21538581 -234.936102 193.48034872 -240 172 C-240.82201904 172.2172876 -241.64403809 172.4345752 -242.4909668 172.65844727 C-245.554558 173.46278865 -248.62045959 174.25742551 -251.68823242 175.0456543 C-253.01312587 175.38816247 -254.33704253 175.7344732 -255.65991211 176.0847168 C-257.56620614 176.58871255 -259.47644011 177.07773032 -261.38671875 177.56640625 C-262.53358154 177.86490479 -263.68044434 178.16340332 -264.86206055 178.47094727 C-267.97755369 178.99621558 -269.98642254 178.85150223 -273 178 C-277.7035764 153.51133122 -277.7035764 153.51133122 -278 144 C-278.03996094 142.82179688 -278.07992188 141.64359375 -278.12109375 140.4296875 C-278.80033602 100.23452758 -266.30310628 60.43876389 -241 29 C-240.52304688 28.40348633 -240.04609375 27.80697266 -239.5546875 27.19238281 C-224.4216887 8.44810021 -206.35991847 -5.92239635 -185 -17 C-184.34338379 -17.34659668 -183.68676758 -17.69319336 -183.01025391 -18.05029297 C-125.55962673 -48.05087802 -50.37511684 -40.85012803 0 0 Z " fill="#DB4A25" transform="translate(295,179)"/>
<path d="M0 0 C32.16629942 -0.1209091 32.16629942 -0.1209091 45.73632812 -0.14648438 C55.07369988 -0.16422468 64.41098991 -0.1849796 73.74829102 -0.22631836 C80.5512542 -0.2564223 87.35415051 -0.27562226 94.15717846 -0.28226548 C97.75217769 -0.2861426 101.34698579 -0.2951142 104.94192314 -0.31719017 C141.93598613 -0.53530839 172.77572103 6.55109606 200 33 C220.16888161 53.10663197 232.08028104 80.27112985 232.32983398 108.84179688 C232.18397028 137.52147748 225.07422667 163.00810959 206 185 C205.33613281 185.80824219 204.67226563 186.61648438 203.98828125 187.44921875 C197.82513078 194.70601515 190.65176136 200.40579795 183 206 C181.95199219 206.78632813 180.90398437 207.57265625 179.82421875 208.3828125 C177 210 177 210 174.88671875 210.12109375 C171.99414107 208.40231571 170.563478 205.84263307 168.8125 203.0625 C168.37997421 202.45223969 167.94744843 201.84197937 167.5018158 201.21322632 C164.43020903 196.75858291 162.49299332 192.67441712 160.87792969 187.50219727 C157.80856099 179.35089188 154.0518659 172.06087396 146 168 C128.85248778 162.93785856 108.63648294 165.09537661 90.88430578 165.68191737 C83.6926679 165.91432846 76.50158862 165.99497464 69.30682647 166.06482863 C54.53308783 166.21157197 39.76762127 166.54834525 25 167 C25 160.4 25 153.8 25 147 C29.41995361 146.97812622 29.41995361 146.97812622 33.92919922 146.95581055 C43.68819379 146.9053697 53.4470304 146.83875783 63.20586967 146.76428509 C69.11997986 146.71964554 75.03402217 146.68037517 80.94824219 146.65356445 C86.66070605 146.62746765 92.37290784 146.58701991 98.08520889 146.53681374 C100.25954034 146.52018815 102.43391707 146.50864715 104.60830307 146.50238609 C107.66476366 146.49269816 110.72056022 146.4645826 113.77685547 146.43237305 C114.66662582 146.43380814 115.55639618 146.43524323 116.47312927 146.4367218 C127.50463977 146.27337365 136.57775286 142.83580587 144.75390625 135.40625 C150.997216 128.77175543 153.22751504 121.51016928 153.5 112.5 C153.14288399 101.73241107 149.91985213 94.99084869 142.51171875 87.203125 C136.61641222 82.03212518 129.58624827 78.91093434 121.72259521 78.84178162 C120.87568115 78.8319928 120.02876709 78.82220398 119.15618896 78.81211853 C117.77514984 78.80348534 117.77514984 78.80348534 116.36621094 78.79467773 C115.39026978 78.78477814 114.41432861 78.77487854 113.40881348 78.76467896 C110.1840253 78.7330997 106.9592224 78.70832056 103.734375 78.68359375 C101.49806333 78.66302115 99.26175553 78.64202459 97.02545166 78.62062073 C91.14004647 78.56543176 85.25460637 78.51600842 79.36914062 78.46777344 C73.36324965 78.41753528 67.35740936 78.36186128 61.3515625 78.30664062 C49.56775002 78.19909785 37.78389449 78.09814652 26 78 C26 89.55 26 101.1 26 113 C17.42 113 8.84 113 0 113 C0 75.71 0 38.42 0 0 Z " fill="#DB4A25" transform="translate(484,130)"/>
<path d="M0 0 C3.86553853 1.93276926 6.49036264 4.13399504 9.5625 7.0625 C13.43675897 10.68986992 17.35785875 14.17546573 21.5 17.5 C26.01777813 21.13499389 30.27818516 24.9671029 34.51953125 28.9140625 C37.75211747 31.90441358 41.06705866 34.73786329 44.5 37.5 C49.01858176 41.1356405 53.27983329 44.96836402 57.52172852 48.91625977 C60.7329905 51.88715628 64.02627815 54.69961077 67.4375 57.4375 C72.21541338 61.28045479 76.68994984 65.36831329 81.16162109 69.55615234 C85.37429105 73.47906854 89.76413555 77.11911024 94.25390625 80.72265625 C97.26319052 83.21826469 100.13938654 85.83765143 103 88.5 C106.73327255 91.97419243 110.52371111 95.3006871 114.5 98.5 C119.01858176 102.1356405 123.27983329 105.96836402 127.52172852 109.91625977 C130.7329905 112.88715628 134.02627815 115.69961077 137.4375 118.4375 C142.21621628 122.28110057 146.69157687 126.36960164 151.16381836 130.55834961 C154.51099327 133.67553945 157.93005023 136.63573798 161.5 139.5 C162.37269531 140.24378906 163.24539063 140.98757813 164.14453125 141.75390625 C166.31220743 143.45898669 168.20248579 144.70354177 170.57421875 146.02734375 C174.86417468 148.72687419 178.01351166 151.2209505 180 156 C181.64650611 167.2180627 180.79323742 178.73133492 180 190 C175.96034448 187.6571522 172.77442942 185.09117177 169.375 181.875 C165.54238887 178.28839508 161.66267264 174.84624002 157.5625 171.5625 C152.78378372 167.71889943 148.30842313 163.63039836 143.83618164 159.44165039 C140.48900673 156.32446055 137.06994977 153.36426202 133.5 150.5 C129.3333379 147.15698041 125.39580188 143.64884863 121.5 140 C116.73911006 135.54125556 111.8353218 131.3620217 106.74609375 127.27734375 C103.21081914 124.34552995 99.85958594 121.23155781 96.5 118.10327148 C92.24178395 114.16261496 87.81144091 110.49695133 83.27734375 106.875 C81 105 81 105 78 102 C77.67 156.12 77.34 210.24 77 266 C51.59 266 26.18 266 0 266 C0 178.22 0 90.44 0 0 Z " fill="#141414" transform="translate(1492,216)"/>
<path d="M0 0 C18.81 0 37.62 0 57 0 C57 32.34 57 64.68 57 98 C63.93 98 70.86 98 78 98 C78 155.75 78 213.5 78 273 C67.87381242 269.62460414 67.87381242 269.62460414 64.55126953 268.19750977 C63.42170334 267.7153878 63.42170334 267.7153878 62.26931763 267.223526 C61.48177094 266.88292648 60.69422424 266.54232697 59.8828125 266.19140625 C59.02734833 265.82458237 58.17188416 265.45775848 57.29049683 265.07981873 C55.47954674 264.30240869 53.66934669 263.52324939 51.85986328 262.74243164 C49.19604192 261.59315038 46.52991548 260.44937752 43.86328125 259.30664062 C29.18393677 252.99484371 14.60434287 246.49081905 0 240 C0 160.8 0 81.6 0 0 Z " fill="#DB4A25" transform="translate(765,214)"/>
<path d="M0 0 C18.81 0 37.62 0 57 0 C57 32.34 57 64.68 57 98 C63.93 98 70.86 98 78 98 C78 155.75 78 213.5 78 273 C67.87381242 269.62460414 67.87381242 269.62460414 64.55126953 268.19750977 C63.42170334 267.7153878 63.42170334 267.7153878 62.26931763 267.223526 C61.48177094 266.88292648 60.69422424 266.54232697 59.8828125 266.19140625 C59.02734833 265.82458237 58.17188416 265.45775848 57.29049683 265.07981873 C55.47954674 264.30240869 53.66934669 263.52324939 51.85986328 262.74243164 C49.19604192 261.59315038 46.52991548 260.44937752 43.86328125 259.30664062 C29.18393677 252.99484371 14.60434287 246.49081905 0 240 C0 160.8 0 81.6 0 0 Z " fill="#141414" transform="translate(1338,209)"/>
<path d="M0 0 C37.95 0 75.9 0 115 0 C115 23.43 115 46.86 115 71 C97.18 71 79.36 71 61 71 C60.34 72.98 59.68 74.96 59 77 C57.69947209 79.32060371 56.38754221 81.52930382 54.9375 83.75 C54.54119385 84.36053223 54.1448877 84.97106445 53.73657227 85.60009766 C49.99733912 91.22703449 45.70724847 96.15704707 41 101 C40.37738281 101.68449219 39.75476562 102.36898437 39.11328125 103.07421875 C21.14989372 122.24269727 -5.24393331 131.72908853 -31 133 C-37.00820936 133.17179489 -42.98768891 133.09543351 -49 133 C-49 124.42 -49 115.84 -49 107 C-45.205 106.9175 -41.41 106.835 -37.5 106.75 C-14.5237417 105.93722025 6.1303108 98.97122426 22.66796875 82.3125 C25.69870904 78.99747723 28.50719643 75.73920536 31 72 C11.86 71.67 -7.28 71.34 -27 71 C-26.25602799 66.53616794 -25.54135251 63.40403165 -23.93041992 59.32104492 C-23.28921455 57.68355537 -23.28921455 57.68355537 -22.63505554 56.01298523 C-22.1715419 54.84725479 -21.70802826 53.68152435 -21.23046875 52.48046875 C-20.7530574 51.26732498 -20.27564606 50.05418121 -19.7837677 48.80427551 C-18.77438067 46.24007621 -17.76117489 43.67743317 -16.74487305 41.1159668 C-15.45189038 37.85701002 -14.16569029 34.5954337 -12.88204479 31.33278942 C-11.64652295 28.19352564 -10.40727513 25.05574058 -9.16796875 21.91796875 C-8.7105278 20.758311 -8.25308685 19.59865326 -7.78178406 18.40385437 C-7.34485733 17.30273819 -6.9079306 16.20162201 -6.45776367 15.06713867 C-6.07883469 14.11038742 -5.6999057 13.15363617 -5.30949402 12.16789246 C-3.61897532 8.07823542 -1.7972785 4.04387663 0 0 Z " fill="#DB4A25" transform="translate(1119,282)"/>
<path d="M0 0 C25.74 0 51.48 0 78 0 C78 53.46 78 106.92 78 162 C70.74 162 63.48 162 56 162 C56 129.66 56 97.32 56 64 C37.52 64 19.04 64 0 64 C0 42.88 0 21.76 0 0 Z " fill="#DB4A25" transform="translate(786,130)"/>
<path d="M0 0 C25.74 0 51.48 0 78 0 C78 53.46 78 106.92 78 162 C70.74 162 63.48 162 56 162 C56 129.66 56 97.32 56 64 C37.52 64 19.04 64 0 64 C0 42.88 0 21.76 0 0 Z " fill="#141414" transform="translate(1359,125)"/>
<path d="M0 0 C5.3114806 4.12487323 9.733494 8.07035534 13 14 C10.09177202 16.32327555 7.17206873 18.63166509 4.25 20.9375 C3.0125 21.9265332 3.0125 21.9265332 1.75 22.93554688 C0.95078125 23.56396484 0.1515625 24.19238281 -0.671875 24.83984375 C-1.4050293 25.42113037 -2.13818359 26.00241699 -2.89355469 26.60131836 C-5.00358394 28.00237974 -6.49321143 28.69856125 -9 29 C-10.82421875 27.70703125 -10.82421875 27.70703125 -12.6875 25.8125 C-19.41218429 19.51517882 -27.34753055 16.6387115 -36.50390625 16.7890625 C-46.28534667 17.6156631 -53.02679714 21.93649707 -59.75 28.8125 C-65.2414787 36.59209482 -67.83023694 44.40180119 -66.62890625 53.94921875 C-64.89152006 62.37716045 -61.50164165 69.66185957 -54.4609375 74.8828125 C-52.01553022 76.3760258 -49.56614975 77.72767115 -47 79 C-45.68 79.66 -44.36 80.32 -43 81 C-43 84.3 -43 87.6 -43 91 C-27.8417962 90.61527402 -15.77555387 88.45475715 -4 78 C-3.27296875 76.93265625 -2.5459375 75.8653125 -1.796875 74.765625 C1.22630808 71.7762205 1.65823355 71.58660904 5.64453125 71.4140625 C7.36816647 71.4536863 9.09131852 71.52488654 10.8125 71.625 C11.69615234 71.65207031 12.57980469 71.67914062 13.49023438 71.70703125 C15.66121114 71.77744131 17.83092529 71.88505394 20 72 C16.34465319 84.20214804 6.93836157 94.19388348 -3.75 100.8125 C-18.82808907 108.92711614 -36.50926473 111.08487316 -53.1875 106.4375 C-70.12764266 100.10452725 -82.31692318 89.05976785 -89.96875 72.64453125 C-96.35634013 56.26423384 -95.37380495 38.96900039 -88.71484375 22.8984375 C-80.97072994 7.58278066 -67.25025213 -3.39542311 -51.125 -8.8125 C-33.410659 -13.22218659 -15.15439917 -9.85035946 0 0 Z " fill="#141414" transform="translate(1622,554)"/>
<path d="M0 0 C5.3114806 4.12487323 9.733494 8.07035534 13 14 C10.09177202 16.32327555 7.17206873 18.63166509 4.25 20.9375 C3.0125 21.9265332 3.0125 21.9265332 1.75 22.93554688 C0.95078125 23.56396484 0.1515625 24.19238281 -0.671875 24.83984375 C-1.4050293 25.42113037 -2.13818359 26.00241699 -2.89355469 26.60131836 C-5.00358394 28.00237974 -6.49321143 28.69856125 -9 29 C-10.82421875 27.70703125 -10.82421875 27.70703125 -12.6875 25.8125 C-19.41218429 19.51517882 -27.34753055 16.6387115 -36.50390625 16.7890625 C-46.28534667 17.6156631 -53.02679714 21.93649707 -59.75 28.8125 C-65.2414787 36.59209482 -67.83023694 44.40180119 -66.62890625 53.94921875 C-64.89152006 62.37716045 -61.50164165 69.66185957 -54.4609375 74.8828125 C-52.01553022 76.3760258 -49.56614975 77.72767115 -47 79 C-45.68 79.66 -44.36 80.32 -43 81 C-43 84.3 -43 87.6 -43 91 C-27.8417962 90.61527402 -15.77555387 88.45475715 -4 78 C-3.27296875 76.93265625 -2.5459375 75.8653125 -1.796875 74.765625 C1.22630808 71.7762205 1.65823355 71.58660904 5.64453125 71.4140625 C7.36816647 71.4536863 9.09131852 71.52488654 10.8125 71.625 C11.69615234 71.65207031 12.57980469 71.67914062 13.49023438 71.70703125 C15.66121114 71.77744131 17.83092529 71.88505394 20 72 C16.34465319 84.20214804 6.93836157 94.19388348 -3.75 100.8125 C-18.82808907 108.92711614 -36.50926473 111.08487316 -53.1875 106.4375 C-70.12764266 100.10452725 -82.31692318 89.05976785 -89.96875 72.64453125 C-96.35634013 56.26423384 -95.37380495 38.96900039 -88.71484375 22.8984375 C-80.97072994 7.58278066 -67.25025213 -3.39542311 -51.125 -8.8125 C-33.410659 -13.22218659 -15.15439917 -9.85035946 0 0 Z " fill="#141414" transform="translate(1151,554)"/>
<path d="M0 0 C5.94 0 11.88 0 18 0 C18 12.21 18 24.42 18 37 C20.64 37 23.28 37 26 37 C26 42.94 26 48.88 26 55 C28.7946875 54.87238281 31.589375 54.74476563 34.46875 54.61328125 C37.19582404 54.5273313 39.92274363 54.46063975 42.65039062 54.39575195 C44.53650143 54.34064882 46.42214681 54.2657349 48.30664062 54.17016602 C63.90135998 53.39949675 63.90135998 53.39949675 68.86865234 57.18774414 C70.95647148 60.02863237 72.49078586 62.81867491 74 66 C74.95097402 67.4988041 75.92096156 68.98580189 76.9140625 70.45703125 C77.82154066 71.90646182 78.72510889 73.35834679 79.625 74.8125 C80.64528445 76.44565554 81.66614365 78.07845211 82.6875 79.7109375 C83.48414063 80.98662598 83.48414063 80.98662598 84.296875 82.28808594 C86.12142419 85.19334574 87.96445375 88.08619581 89.8125 90.9765625 C90.44720215 91.96938232 91.0819043 92.96220215 91.73583984 93.98510742 C92.97453245 95.9209448 94.21440038 97.85603073 95.45556641 99.7902832 C96.01937012 100.67288818 96.58317383 101.55549316 97.1640625 102.46484375 C97.66373535 103.244646 98.1634082 104.02444824 98.67822266 104.82788086 C99.90433729 106.84279439 100.98106135 108.87413719 102 111 C97.5712664 111.24865482 93.14629534 111.42926743 88.71264648 111.54931641 C87.20769468 111.59937919 85.70322393 111.66746223 84.19995117 111.75439453 C71.78580674 112.45389886 71.78580674 112.45389886 67.6105957 109.0546875 C65.76979275 106.45673741 64.37759399 103.86782936 63 101 C62.03258314 99.42258237 61.05004577 97.8543127 60.05078125 96.296875 C59.13460819 94.78331045 58.22181015 93.26769752 57.3125 91.75 C56.39309866 90.2232522 55.47254831 88.69719567 54.55078125 87.171875 C53.90616943 86.10356445 53.90616943 86.10356445 53.24853516 85.01367188 C52.10186031 83.16428311 50.90280928 81.36932225 49.66796875 79.578125 C48 77 48 77 48 75 C40.74 75 33.48 75 26 75 C26 83.58 26 92.16 26 101 C22.266875 102.65 18.53375 104.3 14.6875 106 C13.51405029 106.52207031 12.34060059 107.04414062 11.1315918 107.58203125 C10.20515869 107.98808594 9.27872559 108.39414062 8.32421875 108.8125 C7.37635498 109.23144531 6.42849121 109.65039062 5.4519043 110.08203125 C3 111 3 111 0 111 C0 74.37 0 37.74 0 0 Z " fill="#141414" transform="translate(1416,551)"/>
<path d="M0 0 C28.05 0 56.1 0 85 0 C85 8.58 85 17.16 85 26 C65.86 26 46.72 26 27 26 C27 32.27 27 38.54 27 45 C46.14 45 65.28 45 85 45 C82 55 82 55 75 72 C60.48 72 45.96 72 31 72 C31 69.03 31 66.06 31 63 C23.41 63 15.82 63 8 63 C8 58.38 8 53.76 8 49 C5.36 49 2.72 49 0 49 C0 32.83 0 16.66 0 0 Z " fill="#141414" transform="translate(1190,544)"/>
<path d="M0 0 C27.72 0 55.44 0 84 0 C84 8.91 84 17.82 84 27 C64.86 27 45.72 27 26 27 C26 32.61 26 38.22 26 44 C45.14 44 64.28 44 84 44 C83.28821105 48.27073368 82.72243859 51.12292788 81.15234375 54.9609375 C80.82999756 55.75806152 80.50765137 56.55518555 80.17553711 57.37646484 C79.76698486 58.36598145 79.35843262 59.35549805 78.9375 60.375 C77.638125 63.55125 76.33875 66.7275 75 70 C62.13 70 49.26 70 36 70 C36 66.04 36 62.08 36 58 C28.08 58 20.16 58 12 58 C12 53.05 12 48.1 12 43 C8.04 43 4.08 43 0 43 C0 28.81 0 14.62 0 0 Z " fill="#D84825" transform="translate(710,549)"/>
<path d="M0 0 C8.58 0 17.16 0 26 0 C26 14.52 26 29.04 26 44 C28.97 44 31.94 44 35 44 C35 47.96 35 51.92 35 56 C45.56 56 56.12 56 67 56 C67 60.62 67 65.24 67 70 C53.47 70 39.94 70 26 70 C26 84.52 26 99.04 26 114 C17.42 114 8.84 114 0 114 C0 76.38 0 38.76 0 0 Z " fill="#D84825" transform="translate(920,549)"/>
<path d="M0 0 C10.55119595 7.83993927 17.47438419 17.34926091 21 30 C18.36 30.33 15.72 30.66 13 31 C12.72027344 30.38253906 12.44054688 29.76507812 12.15234375 29.12890625 C7.63102589 19.57744056 2.16747438 11.58020179 -7 6 C-7.99 5.67 -8.98 5.34 -10 5 C-10.38285156 6.07314453 -10.38285156 6.07314453 -10.7734375 7.16796875 C-12.0876888 10.20246618 -13.69496016 12.63188911 -15.625 15.3125 C-16.57246094 16.63701172 -16.57246094 16.63701172 -17.5390625 17.98828125 C-18.02117187 18.65214844 -18.50328125 19.31601562 -19 20 C-19.79921875 19.76023437 -20.5984375 19.52046875 -21.421875 19.2734375 C-31.67807923 16.50474387 -39.90268219 16.45699402 -49.375 21.625 C-56.08886479 26.0757643 -60.30420147 31.83822009 -62.52734375 39.5859375 C-64.17904663 48.0219076 -63.28660283 55.50153337 -59 63 C-56.83612197 65.84964665 -54.52196674 68.46386491 -52 71 C-57.96583144 82.70615034 -57.96583144 82.70615034 -63 87 C-70.07769953 80.77162441 -74.20896164 74.58887706 -78 66 C-78.65867083 64.66269863 -79.32200502 63.32760877 -80 62 C-82.64 62.33 -85.28 62.66 -88 63 C-89.77419527 57.64914015 -90.35403315 52.93693169 -90.3125 47.3125 C-90.30758545 46.52230469 -90.3026709 45.73210938 -90.29760742 44.91796875 C-89.99529554 29.68765126 -84.35645608 17.10139415 -74 6 C-53.15403943 -13.77249749 -23.96028419 -14.62403552 0 0 Z " fill="#141414" transform="translate(1378,553)"/>
<path d="M0 0 C5.63990291 1.36724919 8.78850857 5.43938888 12 10 C14.40364865 14.52379002 16.38067711 19.14203133 18 24 C20.97 23.67 23.94 23.34 27 23 C31.40827733 33.9240976 30.21161705 49.19563965 26 60 C19.18189687 75.04563326 9.13496731 85.98109406 -6.25 92.4375 C-7.82302386 92.98868756 -9.40627053 93.5119035 -11 94 C-11.68964844 94.22300781 -12.37929687 94.44601562 -13.08984375 94.67578125 C-26.93892145 98.46686956 -42.02977449 96.255678 -54.6875 89.875 C-68.07638686 82.17114109 -77.00344826 71.58620693 -82 57 C-79.69 56.34 -77.38 55.68 -75 55 C-74.59910156 55.75023437 -74.19820312 56.50046875 -73.78515625 57.2734375 C-68.56171153 66.67800691 -62.55812772 75.60823565 -53 81 C-52.46890625 80.25234375 -51.9378125 79.5046875 -51.390625 78.734375 C-50.68421875 77.74953125 -49.9778125 76.7646875 -49.25 75.75 C-48.55390625 74.77546875 -47.8578125 73.8009375 -47.140625 72.796875 C-45.23547701 70.30766704 -43.27315379 68.15028061 -41 66 C-39.7625 66.4640625 -39.7625 66.4640625 -38.5 66.9375 C-29.9293214 69.53931315 -22.587956 69.51375602 -14.3515625 65.80859375 C-6.64584648 61.56235084 -1.94063228 56.43154526 0.875 48.0625 C3.19141522 38.9632881 2.28914142 31.42995518 -2 23 C-4.13106412 20.10686369 -6.43564021 17.51393698 -9 15 C-6.41789374 9.54888679 -3.61861108 4.82481477 0 0 Z " fill="#141414" transform="translate(1370,566)"/>
<path d="M0 0 C2.45876319 2.45876319 3.38555387 4.79140434 4.80859375 7.97265625 C5.08711685 8.59096313 5.36563995 9.20927002 5.65260315 9.84631348 C6.26240019 11.20082016 6.870216 12.55622007 7.47631836 13.91238403 C9.13979481 17.63349889 10.81826956 21.3478375 12.49609375 25.0625 C12.85359711 25.85475479 13.21110046 26.64700958 13.57943726 27.46327209 C18.37178723 38.06398287 23.29082745 48.60647264 28.20651245 59.15042114 C32.2154766 67.75019734 36.20711572 76.35738327 40.0625 85.02734375 C40.3618042 85.69061172 40.6611084 86.3538797 40.96948242 87.0372467 C42.22083048 89.88019169 43 91.85571427 43 95 C25.18 95 7.36 95 -11 95 C-8 86 -8 86 -7 85 C-4.30764224 84.76321284 -1.63501844 84.57801975 1.0625 84.4375 C1.82111328 84.39431641 2.57972656 84.35113281 3.36132812 84.30664062 C5.24065438 84.20026367 7.12030244 84.09960066 9 84 C8.75765625 83.4652002 8.5153125 82.93040039 8.265625 82.37939453 C7.17322535 79.96298549 6.08655096 77.54404421 5 75.125 C4.6184375 74.28324219 4.236875 73.44148437 3.84375 72.57421875 C3.30234375 71.36572266 3.30234375 71.36572266 2.75 70.1328125 C2.41484375 69.38918457 2.0796875 68.64555664 1.734375 67.87939453 C1 66 1 66 1 64 C0.34 64 -0.32 64 -1 64 C-1.0825 64.680625 -1.165 65.36125 -1.25 66.0625 C-2 69 -2 69 -6 76 C-15.57 76 -25.14 76 -35 76 C-32.7500351 69.2501053 -32.7500351 69.2501053 -31.23510742 65.99951172 C-30.89639114 65.26856293 -30.55767487 64.53761414 -30.20869446 63.78451538 C-29.84462997 63.00742218 -29.48056549 62.23032898 -29.10546875 61.4296875 C-28.72130295 60.60288483 -28.33713715 59.77608215 -27.94132996 58.92422485 C-26.69313477 56.23970327 -25.44041544 53.55732137 -24.1875 50.875 C-23.32800442 49.0294288 -22.46879376 47.18372489 -21.60986328 45.33789062 C-19.88922035 41.64096499 -18.16699444 37.94478259 -16.44384766 34.24902344 C-14.24849711 29.53763267 -12.06481515 24.82095015 -9.88671875 20.1015625 C-9.28039466 18.78920685 -8.67403224 17.47686891 -8.06762695 16.16455078 C-6.95897147 13.76526942 -5.85236544 11.36507816 -4.74682617 8.96435547 C-4.01749878 7.38871826 -4.01749878 7.38871826 -3.2734375 5.78125 C-2.85497559 4.87439453 -2.43651367 3.96753906 -2.00537109 3.03320312 C-1 1 -1 1 0 0 Z " fill="#141414" transform="translate(1759,536)"/>
<path d="M0 0 C0.94875 0.86625 1.8975 1.7325 2.875 2.625 C-2.67535203 9.40876359 -8.88942027 15.48022968 -15.125 21.625 C-18.81379299 19.82252161 -22.35150083 17.7973788 -25.90625 15.74609375 C-32.24595981 12.54275446 -40.04788178 12.65537016 -46.8515625 14.2734375 C-54.34232023 16.98680795 -60.69147432 21.43551628 -64.5 28.5625 C-65.07824408 29.90145628 -65.6212838 31.25626331 -66.125 32.625 C-66.36089844 33.26308594 -66.59679687 33.90117188 -66.83984375 34.55859375 C-69.28910181 42.51468039 -67.88248714 50.13158907 -64.3125 57.5078125 C-62.4904671 60.75630536 -60.38931397 63.66881231 -58.125 66.625 C-59.69377674 68.1608444 -61.28056154 69.67831331 -62.875 71.1875 C-63.75671875 72.03441406 -64.6384375 72.88132812 -65.546875 73.75390625 C-68.125 75.625 -68.125 75.625 -70.265625 75.62109375 C-76.44373768 72.31139053 -79.94313678 63.97128485 -82.125 57.625 C-83.54584256 52.28876744 -84.41674585 47.16817117 -84.125 41.625 C-87.755 41.625 -91.385 41.625 -95.125 41.625 C-94.31249124 24.35918882 -87.82365175 10.50502798 -75.125 -1.375 C-52.46148848 -18.70397153 -21.936966 -18.60254716 0 0 Z " fill="#D84825" transform="translate(903.125,563.375)"/>
<path d="M0 0 C6.49283204 -0.0922787 12.98335087 -0.17178322 19.47631836 -0.21972656 C21.68082426 -0.23973086 23.88527786 -0.26694322 26.08959961 -0.30175781 C29.27470883 -0.35077058 32.45911116 -0.37308127 35.64453125 -0.390625 C36.61582474 -0.41127014 37.58711823 -0.43191528 38.58784485 -0.45318604 C50.18048749 -0.45691144 59.40473596 3.63426951 67.68359375 11.625 C75.40577339 19.94415612 77.37287985 29.50851331 77.28515625 40.57421875 C76.40651465 51.12995408 71.07130158 59.07503967 63.87890625 66.484375 C61.71364413 68.23098977 59.58764757 69.01680529 57 70 C56.38330444 68.61518433 56.38330444 68.61518433 55.75415039 67.20239258 C53.40452374 62.64095252 50.93754134 58.03319143 45.86883545 56.25042725 C39.76853988 55.17340367 33.6016259 55.47687576 27.4375 55.6875 C25.55147654 55.70451164 23.66539025 55.7156343 21.77929688 55.72070312 C17.18266675 55.7457937 12.59421296 55.85093837 8 56 C8 53.36 8 50.72 8 48 C9.03930664 47.98018066 10.07861328 47.96036133 11.14941406 47.93994141 C15.01114836 47.86377876 18.8725111 47.775078 22.73388672 47.68261719 C24.40405941 47.64437143 26.07431323 47.60951085 27.74462891 47.578125 C30.14775557 47.53237839 32.55032584 47.47440075 34.953125 47.4140625 C35.69806213 47.40251129 36.44299927 47.39096008 37.21051025 47.37905884 C42.42762785 47.24604523 42.42762785 47.24604523 47 45 C49.30647799 41.07898742 50.10193404 38.85915831 49.5625 34.3125 C47.62308182 30.20093346 45.97687334 29.14795838 42 27 C39.26751604 26.59798433 36.9214675 26.39547319 34.1953125 26.390625 C33.1093428 26.36582062 33.1093428 26.36582062 32.00143433 26.34051514 C29.70920123 26.29227455 27.41763024 26.27071944 25.125 26.25 C23.56246712 26.22181999 21.99996476 26.19188973 20.4375 26.16015625 C16.6250546 26.08652322 12.81297157 26.03680352 9 26 C9 29.96 9 33.92 9 38 C6.03 38 3.06 38 0 38 C0 25.46 0 12.92 0 0 Z " fill="#141414" transform="translate(1440,544)"/>
<path d="M0 0 C8.58 0 17.16 0 26 0 C26 37.62 26 75.24 26 114 C19.98168092 111.99389364 14.2629682 109.94115188 8.5 107.375 C7.42878906 106.90707031 7.42878906 106.90707031 6.3359375 106.4296875 C1.13632015 104.13632015 1.13632015 104.13632015 0 103 C-0.09333705 101.40389018 -0.11745372 99.80366572 -0.11352539 98.20483398 C-0.11344986 97.18385117 -0.11337433 96.16286835 -0.11329651 95.11094666 C-0.10813522 94.0005452 -0.10297394 92.89014374 -0.09765625 91.74609375 C-0.0962413 90.61551041 -0.09482635 89.48492706 -0.09336853 88.32008362 C-0.08775019 84.69252935 -0.07519458 81.06503576 -0.0625 77.4375 C-0.05748736 74.98502693 -0.05292405 72.5325529 -0.04882812 70.08007812 C-0.0386237 64.05334296 -0.01905186 58.02673978 0 52 C-10.89 52 -21.78 52 -33 52 C-33 49.36 -33 46.72 -33 44 C-22.11 44 -11.22 44 0 44 C0 29.48 0 14.96 0 0 Z " fill="#D84825" transform="translate(991,549)"/>
<path d="M0 0 C2.64 0 5.28 0 8 0 C8 4.95 8 9.9 8 15 C15.92 15 23.84 15 32 15 C32 17.64 32 20.28 32 23 C30.02 23 28.04 23 26 23 C26 28.94 26 34.88 26 41 C45.14 41 64.28 41 84 41 C84 49.58 84 58.16 84 67 C56.28 67 28.56 67 0 67 C0 44.89 0 22.78 0 0 Z " fill="#D84825" transform="translate(710,596)"/>
<path d="M0 0 C7.26 0 14.52 0 22 0 C22 4.29 22 8.58 22 13 C31.24 13 40.48 13 50 13 C50 25.54 50 38.08 50 51 C54.29 51 58.58 51 63 51 C63 71.79 63 92.58 63 114 C54.09 114 45.18 114 36 114 C36 85.29 36 56.58 36 27 C24.12 27 12.24 27 0 27 C0 18.09 0 9.18 0 0 Z " fill="#D84825" transform="translate(599,549)"/>
<path d="M0 0 C2.97 0 5.94 0 9 0 C9 4.62 9 9.24 9 14 C16.59 14 24.18 14 32 14 C32 17.3 32 20.6 32 24 C30.35 24 28.7 24 27 24 C27 28.29 27 32.58 27 37 C46.14 37 65.28 37 85 37 C85 45.58 85 54.16 85 63 C56.95 63 28.9 63 0 63 C0 42.21 0 21.42 0 0 Z " fill="#141414" transform="translate(1183,599)"/>
<path d="M0 0 C9.57 0 19.14 0 29 0 C26 9 26 9 22 18 C40.81 18 59.62 18 79 18 C85 32 85 32 84 36 C81.99047852 37.28027344 81.99047852 37.28027344 79.37890625 38.359375 C77.97608398 38.94912109 77.97608398 38.94912109 76.54492188 39.55078125 C75.56072266 39.94652344 74.57652344 40.34226562 73.5625 40.75 C72.58216797 41.16121094 71.60183594 41.57242188 70.59179688 41.99609375 C63.34150488 45 63.34150488 45 61 45 C58 39.25 58 39.25 58 37 C42.82 37 27.64 37 12 37 C11.67 38.65 11.34 40.3 11 42 C10.34 42.99 9.68 43.98 9 45 C6.11083984 45.34057617 6.11083984 45.34057617 2.4609375 45.29296875 C0.50800781 45.2784668 0.50800781 45.2784668 -1.484375 45.26367188 C-2.86458923 45.23860388 -4.24479756 45.21320902 -5.625 45.1875 C-7.01300663 45.17245517 -8.40102867 45.15876641 -9.7890625 45.14648438 C-13.19309509 45.1110257 -16.59635622 45.06160298 -20 45 C-18.48151665 40.10423329 -16.51858202 35.54116005 -14.375 30.8984375 C-14.02743652 30.13955231 -13.67987305 29.38066711 -13.32177734 28.5987854 C-12.2173969 26.18952391 -11.10868142 23.7822848 -10 21.375 C-9.25494064 19.75012272 -8.51014633 18.12512388 -7.765625 16.5 C-7.0523175 14.94520505 -6.33878358 13.39051395 -5.625 11.8359375 C-5.29161621 11.10982269 -4.95823242 10.38370789 -4.61474609 9.6355896 C-3.12282545 6.39682107 -1.59499276 3.18998552 0 0 Z " fill="#141414" transform="translate(1717,618)"/>
<path d="M0 0 C2.64 0 5.28 0 8 0 C8.13535156 0.93199219 8.27070312 1.86398437 8.41015625 2.82421875 C10.43511795 14.81635722 14.48848233 24.97263277 23 34 C27.80883516 33.55025283 29.84038846 31.53997605 33.25 28.25 C38.22412465 23.9883851 38.22412465 23.9883851 41.609375 24.0390625 C43.90537865 24.84191345 45.89116183 25.79620488 48 27 C55.69339569 29.56446523 63.59097967 28.43522656 70.86328125 25.15625 C73.5195007 23.71888079 75.79299211 22.05987403 78 20 C81.70200542 21.27963659 84.04092005 22.67677014 86.76953125 25.4765625 C87.43017578 26.146875 88.09082031 26.8171875 88.77148438 27.5078125 C89.78178711 28.55582031 89.78178711 28.55582031 90.8125 29.625 C91.85180664 30.68460938 91.85180664 30.68460938 92.91210938 31.765625 C94.61506879 33.50381806 96.31061192 35.24863061 98 37 C94.01370754 45.40068648 84.25084026 49.57590129 76 53 C61.18588336 57.58941021 44.24104877 56.44669374 30.34765625 49.71484375 C16.86079883 42.25447116 7.02265194 30.58840613 2 16 C0.58054814 10.66286099 -0.2917794 5.54380855 0 0 Z " fill="#D84825" transform="translate(808,608)"/>
<path d="M0 0 C6.6 0 13.2 0 20 0 C20 10.56 20 21.12 20 32 C22.31 32 24.62 32 27 32 C27 51.14 27 70.28 27 90 C22.55876412 89.25979402 19.95593336 88.74172931 16.07421875 86.96875 C15.19572266 86.57042969 14.31722656 86.17210937 13.41210938 85.76171875 C12.51298828 85.34535156 11.61386719 84.92898438 10.6875 84.5 C9.76904297 84.08363281 8.85058594 83.66726563 7.90429688 83.23828125 C1.15583546 80.15583546 1.15583546 80.15583546 0 79 C-0.09500548 76.53555943 -0.12557985 74.09925374 -0.11352539 71.63452148 C-0.11367142 70.86384338 -0.11381744 70.09316528 -0.1139679 69.2991333 C-0.1132686 66.73975861 -0.10547545 64.1804558 -0.09765625 61.62109375 C-0.09579213 59.85132385 -0.0943682 58.08155344 -0.09336853 56.31178284 C-0.08954288 51.64448634 -0.0797122 46.97722077 -0.06866455 42.30993652 C-0.05845144 37.55102965 -0.05387113 32.79211779 -0.04882812 28.03320312 C-0.03808997 18.68878629 -0.0204928 9.34440055 0 0 Z " fill="#141414" transform="translate(1655,572)"/>
<path d="M0 0 C24.09 0 48.18 0 73 0 C72.26514247 3.67428766 71.50051701 6.60870597 70.1875 10.046875 C69.83429688 10.97371094 69.48109375 11.90054688 69.1171875 12.85546875 C68.74851562 13.81066406 68.37984375 14.76585937 68 15.75 C67.63132812 16.72066406 67.26265625 17.69132813 66.8828125 18.69140625 C64.13300737 25.86699263 64.13300737 25.86699263 63 27 C61.07332493 27.08748207 59.14348139 27.10697334 57.21484375 27.09765625 C56.04501953 27.09443359 54.87519531 27.09121094 53.66992188 27.08789062 C52.43822266 27.07951172 51.20652344 27.07113281 49.9375 27.0625 C48.08415039 27.05573242 48.08415039 27.05573242 46.19335938 27.04882812 C43.12888587 27.03699618 40.06443707 27.01906008 37 27 C37 33.6 37 40.2 37 47 C34.03 47 31.06 47 28 47 C28 34.46 28 21.92 28 9 C18.76 9 9.52 9 0 9 C0 6.03 0 3.06 0 0 Z " fill="#D84825" transform="translate(625,549)"/>
<path d="M0 0 C12.87 0 25.74 0 39 0 C39 7.92 39 15.84 39 24 C33.06 24 27.12 24 21 24 C20.34 25.65 19.68 27.3 19 29 C13.6886009 36.57951007 6.93326503 41.56858886 -2 44 C-5.6484375 44.1953125 -5.6484375 44.1953125 -9.375 44.125 C-10.62023438 44.10695313 -11.86546875 44.08890625 -13.1484375 44.0703125 C-14.08945313 44.04710937 -15.03046875 44.02390625 -16 44 C-16 41.03 -16 38.06 -16 35 C-15.24976563 34.98582031 -14.49953125 34.97164062 -13.7265625 34.95703125 C-6.29137672 34.61055534 -0.1375329 33.40301273 6 29 C7.32 27.35 8.64 25.7 10 24 C4.06 24 -1.88 24 -8 24 C-7 18 -7 18 0 0 Z " fill="#141414" transform="translate(1598,594)"/>
<path d="M0 0 C12.87 0 25.74 0 39 0 C39 7.92 39 15.84 39 24 C33.06 24 27.12 24 21 24 C20.34 25.65 19.68 27.3 19 29 C13.6886009 36.57951007 6.93326503 41.56858886 -2 44 C-5.6484375 44.1953125 -5.6484375 44.1953125 -9.375 44.125 C-10.62023438 44.10695313 -11.86546875 44.08890625 -13.1484375 44.0703125 C-14.08945313 44.04710937 -15.03046875 44.02390625 -16 44 C-16 41.03 -16 38.06 -16 35 C-15.24976563 34.98582031 -14.49953125 34.97164062 -13.7265625 34.95703125 C-6.29137672 34.61055534 -0.1375329 33.40301273 6 29 C7.32 27.35 8.64 25.7 10 24 C4.06 24 -1.88 24 -8 24 C-7 18 -7 18 0 0 Z " fill="#141414" transform="translate(1127,594)"/>
<path d="M0 0 C8.91 0 17.82 0 27 0 C27 17.82 27 35.64 27 54 C24.36 54 21.72 54 19 54 C19 43.44 19 32.88 19 22 C12.73 22 6.46 22 0 22 C0 14.74 0 7.48 0 0 Z " fill="#141414" transform="translate(1662,544)"/>
<path d="M0 0 C3.08181468 2.89012286 5.9023123 5.98784341 6.11352539 10.33837891 C6.10828857 11.29147949 6.10305176 12.24458008 6.09765625 13.2265625 C6.09443359 14.2578125 6.09121094 15.2890625 6.08789062 16.3515625 C6.07532227 17.97191406 6.07532227 17.97191406 6.0625 19.625 C6.05798828 20.71296875 6.05347656 21.8009375 6.04882812 22.921875 C6.03701776 25.61463789 6.02054778 28.30729188 6 31 C4.02 31 2.04 31 0 31 C0 26.05 0 21.1 0 16 C-1.98 16 -3.96 16 -6 16 C-6.28875 15.195625 -6.5775 14.39125 -6.875 13.5625 C-7.73262568 10.8673532 -7.73262568 10.8673532 -10 10 C-12.10955062 9.80261277 -12.10955062 9.80261277 -14.4375 9.8125 C-15.21996094 9.79832031 -16.00242187 9.78414062 -16.80859375 9.76953125 C-19.29205987 9.85913936 -19.29205987 9.85913936 -22 12 C-22.50621513 14.02276681 -22.50621513 14.02276681 -22.51171875 16.3515625 C-22.54716797 17.20234375 -22.58261719 18.053125 -22.61914062 18.9296875 C-22.65297852 20.26386719 -22.65297852 20.26386719 -22.6875 21.625 C-22.72166016 22.5221875 -22.75582031 23.419375 -22.79101562 24.34375 C-22.87362402 26.56237538 -22.94272719 28.7805994 -23 31 C-25.31 31 -27.62 31 -30 31 C-30 26.05 -30 21.1 -30 16 C-31.98 16 -33.96 16 -36 16 C-36.08690207 10.63690055 -35.38834095 6.84443735 -31.9375 2.625 C-23.40232231 -6.06599229 -10.09383549 -6.64814868 0 0 Z " fill="#1E1E1E" transform="translate(1228,15)"/>
<path d="M0 0 C3.08181468 2.89012286 5.9023123 5.98784341 6.11352539 10.33837891 C6.10828857 11.29147949 6.10305176 12.24458008 6.09765625 13.2265625 C6.09443359 14.2578125 6.09121094 15.2890625 6.08789062 16.3515625 C6.07532227 17.97191406 6.07532227 17.97191406 6.0625 19.625 C6.05798828 20.71296875 6.05347656 21.8009375 6.04882812 22.921875 C6.03701776 25.61463789 6.02054778 28.30729188 6 31 C4.02 31 2.04 31 0 31 C0 26.05 0 21.1 0 16 C-1.98 16 -3.96 16 -6 16 C-6.28875 15.195625 -6.5775 14.39125 -6.875 13.5625 C-7.73262568 10.8673532 -7.73262568 10.8673532 -10 10 C-12.10955062 9.80261277 -12.10955062 9.80261277 -14.4375 9.8125 C-15.21996094 9.79832031 -16.00242187 9.78414062 -16.80859375 9.76953125 C-19.29205987 9.85913936 -19.29205987 9.85913936 -22 12 C-22.50621513 14.02276681 -22.50621513 14.02276681 -22.51171875 16.3515625 C-22.54716797 17.20234375 -22.58261719 18.053125 -22.61914062 18.9296875 C-22.65297852 20.26386719 -22.65297852 20.26386719 -22.6875 21.625 C-22.72166016 22.5221875 -22.75582031 23.419375 -22.79101562 24.34375 C-22.87362402 26.56237538 -22.94272719 28.7805994 -23 31 C-25.31 31 -27.62 31 -30 31 C-30 26.05 -30 21.1 -30 16 C-31.98 16 -33.96 16 -36 16 C-36.08690207 10.63690055 -35.38834095 6.84443735 -31.9375 2.625 C-23.40232231 -6.06599229 -10.09383549 -6.64814868 0 0 Z " fill="#1E1E1E" transform="translate(1149,15)"/>
<path d="M0 0 C3.08181468 2.89012286 5.9023123 5.98784341 6.11352539 10.33837891 C6.10828857 11.29147949 6.10305176 12.24458008 6.09765625 13.2265625 C6.09443359 14.2578125 6.09121094 15.2890625 6.08789062 16.3515625 C6.07532227 17.97191406 6.07532227 17.97191406 6.0625 19.625 C6.05798828 20.71296875 6.05347656 21.8009375 6.04882812 22.921875 C6.03701776 25.61463789 6.02054778 28.30729188 6 31 C4.02 31 2.04 31 0 31 C0 26.05 0 21.1 0 16 C-1.98 16 -3.96 16 -6 16 C-6.28875 15.195625 -6.5775 14.39125 -6.875 13.5625 C-7.73262568 10.8673532 -7.73262568 10.8673532 -10 10 C-12.10955062 9.80261277 -12.10955062 9.80261277 -14.4375 9.8125 C-15.21996094 9.79832031 -16.00242187 9.78414062 -16.80859375 9.76953125 C-19.29205987 9.85913936 -19.29205987 9.85913936 -22 12 C-22.50621513 14.02276681 -22.50621513 14.02276681 -22.51171875 16.3515625 C-22.54716797 17.20234375 -22.58261719 18.053125 -22.61914062 18.9296875 C-22.65297852 20.26386719 -22.65297852 20.26386719 -22.6875 21.625 C-22.72166016 22.5221875 -22.75582031 23.419375 -22.79101562 24.34375 C-22.87362402 26.56237538 -22.94272719 28.7805994 -23 31 C-25.31 31 -27.62 31 -30 31 C-30 26.05 -30 21.1 -30 16 C-31.98 16 -33.96 16 -36 16 C-36.08690207 10.63690055 -35.38834095 6.84443735 -31.9375 2.625 C-23.40232231 -6.06599229 -10.09383549 -6.64814868 0 0 Z " fill="#1E1E1E" transform="translate(1099,15)"/>
<path d="M0 0 C3.08181468 2.89012286 5.9023123 5.98784341 6.11352539 10.33837891 C6.10828857 11.29147949 6.10305176 12.24458008 6.09765625 13.2265625 C6.09443359 14.2578125 6.09121094 15.2890625 6.08789062 16.3515625 C6.07532227 17.97191406 6.07532227 17.97191406 6.0625 19.625 C6.05798828 20.71296875 6.05347656 21.8009375 6.04882812 22.921875 C6.03701776 25.61463789 6.02054778 28.30729188 6 31 C4.02 31 2.04 31 0 31 C0 26.05 0 21.1 0 16 C-1.98 16 -3.96 16 -6 16 C-6.28875 15.195625 -6.5775 14.39125 -6.875 13.5625 C-7.73262568 10.8673532 -7.73262568 10.8673532 -10 10 C-12.10955062 9.80261277 -12.10955062 9.80261277 -14.4375 9.8125 C-15.21996094 9.79832031 -16.00242187 9.78414062 -16.80859375 9.76953125 C-19.29205987 9.85913936 -19.29205987 9.85913936 -22 12 C-22.50621513 14.02276681 -22.50621513 14.02276681 -22.51171875 16.3515625 C-22.54716797 17.20234375 -22.58261719 18.053125 -22.61914062 18.9296875 C-22.65297852 20.26386719 -22.65297852 20.26386719 -22.6875 21.625 C-22.72166016 22.5221875 -22.75582031 23.419375 -22.79101562 24.34375 C-22.87362402 26.56237538 -22.94272719 28.7805994 -23 31 C-25.31 31 -27.62 31 -30 31 C-30 26.05 -30 21.1 -30 16 C-31.98 16 -33.96 16 -36 16 C-36.08690207 10.63690055 -35.38834095 6.84443735 -31.9375 2.625 C-23.40232231 -6.06599229 -10.09383549 -6.64814868 0 0 Z " fill="#1E1E1E" transform="translate(993,15)"/>
<path d="M0 0 C3.08181468 2.89012286 5.9023123 5.98784341 6.11352539 10.33837891 C6.10828857 11.29147949 6.10305176 12.24458008 6.09765625 13.2265625 C6.09443359 14.2578125 6.09121094 15.2890625 6.08789062 16.3515625 C6.07532227 17.97191406 6.07532227 17.97191406 6.0625 19.625 C6.05798828 20.71296875 6.05347656 21.8009375 6.04882812 22.921875 C6.03701776 25.61463789 6.02054778 28.30729188 6 31 C4.02 31 2.04 31 0 31 C0 26.05 0 21.1 0 16 C-1.98 16 -3.96 16 -6 16 C-6.28875 15.195625 -6.5775 14.39125 -6.875 13.5625 C-7.73262568 10.8673532 -7.73262568 10.8673532 -10 10 C-12.10955062 9.80261277 -12.10955062 9.80261277 -14.4375 9.8125 C-15.21996094 9.79832031 -16.00242187 9.78414062 -16.80859375 9.76953125 C-19.29205987 9.85913936 -19.29205987 9.85913936 -22 12 C-22.50621513 14.02276681 -22.50621513 14.02276681 -22.51171875 16.3515625 C-22.54716797 17.20234375 -22.58261719 18.053125 -22.61914062 18.9296875 C-22.65297852 20.26386719 -22.65297852 20.26386719 -22.6875 21.625 C-22.72166016 22.5221875 -22.75582031 23.419375 -22.79101562 24.34375 C-22.87362402 26.56237538 -22.94272719 28.7805994 -23 31 C-25.31 31 -27.62 31 -30 31 C-30 26.05 -30 21.1 -30 16 C-31.98 16 -33.96 16 -36 16 C-36.08690207 10.63690055 -35.38834095 6.84443735 -31.9375 2.625 C-23.40232231 -6.06599229 -10.09383549 -6.64814868 0 0 Z " fill="#1E1E1E" transform="translate(917,15)"/>
<path d="M0 0 C3.08181468 2.89012286 5.9023123 5.98784341 6.11352539 10.33837891 C6.10828857 11.29147949 6.10305176 12.24458008 6.09765625 13.2265625 C6.09443359 14.2578125 6.09121094 15.2890625 6.08789062 16.3515625 C6.07532227 17.97191406 6.07532227 17.97191406 6.0625 19.625 C6.05798828 20.71296875 6.05347656 21.8009375 6.04882812 22.921875 C6.03701776 25.61463789 6.02054778 28.30729188 6 31 C4.02 31 2.04 31 0 31 C0 26.05 0 21.1 0 16 C-1.98 16 -3.96 16 -6 16 C-6.28875 15.195625 -6.5775 14.39125 -6.875 13.5625 C-7.73262568 10.8673532 -7.73262568 10.8673532 -10 10 C-12.10955062 9.80261277 -12.10955062 9.80261277 -14.4375 9.8125 C-15.21996094 9.79832031 -16.00242187 9.78414062 -16.80859375 9.76953125 C-19.29205987 9.85913936 -19.29205987 9.85913936 -22 12 C-22.50621513 14.02276681 -22.50621513 14.02276681 -22.51171875 16.3515625 C-22.54716797 17.20234375 -22.58261719 18.053125 -22.61914062 18.9296875 C-22.65297852 20.26386719 -22.65297852 20.26386719 -22.6875 21.625 C-22.72166016 22.5221875 -22.75582031 23.419375 -22.79101562 24.34375 C-22.87362402 26.56237538 -22.94272719 28.7805994 -23 31 C-25.31 31 -27.62 31 -30 31 C-30 26.05 -30 21.1 -30 16 C-31.98 16 -33.96 16 -36 16 C-36.08690207 10.63690055 -35.38834095 6.84443735 -31.9375 2.625 C-23.40232231 -6.06599229 -10.09383549 -6.64814868 0 0 Z " fill="#1E1E1E" transform="translate(811,15)"/>
<path d="M0 0 C3.08181468 2.89012286 5.9023123 5.98784341 6.11352539 10.33837891 C6.10828857 11.29147949 6.10305176 12.24458008 6.09765625 13.2265625 C6.09443359 14.2578125 6.09121094 15.2890625 6.08789062 16.3515625 C6.07532227 17.97191406 6.07532227 17.97191406 6.0625 19.625 C6.05798828 20.71296875 6.05347656 21.8009375 6.04882812 22.921875 C6.03701776 25.61463789 6.02054778 28.30729188 6 31 C4.02 31 2.04 31 0 31 C0 26.05 0 21.1 0 16 C-1.98 16 -3.96 16 -6 16 C-6.28875 15.195625 -6.5775 14.39125 -6.875 13.5625 C-7.73262568 10.8673532 -7.73262568 10.8673532 -10 10 C-12.10955062 9.80261277 -12.10955062 9.80261277 -14.4375 9.8125 C-15.21996094 9.79832031 -16.00242187 9.78414062 -16.80859375 9.76953125 C-19.29205987 9.85913936 -19.29205987 9.85913936 -22 12 C-22.50621513 14.02276681 -22.50621513 14.02276681 -22.51171875 16.3515625 C-22.54716797 17.20234375 -22.58261719 18.053125 -22.61914062 18.9296875 C-22.65297852 20.26386719 -22.65297852 20.26386719 -22.6875 21.625 C-22.72166016 22.5221875 -22.75582031 23.419375 -22.79101562 24.34375 C-22.87362402 26.56237538 -22.94272719 28.7805994 -23 31 C-25.31 31 -27.62 31 -30 31 C-30 26.05 -30 21.1 -30 16 C-31.98 16 -33.96 16 -36 16 C-36.08690207 10.63690055 -35.38834095 6.84443735 -31.9375 2.625 C-23.40232231 -6.06599229 -10.09383549 -6.64814868 0 0 Z " fill="#1E1E1E" transform="translate(678,15)"/>
<path d="M0 0 C3.08181468 2.89012286 5.9023123 5.98784341 6.11352539 10.33837891 C6.10828857 11.29147949 6.10305176 12.24458008 6.09765625 13.2265625 C6.09443359 14.2578125 6.09121094 15.2890625 6.08789062 16.3515625 C6.07532227 17.97191406 6.07532227 17.97191406 6.0625 19.625 C6.05798828 20.71296875 6.05347656 21.8009375 6.04882812 22.921875 C6.03701776 25.61463789 6.02054778 28.30729188 6 31 C4.02 31 2.04 31 0 31 C0 26.05 0 21.1 0 16 C-1.98 16 -3.96 16 -6 16 C-6.28875 15.195625 -6.5775 14.39125 -6.875 13.5625 C-7.73262568 10.8673532 -7.73262568 10.8673532 -10 10 C-12.10955062 9.80261277 -12.10955062 9.80261277 -14.4375 9.8125 C-15.21996094 9.79832031 -16.00242187 9.78414062 -16.80859375 9.76953125 C-19.29205987 9.85913936 -19.29205987 9.85913936 -22 12 C-22.50621513 14.02276681 -22.50621513 14.02276681 -22.51171875 16.3515625 C-22.54716797 17.20234375 -22.58261719 18.053125 -22.61914062 18.9296875 C-22.65297852 20.26386719 -22.65297852 20.26386719 -22.6875 21.625 C-22.72166016 22.5221875 -22.75582031 23.419375 -22.79101562 24.34375 C-22.87362402 26.56237538 -22.94272719 28.7805994 -23 31 C-25.31 31 -27.62 31 -30 31 C-30 26.05 -30 21.1 -30 16 C-31.98 16 -33.96 16 -36 16 C-36.08690207 10.63690055 -35.38834095 6.84443735 -31.9375 2.625 C-23.40232231 -6.06599229 -10.09383549 -6.64814868 0 0 Z " fill="#1E1E1E" transform="translate(492,15)"/>
<path d="M0 0 C3.08181468 2.89012286 5.9023123 5.98784341 6.11352539 10.33837891 C6.10828857 11.29147949 6.10305176 12.24458008 6.09765625 13.2265625 C6.09443359 14.2578125 6.09121094 15.2890625 6.08789062 16.3515625 C6.07532227 17.97191406 6.07532227 17.97191406 6.0625 19.625 C6.05798828 20.71296875 6.05347656 21.8009375 6.04882812 22.921875 C6.03701776 25.61463789 6.02054778 28.30729188 6 31 C4.02 31 2.04 31 0 31 C0 26.05 0 21.1 0 16 C-1.98 16 -3.96 16 -6 16 C-6.28875 15.195625 -6.5775 14.39125 -6.875 13.5625 C-7.73262568 10.8673532 -7.73262568 10.8673532 -10 10 C-12.10955062 9.80261277 -12.10955062 9.80261277 -14.4375 9.8125 C-15.21996094 9.79832031 -16.00242187 9.78414062 -16.80859375 9.76953125 C-19.29205987 9.85913936 -19.29205987 9.85913936 -22 12 C-22.50621513 14.02276681 -22.50621513 14.02276681 -22.51171875 16.3515625 C-22.54716797 17.20234375 -22.58261719 18.053125 -22.61914062 18.9296875 C-22.65297852 20.26386719 -22.65297852 20.26386719 -22.6875 21.625 C-22.72166016 22.5221875 -22.75582031 23.419375 -22.79101562 24.34375 C-22.87362402 26.56237538 -22.94272719 28.7805994 -23 31 C-25.31 31 -27.62 31 -30 31 C-30 26.05 -30 21.1 -30 16 C-31.98 16 -33.96 16 -36 16 C-36.08690207 10.63690055 -35.38834095 6.84443735 -31.9375 2.625 C-23.40232231 -6.06599229 -10.09383549 -6.64814868 0 0 Z " fill="#1E1E1E" transform="translate(386,15)"/>
<path d="M0 0 C3.08181468 2.89012286 5.9023123 5.98784341 6.11352539 10.33837891 C6.10828857 11.29147949 6.10305176 12.24458008 6.09765625 13.2265625 C6.09443359 14.2578125 6.09121094 15.2890625 6.08789062 16.3515625 C6.07532227 17.97191406 6.07532227 17.97191406 6.0625 19.625 C6.05798828 20.71296875 6.05347656 21.8009375 6.04882812 22.921875 C6.03701776 25.61463789 6.02054778 28.30729188 6 31 C4.02 31 2.04 31 0 31 C0 26.05 0 21.1 0 16 C-1.98 16 -3.96 16 -6 16 C-6.28875 15.195625 -6.5775 14.39125 -6.875 13.5625 C-7.73262568 10.8673532 -7.73262568 10.8673532 -10 10 C-12.10955062 9.80261277 -12.10955062 9.80261277 -14.4375 9.8125 C-15.21996094 9.79832031 -16.00242187 9.78414062 -16.80859375 9.76953125 C-19.29205987 9.85913936 -19.29205987 9.85913936 -22 12 C-22.50621513 14.02276681 -22.50621513 14.02276681 -22.51171875 16.3515625 C-22.54716797 17.20234375 -22.58261719 18.053125 -22.61914062 18.9296875 C-22.65297852 20.26386719 -22.65297852 20.26386719 -22.6875 21.625 C-22.72166016 22.5221875 -22.75582031 23.419375 -22.79101562 24.34375 C-22.87362402 26.56237538 -22.94272719 28.7805994 -23 31 C-25.31 31 -27.62 31 -30 31 C-30 26.05 -30 21.1 -30 16 C-31.98 16 -33.96 16 -36 16 C-36.08690207 10.63690055 -35.38834095 6.84443735 -31.9375 2.625 C-23.40232231 -6.06599229 -10.09383549 -6.64814868 0 0 Z " fill="#1E1E1E" transform="translate(310,15)"/>
<path d="M0 0 C3.08181468 2.89012286 5.9023123 5.98784341 6.11352539 10.33837891 C6.10828857 11.29147949 6.10305176 12.24458008 6.09765625 13.2265625 C6.09443359 14.2578125 6.09121094 15.2890625 6.08789062 16.3515625 C6.07532227 17.97191406 6.07532227 17.97191406 6.0625 19.625 C6.05798828 20.71296875 6.05347656 21.8009375 6.04882812 22.921875 C6.03701776 25.61463789 6.02054778 28.30729188 6 31 C4.02 31 2.04 31 0 31 C0 26.05 0 21.1 0 16 C-1.98 16 -3.96 16 -6 16 C-6.28875 15.195625 -6.5775 14.39125 -6.875 13.5625 C-7.73262568 10.8673532 -7.73262568 10.8673532 -10 10 C-12.10955062 9.80261277 -12.10955062 9.80261277 -14.4375 9.8125 C-15.21996094 9.79832031 -16.00242188 9.78414062 -16.80859375 9.76953125 C-19.29205987 9.85913936 -19.29205987 9.85913936 -22 12 C-22.50621513 14.02276681 -22.50621513 14.02276681 -22.51171875 16.3515625 C-22.54716797 17.20234375 -22.58261719 18.053125 -22.61914062 18.9296875 C-22.65297852 20.26386719 -22.65297852 20.26386719 -22.6875 21.625 C-22.72166016 22.5221875 -22.75582031 23.419375 -22.79101562 24.34375 C-22.87362402 26.56237538 -22.94272719 28.7805994 -23 31 C-25.31 31 -27.62 31 -30 31 C-30 26.05 -30 21.1 -30 16 C-31.98 16 -33.96 16 -36 16 C-36.08690207 10.63690055 -35.38834095 6.84443735 -31.9375 2.625 C-23.40232231 -6.06599229 -10.09383549 -6.64814868 0 0 Z " fill="#1E1E1E" transform="translate(259,15)"/>
<path d="M0 0 C3.08181468 2.89012286 5.9023123 5.98784341 6.11352539 10.33837891 C6.10828857 11.29147949 6.10305176 12.24458008 6.09765625 13.2265625 C6.09443359 14.2578125 6.09121094 15.2890625 6.08789062 16.3515625 C6.07532227 17.97191406 6.07532227 17.97191406 6.0625 19.625 C6.05798828 20.71296875 6.05347656 21.8009375 6.04882812 22.921875 C6.03701776 25.61463789 6.02054778 28.30729188 6 31 C4.02 31 2.04 31 0 31 C0 26.05 0 21.1 0 16 C-1.98 16 -3.96 16 -6 16 C-6.28875 15.195625 -6.5775 14.39125 -6.875 13.5625 C-7.73262568 10.8673532 -7.73262568 10.8673532 -10 10 C-12.10955062 9.80261277 -12.10955062 9.80261277 -14.4375 9.8125 C-15.21996094 9.79832031 -16.00242188 9.78414062 -16.80859375 9.76953125 C-19.29205987 9.85913936 -19.29205987 9.85913936 -22 12 C-22.50621513 14.02276681 -22.50621513 14.02276681 -22.51171875 16.3515625 C-22.54716797 17.20234375 -22.58261719 18.053125 -22.61914062 18.9296875 C-22.65297852 20.26386719 -22.65297852 20.26386719 -22.6875 21.625 C-22.72166016 22.5221875 -22.75582031 23.419375 -22.79101562 24.34375 C-22.87362402 26.56237538 -22.94272719 28.7805994 -23 31 C-25.31 31 -27.62 31 -30 31 C-30 26.05 -30 21.1 -30 16 C-31.98 16 -33.96 16 -36 16 C-36.08690207 10.63690055 -35.38834095 6.84443735 -31.9375 2.625 C-23.40232231 -6.06599229 -10.09383549 -6.64814868 0 0 Z " fill="#1E1E1E" transform="translate(154,15)"/>
<path d="M0 0 C3.08181468 2.89012286 5.9023123 5.98784341 6.11352539 10.33837891 C6.10828857 11.29147949 6.10305176 12.24458008 6.09765625 13.2265625 C6.09443359 14.2578125 6.09121094 15.2890625 6.08789062 16.3515625 C6.07532227 17.97191406 6.07532227 17.97191406 6.0625 19.625 C6.05798828 20.71296875 6.05347656 21.8009375 6.04882812 22.921875 C6.03701776 25.61463789 6.02054778 28.30729188 6 31 C4.02 31 2.04 31 0 31 C0 26.05 0 21.1 0 16 C-1.98 16 -3.96 16 -6 16 C-6.28875 15.195625 -6.5775 14.39125 -6.875 13.5625 C-7.73262568 10.8673532 -7.73262568 10.8673532 -10 10 C-12.10955062 9.80261277 -12.10955062 9.80261277 -14.4375 9.8125 C-15.21996094 9.79832031 -16.00242187 9.78414062 -16.80859375 9.76953125 C-19.29205987 9.85913936 -19.29205987 9.85913936 -22 12 C-22.50621513 14.02276681 -22.50621513 14.02276681 -22.51171875 16.3515625 C-22.54716797 17.20234375 -22.58261719 18.053125 -22.61914062 18.9296875 C-22.65297852 20.26386719 -22.65297852 20.26386719 -22.6875 21.625 C-22.72166016 22.5221875 -22.75582031 23.419375 -22.79101562 24.34375 C-22.87362402 26.56237538 -22.94272719 28.7805994 -23 31 C-25.31 31 -27.62 31 -30 31 C-30 26.05 -30 21.1 -30 16 C-31.98 16 -33.96 16 -36 16 C-36.08690207 10.63690055 -35.38834095 6.84443735 -31.9375 2.625 C-23.40232231 -6.06599229 -10.09383549 -6.64814868 0 0 Z " fill="#1E1E1E" transform="translate(48,15)"/>
<path d="M0 0 C1.65 0 3.3 0 5 0 C5 5.28 5 10.56 5 16 C7.64 16 10.28 16 13 16 C13.268125 16.804375 13.53625 17.60875 13.8125 18.4375 C14.204375 19.283125 14.59625 20.12875 15 21 C19.85874101 22.61958034 24.07371134 22.23157217 29 21 C29.33 14.07 29.66 7.14 30 0 C31.65 0 33.3 0 35 0 C35 5.28 35 10.56 35 16 C37.31 16 39.62 16 42 16 C42.49410613 21.63280991 42.2297138 25.00670043 38.609375 29.4609375 C33.47032984 34.37546127 26.99120751 36.10700828 20 36 C12.81829988 35.22713492 7.66641907 32.88261521 2.6875 27.5 C0.12203349 23.69930887 -0.12524074 20.53948073 -0.09765625 16.015625 C-0.09443359 15.08105469 -0.09121094 14.14648438 -0.08789062 13.18359375 C-0.07951172 12.21550781 -0.07113281 11.24742188 -0.0625 10.25 C-0.05798828 9.26644531 -0.05347656 8.28289063 -0.04882812 7.26953125 C-0.03706483 4.84629209 -0.02062684 2.42317727 0 0 Z " fill="#1E1E1E" transform="translate(1192,32)"/>
<path d="M0 0 C1.65 0 3.3 0 5 0 C5 5.28 5 10.56 5 16 C7.64 16 10.28 16 13 16 C13.268125 16.804375 13.53625 17.60875 13.8125 18.4375 C14.204375 19.283125 14.59625 20.12875 15 21 C19.85874101 22.61958034 24.07371134 22.23157217 29 21 C29.33 14.07 29.66 7.14 30 0 C31.65 0 33.3 0 35 0 C35 5.28 35 10.56 35 16 C37.31 16 39.62 16 42 16 C42.49410613 21.63280991 42.2297138 25.00670043 38.609375 29.4609375 C33.47032984 34.37546127 26.99120751 36.10700828 20 36 C12.81829988 35.22713492 7.66641907 32.88261521 2.6875 27.5 C0.12203349 23.69930887 -0.12524074 20.53948073 -0.09765625 16.015625 C-0.09443359 15.08105469 -0.09121094 14.14648438 -0.08789062 13.18359375 C-0.07951172 12.21550781 -0.07113281 11.24742188 -0.0625 10.25 C-0.05798828 9.26644531 -0.05347656 8.28289063 -0.04882812 7.26953125 C-0.03706483 4.84629209 -0.02062684 2.42317727 0 0 Z " fill="#1E1E1E" transform="translate(1113,32)"/>
<path d="M0 0 C1.65 0 3.3 0 5 0 C5 5.28 5 10.56 5 16 C7.64 16 10.28 16 13 16 C13.268125 16.804375 13.53625 17.60875 13.8125 18.4375 C14.204375 19.283125 14.59625 20.12875 15 21 C19.85874101 22.61958034 24.07371134 22.23157217 29 21 C29.33 14.07 29.66 7.14 30 0 C31.65 0 33.3 0 35 0 C35 5.28 35 10.56 35 16 C37.31 16 39.62 16 42 16 C42.49410613 21.63280991 42.2297138 25.00670043 38.609375 29.4609375 C33.47032984 34.37546127 26.99120751 36.10700828 20 36 C12.81829988 35.22713492 7.66641907 32.88261521 2.6875 27.5 C0.12203349 23.69930887 -0.12524074 20.53948073 -0.09765625 16.015625 C-0.09443359 15.08105469 -0.09121094 14.14648438 -0.08789062 13.18359375 C-0.07951172 12.21550781 -0.07113281 11.24742188 -0.0625 10.25 C-0.05798828 9.26644531 -0.05347656 8.28289063 -0.04882812 7.26953125 C-0.03706483 4.84629209 -0.02062684 2.42317727 0 0 Z " fill="#1E1E1E" transform="translate(1063,32)"/>
<path d="M0 0 C1.65 0 3.3 0 5 0 C5 5.28 5 10.56 5 16 C7.64 16 10.28 16 13 16 C13.268125 16.804375 13.53625 17.60875 13.8125 18.4375 C14.204375 19.283125 14.59625 20.12875 15 21 C19.85874101 22.61958034 24.07371134 22.23157217 29 21 C29.33 14.07 29.66 7.14 30 0 C31.65 0 33.3 0 35 0 C35 5.28 35 10.56 35 16 C37.31 16 39.62 16 42 16 C42.49410613 21.63280991 42.2297138 25.00670043 38.609375 29.4609375 C33.47032984 34.37546127 26.99120751 36.10700828 20 36 C12.81829988 35.22713492 7.66641907 32.88261521 2.6875 27.5 C0.12203349 23.69930887 -0.12524074 20.53948073 -0.09765625 16.015625 C-0.09443359 15.08105469 -0.09121094 14.14648438 -0.08789062 13.18359375 C-0.07951172 12.21550781 -0.07113281 11.24742188 -0.0625 10.25 C-0.05798828 9.26644531 -0.05347656 8.28289063 -0.04882812 7.26953125 C-0.03706483 4.84629209 -0.02062684 2.42317727 0 0 Z " fill="#1E1E1E" transform="translate(957,32)"/>
<path d="M0 0 C1.65 0 3.3 0 5 0 C5 5.28 5 10.56 5 16 C7.64 16 10.28 16 13 16 C13.268125 16.804375 13.53625 17.60875 13.8125 18.4375 C14.204375 19.283125 14.59625 20.12875 15 21 C19.85874101 22.61958034 24.07371134 22.23157217 29 21 C29.33 14.07 29.66 7.14 30 0 C31.65 0 33.3 0 35 0 C35 5.28 35 10.56 35 16 C37.31 16 39.62 16 42 16 C42.49410613 21.63280991 42.2297138 25.00670043 38.609375 29.4609375 C33.47032984 34.37546127 26.99120751 36.10700828 20 36 C12.81829988 35.22713492 7.66641907 32.88261521 2.6875 27.5 C0.12203349 23.69930887 -0.12524074 20.53948073 -0.09765625 16.015625 C-0.09443359 15.08105469 -0.09121094 14.14648438 -0.08789062 13.18359375 C-0.07951172 12.21550781 -0.07113281 11.24742188 -0.0625 10.25 C-0.05798828 9.26644531 -0.05347656 8.28289063 -0.04882812 7.26953125 C-0.03706483 4.84629209 -0.02062684 2.42317727 0 0 Z " fill="#1E1E1E" transform="translate(881,32)"/>
<path d="M0 0 C1.65 0 3.3 0 5 0 C5 5.28 5 10.56 5 16 C7.64 16 10.28 16 13 16 C13.268125 16.804375 13.53625 17.60875 13.8125 18.4375 C14.204375 19.283125 14.59625 20.12875 15 21 C19.85874101 22.61958034 24.07371134 22.23157217 29 21 C29.33 14.07 29.66 7.14 30 0 C31.65 0 33.3 0 35 0 C35 5.28 35 10.56 35 16 C37.31 16 39.62 16 42 16 C42.49410613 21.63280991 42.2297138 25.00670043 38.609375 29.4609375 C33.47032984 34.37546127 26.99120751 36.10700828 20 36 C12.81829988 35.22713492 7.66641907 32.88261521 2.6875 27.5 C0.12203349 23.69930887 -0.12524074 20.53948073 -0.09765625 16.015625 C-0.09443359 15.08105469 -0.09121094 14.14648438 -0.08789062 13.18359375 C-0.07951172 12.21550781 -0.07113281 11.24742188 -0.0625 10.25 C-0.05798828 9.26644531 -0.05347656 8.28289063 -0.04882812 7.26953125 C-0.03706483 4.84629209 -0.02062684 2.42317727 0 0 Z " fill="#1E1E1E" transform="translate(775,32)"/>
<path d="M0 0 C1.65 0 3.3 0 5 0 C5 5.28 5 10.56 5 16 C7.64 16 10.28 16 13 16 C13.268125 16.804375 13.53625 17.60875 13.8125 18.4375 C14.204375 19.283125 14.59625 20.12875 15 21 C19.85874101 22.61958034 24.07371134 22.23157217 29 21 C29.33 14.07 29.66 7.14 30 0 C31.65 0 33.3 0 35 0 C35 5.28 35 10.56 35 16 C37.31 16 39.62 16 42 16 C42.49410613 21.63280991 42.2297138 25.00670043 38.609375 29.4609375 C33.47032984 34.37546127 26.99120751 36.10700828 20 36 C12.81829988 35.22713492 7.66641907 32.88261521 2.6875 27.5 C0.12203349 23.69930887 -0.12524074 20.53948073 -0.09765625 16.015625 C-0.09443359 15.08105469 -0.09121094 14.14648438 -0.08789062 13.18359375 C-0.07951172 12.21550781 -0.07113281 11.24742188 -0.0625 10.25 C-0.05798828 9.26644531 -0.05347656 8.28289063 -0.04882812 7.26953125 C-0.03706483 4.84629209 -0.02062684 2.42317727 0 0 Z " fill="#1E1E1E" transform="translate(642,32)"/>
<path d="M0 0 C1.65 0 3.3 0 5 0 C5 5.28 5 10.56 5 16 C7.64 16 10.28 16 13 16 C13.268125 16.804375 13.53625 17.60875 13.8125 18.4375 C14.204375 19.283125 14.59625 20.12875 15 21 C19.85874101 22.61958034 24.07371134 22.23157217 29 21 C29.33 14.07 29.66 7.14 30 0 C31.65 0 33.3 0 35 0 C35 5.28 35 10.56 35 16 C37.31 16 39.62 16 42 16 C42.49410613 21.63280991 42.2297138 25.00670043 38.609375 29.4609375 C33.47032984 34.37546127 26.99120751 36.10700828 20 36 C12.81829988 35.22713492 7.66641907 32.88261521 2.6875 27.5 C0.12203349 23.69930887 -0.12524074 20.53948073 -0.09765625 16.015625 C-0.09443359 15.08105469 -0.09121094 14.14648438 -0.08789062 13.18359375 C-0.07951172 12.21550781 -0.07113281 11.24742188 -0.0625 10.25 C-0.05798828 9.26644531 -0.05347656 8.28289063 -0.04882812 7.26953125 C-0.03706483 4.84629209 -0.02062684 2.42317727 0 0 Z " fill="#1E1E1E" transform="translate(456,32)"/>
<path d="M0 0 C1.65 0 3.3 0 5 0 C5 5.28 5 10.56 5 16 C7.64 16 10.28 16 13 16 C13.268125 16.804375 13.53625 17.60875 13.8125 18.4375 C14.204375 19.283125 14.59625 20.12875 15 21 C19.85874101 22.61958034 24.07371134 22.23157217 29 21 C29.33 14.07 29.66 7.14 30 0 C31.65 0 33.3 0 35 0 C35 5.28 35 10.56 35 16 C37.31 16 39.62 16 42 16 C42.49410613 21.63280991 42.2297138 25.00670043 38.609375 29.4609375 C33.47032984 34.37546127 26.99120751 36.10700828 20 36 C12.81829988 35.22713492 7.66641907 32.88261521 2.6875 27.5 C0.12203349 23.69930887 -0.12524074 20.53948073 -0.09765625 16.015625 C-0.09443359 15.08105469 -0.09121094 14.14648438 -0.08789062 13.18359375 C-0.07951172 12.21550781 -0.07113281 11.24742188 -0.0625 10.25 C-0.05798828 9.26644531 -0.05347656 8.28289063 -0.04882812 7.26953125 C-0.03706483 4.84629209 -0.02062684 2.42317727 0 0 Z " fill="#1E1E1E" transform="translate(350,32)"/>
<path d="M0 0 C1.65 0 3.3 0 5 0 C5 5.28 5 10.56 5 16 C7.64 16 10.28 16 13 16 C13.268125 16.804375 13.53625 17.60875 13.8125 18.4375 C14.204375 19.283125 14.59625 20.12875 15 21 C19.85874101 22.61958034 24.07371134 22.23157217 29 21 C29.33 14.07 29.66 7.14 30 0 C31.65 0 33.3 0 35 0 C35 5.28 35 10.56 35 16 C37.31 16 39.62 16 42 16 C42.49410613 21.63280991 42.2297138 25.00670043 38.609375 29.4609375 C33.47032984 34.37546127 26.99120751 36.10700828 20 36 C12.81829988 35.22713492 7.66641907 32.88261521 2.6875 27.5 C0.12203349 23.69930887 -0.12524074 20.53948073 -0.09765625 16.015625 C-0.09443359 15.08105469 -0.09121094 14.14648438 -0.08789062 13.18359375 C-0.07951172 12.21550781 -0.07113281 11.24742188 -0.0625 10.25 C-0.05798828 9.26644531 -0.05347656 8.28289063 -0.04882812 7.26953125 C-0.03706483 4.84629209 -0.02062684 2.42317727 0 0 Z " fill="#1E1E1E" transform="translate(274,32)"/>
<path d="M0 0 C1.65 0 3.3 0 5 0 C5 5.28 5 10.56 5 16 C7.64 16 10.28 16 13 16 C13.268125 16.804375 13.53625 17.60875 13.8125 18.4375 C14.204375 19.283125 14.59625 20.12875 15 21 C19.85874101 22.61958034 24.07371134 22.23157217 29 21 C29.33 14.07 29.66 7.14 30 0 C31.65 0 33.3 0 35 0 C35 5.28 35 10.56 35 16 C37.31 16 39.62 16 42 16 C42.49410613 21.63280991 42.2297138 25.00670043 38.609375 29.4609375 C33.47032984 34.37546127 26.99120751 36.10700828 20 36 C12.81829988 35.22713492 7.66641907 32.88261521 2.6875 27.5 C0.12203349 23.69930887 -0.12524074 20.53948073 -0.09765625 16.015625 C-0.09443359 15.08105469 -0.09121094 14.14648438 -0.08789062 13.18359375 C-0.07951172 12.21550781 -0.07113281 11.24742188 -0.0625 10.25 C-0.05798828 9.26644531 -0.05347656 8.28289063 -0.04882812 7.26953125 C-0.03706483 4.84629209 -0.02062684 2.42317727 0 0 Z " fill="#1E1E1E" transform="translate(223,32)"/>
<path d="M0 0 C1.65 0 3.3 0 5 0 C5 5.28 5 10.56 5 16 C7.64 16 10.28 16 13 16 C13.268125 16.804375 13.53625 17.60875 13.8125 18.4375 C14.204375 19.283125 14.59625 20.12875 15 21 C19.85874101 22.61958034 24.07371134 22.23157217 29 21 C29.33 14.07 29.66 7.14 30 0 C31.65 0 33.3 0 35 0 C35 5.28 35 10.56 35 16 C37.31 16 39.62 16 42 16 C42.49410613 21.63280991 42.2297138 25.00670043 38.609375 29.4609375 C33.47032984 34.37546127 26.99120751 36.10700828 20 36 C12.81829988 35.22713492 7.66641907 32.88261521 2.6875 27.5 C0.12203349 23.69930887 -0.12524074 20.53948073 -0.09765625 16.015625 C-0.09443359 15.08105469 -0.09121094 14.14648438 -0.08789062 13.18359375 C-0.07951172 12.21550781 -0.07113281 11.24742188 -0.0625 10.25 C-0.05798828 9.26644531 -0.05347656 8.28289063 -0.04882812 7.26953125 C-0.03706483 4.84629209 -0.02062684 2.42317727 0 0 Z " fill="#1E1E1E" transform="translate(118,32)"/>
<path d="M0 0 C1.65 0 3.3 0 5 0 C5 5.28 5 10.56 5 16 C7.64 16 10.28 16 13 16 C13.268125 16.804375 13.53625 17.60875 13.8125 18.4375 C14.204375 19.283125 14.59625 20.12875 15 21 C19.85874101 22.61958034 24.07371134 22.23157217 29 21 C29.33 14.07 29.66 7.14 30 0 C31.65 0 33.3 0 35 0 C35 5.28 35 10.56 35 16 C37.31 16 39.62 16 42 16 C42.49410613 21.63280991 42.2297138 25.00670043 38.609375 29.4609375 C33.47032984 34.37546127 26.99120751 36.10700828 20 36 C12.81829988 35.22713492 7.66641907 32.88261521 2.6875 27.5 C0.12203349 23.69930887 -0.12524074 20.53948073 -0.09765625 16.015625 C-0.09443359 15.08105469 -0.09121094 14.14648438 -0.08789062 13.18359375 C-0.07951172 12.21550781 -0.07113281 11.24742188 -0.0625 10.25 C-0.05798828 9.26644531 -0.05347656 8.28289063 -0.04882812 7.26953125 C-0.03706483 4.84629209 -0.02062684 2.42317727 0 0 Z " fill="#1E1E1E" transform="translate(12,32)"/>
<path d="M0 0 C1.65 0 3.3 0 5 0 C5 4.95 5 9.9 5 15 C7.64 15 10.28 15 13 15 C13 22.59 13 30.18 13 38 C8.71 38 4.42 38 0 38 C0 25.46 0 12.92 0 0 Z " fill="#1E1E1E" transform="translate(1248,28)"/>
<path d="M0 0 C1.65 0 3.3 0 5 0 C5 4.95 5 9.9 5 15 C7.64 15 10.28 15 13 15 C13 22.59 13 30.18 13 38 C8.71 38 4.42 38 0 38 C0 25.46 0 12.92 0 0 Z " fill="#1E1E1E" transform="translate(1170,28)"/>
<path d="M0 0 C1.65 0 3.3 0 5 0 C5 4.95 5 9.9 5 15 C7.64 15 10.28 15 13 15 C13 22.59 13 30.18 13 38 C8.71 38 4.42 38 0 38 C0 25.46 0 12.92 0 0 Z " fill="#1E1E1E" transform="translate(1041,28)"/>
<path d="M0 0 C1.65 0 3.3 0 5 0 C5 4.95 5 9.9 5 15 C7.64 15 10.28 15 13 15 C13 22.59 13 30.18 13 38 C8.71 38 4.42 38 0 38 C0 25.46 0 12.92 0 0 Z " fill="#1E1E1E" transform="translate(1014,28)"/>
<path d="M0 0 C1.65 0 3.3 0 5 0 C5 4.95 5 9.9 5 15 C7.64 15 10.28 15 13 15 C13 22.59 13 30.18 13 38 C8.71 38 4.42 38 0 38 C0 25.46 0 12.92 0 0 Z " fill="#1E1E1E" transform="translate(859,28)"/>
<path d="M0 0 C1.65 0 3.3 0 5 0 C5 4.95 5 9.9 5 15 C7.64 15 10.28 15 13 15 C13 22.59 13 30.18 13 38 C8.71 38 4.42 38 0 38 C0 25.46 0 12.92 0 0 Z " fill="#1E1E1E" transform="translate(832,28)"/>
<path d="M0 0 C1.65 0 3.3 0 5 0 C5 4.95 5 9.9 5 15 C7.64 15 10.28 15 13 15 C13 22.59 13 30.18 13 38 C8.71 38 4.42 38 0 38 C0 25.46 0 12.92 0 0 Z " fill="#1E1E1E" transform="translate(754,28)"/>
<path d="M0 0 C1.65 0 3.3 0 5 0 C5 4.95 5 9.9 5 15 C7.64 15 10.28 15 13 15 C13 22.59 13 30.18 13 38 C8.71 38 4.42 38 0 38 C0 25.46 0 12.92 0 0 Z " fill="#1E1E1E" transform="translate(726,28)"/>
<path d="M0 0 C1.65 0 3.3 0 5 0 C5 4.95 5 9.9 5 15 C7.64 15 10.28 15 13 15 C13 22.59 13 30.18 13 38 C8.71 38 4.42 38 0 38 C0 25.46 0 12.92 0 0 Z " fill="#1E1E1E" transform="translate(699,28)"/>
<path d="M0 0 C1.65 0 3.3 0 5 0 C5 4.95 5 9.9 5 15 C7.64 15 10.28 15 13 15 C13 22.59 13 30.18 13 38 C8.71 38 4.42 38 0 38 C0 25.46 0 12.92 0 0 Z " fill="#1E1E1E" transform="translate(595,28)"/>
<path d="M0 0 C1.65 0 3.3 0 5 0 C5 4.95 5 9.9 5 15 C7.64 15 10.28 15 13 15 C13 22.59 13 30.18 13 38 C8.71 38 4.42 38 0 38 C0 25.46 0 12.92 0 0 Z " fill="#1E1E1E" transform="translate(568,28)"/>
<path d="M0 0 C1.65 0 3.3 0 5 0 C5 4.95 5 9.9 5 15 C7.64 15 10.28 15 13 15 C13 22.59 13 30.18 13 38 C8.71 38 4.42 38 0 38 C0 25.46 0 12.92 0 0 Z " fill="#1E1E1E" transform="translate(540,28)"/>
<path d="M0 0 C1.65 0 3.3 0 5 0 C5 4.95 5 9.9 5 15 C7.64 15 10.28 15 13 15 C13 22.59 13 30.18 13 38 C8.71 38 4.42 38 0 38 C0 25.46 0 12.92 0 0 Z " fill="#1E1E1E" transform="translate(513,28)"/>
<path d="M0 0 C1.65 0 3.3 0 5 0 C5 4.95 5 9.9 5 15 C7.64 15 10.28 15 13 15 C13 22.59 13 30.18 13 38 C8.71 38 4.42 38 0 38 C0 25.46 0 12.92 0 0 Z " fill="#1E1E1E" transform="translate(434,28)"/>
<path d="M0 0 C1.65 0 3.3 0 5 0 C5 4.95 5 9.9 5 15 C7.64 15 10.28 15 13 15 C13 22.59 13 30.18 13 38 C8.71 38 4.42 38 0 38 C0 25.46 0 12.92 0 0 Z " fill="#1E1E1E" transform="translate(407,28)"/>
<path d="M0 0 C1.65 0 3.3 0 5 0 C5 4.95 5 9.9 5 15 C7.64 15 10.28 15 13 15 C13 22.59 13 30.18 13 38 C8.71 38 4.42 38 0 38 C0 25.46 0 12.92 0 0 Z " fill="#1E1E1E" transform="translate(202,28)"/>
<path d="M0 0 C1.65 0 3.3 0 5 0 C5 4.95 5 9.9 5 15 C7.64 15 10.28 15 13 15 C13 22.59 13 30.18 13 38 C8.71 38 4.42 38 0 38 C0 25.46 0 12.92 0 0 Z " fill="#1E1E1E" transform="translate(174,28)"/>
<path d="M0 0 C1.65 0 3.3 0 5 0 C5 4.95 5 9.9 5 15 C7.64 15 10.28 15 13 15 C13 22.59 13 30.18 13 38 C8.71 38 4.42 38 0 38 C0 25.46 0 12.92 0 0 Z " fill="#1E1E1E" transform="translate(96,28)"/>
<path d="M0 0 C1.65 0 3.3 0 5 0 C5 4.95 5 9.9 5 15 C7.64 15 10.28 15 13 15 C13 22.59 13 30.18 13 38 C8.71 38 4.42 38 0 38 C0 25.46 0 12.92 0 0 Z " fill="#1E1E1E" transform="translate(69,28)"/>
<path d="M0 0 C4.29 0 8.58 0 13 0 C13 9.57 13 19.14 13 29 C10.69 29 8.38 29 6 29 C6 24.05 6 19.1 6 14 C1.38 14 -3.24 14 -8 14 C-3.375 4.5 -3.375 4.5 0 0 Z " fill="#1E1E1E" transform="translate(1248,12)"/>
<path d="M0 0 C4.29 0 8.58 0 13 0 C13 9.57 13 19.14 13 29 C10.69 29 8.38 29 6 29 C6 24.05 6 19.1 6 14 C1.38 14 -3.24 14 -8 14 C-3.375 4.5 -3.375 4.5 0 0 Z " fill="#1E1E1E" transform="translate(1170,12)"/>
<path d="M0 0 C4.29 0 8.58 0 13 0 C13 9.57 13 19.14 13 29 C10.69 29 8.38 29 6 29 C6 24.05 6 19.1 6 14 C1.38 14 -3.24 14 -8 14 C-3.375 4.5 -3.375 4.5 0 0 Z " fill="#1E1E1E" transform="translate(1041,12)"/>
<path d="M0 0 C4.29 0 8.58 0 13 0 C13 9.57 13 19.14 13 29 C10.69 29 8.38 29 6 29 C6 24.05 6 19.1 6 14 C1.38 14 -3.24 14 -8 14 C-3.375 4.5 -3.375 4.5 0 0 Z " fill="#1E1E1E" transform="translate(1014,12)"/>
<path d="M0 0 C4.29 0 8.58 0 13 0 C13 9.57 13 19.14 13 29 C10.69 29 8.38 29 6 29 C6 24.05 6 19.1 6 14 C1.38 14 -3.24 14 -8 14 C-3.375 4.5 -3.375 4.5 0 0 Z " fill="#1E1E1E" transform="translate(859,12)"/>
<path d="M0 0 C4.29 0 8.58 0 13 0 C13 9.57 13 19.14 13 29 C10.69 29 8.38 29 6 29 C6 24.05 6 19.1 6 14 C1.38 14 -3.24 14 -8 14 C-3.375 4.5 -3.375 4.5 0 0 Z " fill="#1E1E1E" transform="translate(832,12)"/>
<path d="M0 0 C4.29 0 8.58 0 13 0 C13 9.57 13 19.14 13 29 C10.69 29 8.38 29 6 29 C6 24.05 6 19.1 6 14 C1.38 14 -3.24 14 -8 14 C-3.375 4.5 -3.375 4.5 0 0 Z " fill="#1E1E1E" transform="translate(754,12)"/>
<path d="M0 0 C4.29 0 8.58 0 13 0 C13 9.57 13 19.14 13 29 C10.69 29 8.38 29 6 29 C6 24.05 6 19.1 6 14 C1.38 14 -3.24 14 -8 14 C-3.375 4.5 -3.375 4.5 0 0 Z " fill="#1E1E1E" transform="translate(726,12)"/>
<path d="M0 0 C4.29 0 8.58 0 13 0 C13 9.57 13 19.14 13 29 C10.69 29 8.38 29 6 29 C6 24.05 6 19.1 6 14 C1.38 14 -3.24 14 -8 14 C-3.375 4.5 -3.375 4.5 0 0 Z " fill="#1E1E1E" transform="translate(699,12)"/>
<path d="M0 0 C4.29 0 8.58 0 13 0 C13 9.57 13 19.14 13 29 C10.69 29 8.38 29 6 29 C6 24.05 6 19.1 6 14 C1.38 14 -3.24 14 -8 14 C-3.375 4.5 -3.375 4.5 0 0 Z " fill="#1E1E1E" transform="translate(595,12)"/>
<path d="M0 0 C4.29 0 8.58 0 13 0 C13 9.57 13 19.14 13 29 C10.69 29 8.38 29 6 29 C6 24.05 6 19.1 6 14 C1.38 14 -3.24 14 -8 14 C-3.375 4.5 -3.375 4.5 0 0 Z " fill="#1E1E1E" transform="translate(568,12)"/>
<path d="M0 0 C4.29 0 8.58 0 13 0 C13 9.57 13 19.14 13 29 C10.69 29 8.38 29 6 29 C6 24.05 6 19.1 6 14 C1.38 14 -3.24 14 -8 14 C-3.375 4.5 -3.375 4.5 0 0 Z " fill="#1E1E1E" transform="translate(540,12)"/>
<path d="M0 0 C4.29 0 8.58 0 13 0 C13 9.57 13 19.14 13 29 C10.69 29 8.38 29 6 29 C6 24.05 6 19.1 6 14 C1.38 14 -3.24 14 -8 14 C-3.375 4.5 -3.375 4.5 0 0 Z " fill="#1E1E1E" transform="translate(513,12)"/>
<path d="M0 0 C4.29 0 8.58 0 13 0 C13 9.57 13 19.14 13 29 C10.69 29 8.38 29 6 29 C6 24.05 6 19.1 6 14 C1.38 14 -3.24 14 -8 14 C-3.375 4.5 -3.375 4.5 0 0 Z " fill="#1E1E1E" transform="translate(434,12)"/>
<path d="M0 0 C4.29 0 8.58 0 13 0 C13 9.57 13 19.14 13 29 C10.69 29 8.38 29 6 29 C6 24.05 6 19.1 6 14 C1.38 14 -3.24 14 -8 14 C-3.375 4.5 -3.375 4.5 0 0 Z " fill="#1E1E1E" transform="translate(407,12)"/>
<path d="M0 0 C4.29 0 8.58 0 13 0 C13 9.57 13 19.14 13 29 C10.69 29 8.38 29 6 29 C6 24.05 6 19.1 6 14 C1.38 14 -3.24 14 -8 14 C-3.375 4.5 -3.375 4.5 0 0 Z " fill="#1E1E1E" transform="translate(202,12)"/>
<path d="M0 0 C4.29 0 8.58 0 13 0 C13 9.57 13 19.14 13 29 C10.69 29 8.38 29 6 29 C6 24.05 6 19.1 6 14 C1.38 14 -3.24 14 -8 14 C-3.375 4.5 -3.375 4.5 0 0 Z " fill="#1E1E1E" transform="translate(174,12)"/>
<path d="M0 0 C4.29 0 8.58 0 13 0 C13 9.57 13 19.14 13 29 C10.69 29 8.38 29 6 29 C6 24.05 6 19.1 6 14 C1.38 14 -3.24 14 -8 14 C-3.375 4.5 -3.375 4.5 0 0 Z " fill="#1E1E1E" transform="translate(96,12)"/>
<path d="M0 0 C4.29 0 8.58 0 13 0 C13 9.57 13 19.14 13 29 C10.69 29 8.38 29 6 29 C6 24.05 6 19.1 6 14 C1.38 14 -3.24 14 -8 14 C-3.375 4.5 -3.375 4.5 0 0 Z " fill="#1E1E1E" transform="translate(69,12)"/>
</svg>
