<svg
  viewBox="0 0 1839 680"
  xmlns="http://www.w3.org/2000/svg"
  preserveAspectRatio="xMidYMid meet"

>



 <defs> 
  <linearGradient id="globalGradient" x1="0" y1="0" x2="1839" y2="0" gradientUnits="userSpaceOnUse" > 
    <stop offset="49%" stop-color="#DB4A25" />
    <stop offset="49%" stop-color="#131831" />
   </linearGradient> 
  </defs> 

<g fill="url(#globalGradient)">
  <path d="M1121 133C1122.31 133.298 1122.31 133.298 1123.65 133.602C1148.89 139.53 1172.43 150.196 1193 166C1193.9 166.672 1194.79 167.343 1195.71 168.035C1201.84 172.818 1207.36 178.157 1212.87 183.625C1213.96 184.7 1213.96 184.7 1215.08 185.797C1226 196.788 1226 196.788 1226 202C1223.73 203.924 1221.48 205.653 1219.06 207.375C1217.58 208.46 1216.09 209.546 1214.61 210.633C1213.84 211.191 1213.07 211.75 1212.28 212.325C1208.75 214.915 1205.28 217.581 1201.81 220.25C1200.41 221.328 1199 222.406 1197.59 223.484C1196.86 224.044 1196.13 224.605 1195.37 225.182C1190.88 228.625 1186.38 232.064 1181.87 235.5C1181 236.171 1180.12 236.841 1179.22 237.532C1174.53 241.106 1169.82 244.607 1165 248C1162.3 245.375 1159.89 242.857 1157.56 239.875C1143.38 223.274 1119.95 212.106 1098.5 209.25C1069.53 207.179 1042.17 212.625 1019.43 231.824C1010.13 240.151 1003.21 248.24 997 259C996.434 259.977 995.868 260.954 995.285 261.961C982.894 284.978 980.655 312.975 988.125 337.875C992.232 350.744 998.474 362.514 1007 373C1007.98 374.241 1007.98 374.241 1008.98 375.508C1021.87 390.914 1039.56 399.084 1058 406C1058 415.57 1058 425.14 1058 435C1100.58 438.275 1136.87 432.788 1170.2 404.353C1179.91 395.998 1179.91 395.998 1187.15 385.667C1188.55 382.964 1189.75 381.063 1192 379C1196.72 377.703 1201.39 377.832 1206.25 377.938C1207.63 377.935 1209 377.929 1210.38 377.918C1213.19 377.905 1216.01 377.917 1218.82 377.953C1222.82 378.004 1226.82 377.993 1230.82 377.969C1236.88 377.937 1242.94 377.949 1249 378C1241.19 398.148 1229.87 415.35 1215 431C1213.78 432.411 1212.58 433.827 1211.37 435.25C1207.89 439.238 1204.1 442.655 1200 446C1198.63 447.125 1198.63 447.125 1197.23 448.273C1168.53 471.134 1132.05 486.832 1094.97 487.238C1094.22 487.248 1093.48 487.258 1092.71 487.268C1075.47 487.448 1058.85 487.108 1042 483C1040.71 482.687 1040.71 482.687 1039.4 482.367C1009.56 474.785 983.265 460.15 961 439C960.473 438.505 959.946 438.011 959.403 437.501C935.853 415.282 919.417 387.252 911 356C910.701 354.889 910.701 354.889 910.395 353.755C898.908 309.835 905.24 261.713 927 222C927.588 220.921 928.176 219.842 928.781 218.73C951.855 177.88 990.655 149.022 1035.31 135.743C1042.76 133.687 1050.36 132.185 1058 131C1058.66 130.897 1059.32 130.794 1060 130.687C1079.59 128.083 1101.77 128.596 1121 133Z" />
  <path d="M411 151C428.49 151 445.98 151 464 151C464 187.96 464 224.92 464 263C472.25 263 480.5 263 489 263C489 280.82 489 298.64 489 317C501.684 316.374 501.684 316.374 514.625 315.734C520.72 315.527 526.812 315.342 532.907 315.191C540.777 314.992 548.633 314.741 556.493 314.284C603.95 311.578 603.95 311.578 614.91 320.458C622.977 328.356 627.865 338.389 632.132 348.701C634.586 354.576 638.023 359.639 641.625 364.875C642.708 366.576 643.785 368.281 644.852 369.992C648.212 375.343 651.605 380.672 655 386C656.167 387.833 657.333 389.667 658.5 391.5C659.077 392.408 659.655 393.315 660.25 394.25C671.333 411.667 682.417 429.083 693.5 446.5C694.079 447.409 694.657 448.318 695.253 449.255C696.409 451.072 697.565 452.889 698.719 454.706C701.796 459.548 704.886 464.38 707.992 469.203C708.642 470.215 709.292 471.227 709.961 472.27C711.215 474.222 712.473 476.173 713.734 478.121C714.574 479.43 714.574 479.43 715.43 480.766C715.927 481.537 716.425 482.308 716.937 483.103C718 485 718 485 718 487C706.066 487.395 694.133 487.696 682.193 487.881C676.647 487.969 671.107 488.089 665.564 488.282C660.208 488.468 654.856 488.569 649.497 488.613C647.459 488.644 645.422 488.705 643.386 488.797C627.867 489.472 627.867 489.472 623.079 485.344C619.658 481.29 617.234 476.819 614.986 472.036C613.646 469.268 611.995 466.747 610.285 464.195C609.21 462.506 608.136 460.816 607.062 459.125C606.475 458.201 605.888 457.278 605.283 456.326C601.022 449.62 596.778 442.904 592.539 436.184C588.121 429.182 583.674 422.199 579.226 415.216C574.858 408.355 570.507 401.484 566.17 394.604C565.292 393.211 564.4 391.826 563.494 390.45C562 388 562 388 560.725 385.204C559.098 381.962 557.579 379.565 555 377C549.975 375.411 545.083 375.572 539.879 375.707C537.943 375.694 537.943 375.694 535.969 375.681C531.166 375.665 526.364 375.744 521.562 375.812C510.817 375.874 500.071 375.936 489 376C489 401.74 489 427.48 489 454C471.776 462.038 471.776 462.038 463.473 465.594C462.096 466.187 462.096 466.187 460.692 466.791C457.817 468.03 454.94 469.265 452.062 470.5C449.198 471.732 446.334 472.964 443.47 474.197C441.613 474.996 439.755 475.795 437.897 476.592C433.641 478.42 429.393 480.263 425.164 482.152C424.423 482.482 423.683 482.811 422.921 483.151C421.555 483.761 420.191 484.375 418.829 484.995C416.02 486.248 414.117 487 411 487C411 376.12 411 265.24 411 151Z" />
  <path d="M1513 125C1514.28 125.947 1515.55 126.897 1516.82 127.846C1517.89 128.639 1517.89 128.639 1518.98 129.448C1521.56 131.431 1523.94 133.585 1526.31 135.812C1529.91 139.133 1533.56 142.312 1537.38 145.375C1542.17 149.242 1546.67 153.349 1551.16 157.556C1555.37 161.479 1559.76 165.119 1564.25 168.723C1567.8 171.661 1571.15 174.782 1574.52 177.917C1577.73 180.887 1581.03 183.7 1584.44 186.438C1589.22 190.281 1593.69 194.37 1598.16 198.558C1601.51 201.676 1604.93 204.636 1608.5 207.5C1613.26 211.32 1617.71 215.389 1622.16 219.559C1625.51 222.676 1628.93 225.636 1632.5 228.5C1637.26 232.32 1641.71 236.389 1646.16 240.559C1649.51 243.676 1652.93 246.636 1656.5 249.5C1661.26 253.32 1665.71 257.389 1670.16 261.559C1673.51 264.676 1676.93 267.636 1680.5 270.5C1685.26 274.32 1689.71 278.389 1694.16 282.559C1698.34 286.449 1702.7 290.055 1707.15 293.625C1711.16 296.969 1714.97 300.521 1718.76 304.104C1721.64 306.874 1721.64 306.874 1725 309C1725.33 259.17 1725.66 209.34 1726 158C1743.33 150.575 1743.33 150.575 1761 143C1765.15 141.217 1769.3 139.434 1773.57 137.598C1778.96 135.283 1778.96 135.283 1781.53 134.178C1783.32 133.408 1785.11 132.638 1786.9 131.866C1789.58 130.713 1792.26 129.561 1794.95 128.41C1795.75 128.063 1796.55 127.717 1797.38 127.36C1802.89 125 1802.89 125 1804 125C1804 242.81 1804 360.62 1804 482C1800.13 480.067 1797.51 477.866 1794.44 474.938C1790.58 471.33 1786.69 467.864 1782.56 464.562C1777.78 460.719 1773.31 456.63 1768.84 452.442C1765.49 449.324 1762.07 446.364 1758.5 443.5C1754.33 440.157 1750.4 436.649 1746.5 433C1741.74 428.541 1736.84 424.362 1731.75 420.277C1728.2 417.339 1724.84 414.216 1721.48 411.081C1718.29 408.131 1715.02 405.34 1711.63 402.625C1710.74 401.875 1709.86 401.125 1708.95 400.352C1706.72 398.572 1704.66 397.169 1702.23 395.711C1697.8 392.753 1694.23 389.954 1692 385C1691.13 378.736 1691.34 372.505 1691.49 366.196C1692.04 356.351 1692.04 356.351 1688.48 347.504C1685.87 344.863 1682.93 342.864 1679.72 341.02C1677.08 339.458 1674.83 337.482 1672.5 335.5C1671.61 334.788 1670.73 334.077 1669.81 333.344C1666.6 330.668 1663.55 327.856 1660.5 325C1655.74 320.541 1650.84 316.362 1645.75 312.277C1642.74 309.782 1639.86 307.162 1637 304.5C1633.27 301.026 1629.48 297.699 1625.5 294.5C1620.98 290.864 1616.72 287.032 1612.48 283.084C1609.27 280.113 1605.97 277.3 1602.56 274.562C1597.78 270.72 1593.31 266.632 1588.84 262.444C1584.63 258.521 1580.24 254.881 1575.75 251.277C1572.74 248.782 1569.86 246.162 1567 243.5C1563.27 240.026 1559.48 236.699 1555.5 233.5C1550.98 229.864 1546.72 226.03 1542.48 222.082C1539.29 219.131 1536.02 216.34 1532.63 213.625C1531.38 212.554 1531.38 212.554 1530.1 211.462C1527.82 209.649 1525.92 208.363 1523.42 206.981C1518.79 204.077 1515.39 200.986 1513 196C1510.74 184.962 1511.61 173.387 1512.04 162.194C1512.18 157.998 1512.25 153.801 1512.32 149.604C1512.47 141.399 1512.7 133.2 1513 125Z" />
  <path d="M264 199C268.983 200.535 272.292 203.489 276.125 206.875C276.787 207.459 277.45 208.042 278.132 208.644C298.082 226.473 312.632 249.184 320 275C334.393 272.049 334.393 272.049 348.652 268.516C351 268 351 268 355 268C355.822 271.935 356.631 275.874 357.438 279.812C357.783 281.463 357.783 281.463 358.135 283.146C367.298 328.165 356.247 374.159 331.5 412.316C328.025 417.524 324.147 422.314 320 427C319.571 427.49 319.141 427.979 318.699 428.483C304.146 445.018 287.546 457.915 268 468C267.382 468.32 266.763 468.639 266.126 468.968C225.622 489.565 179.169 491.808 136 479C112.681 471.347 91.048 459.017 73.2227 442.105C71.4483 440.425 69.6682 438.883 67.75 437.375C52.7894 424.455 41.4571 405.645 33 388C32.6261 387.223 32.2522 386.446 31.8669 385.646C29.6289 380.826 28.1331 376.193 27 371C33.5915 368.609 40.0744 367.1 47 366C47.4009 366.969 47.8018 367.939 48.2148 368.938C61.4173 400.31 82.1722 426.868 112 444C112.99 444.33 113.98 444.66 115 445C115.262 444.29 115.524 443.58 115.793 442.849C117.069 439.838 118.591 437.203 120.309 434.422C120.969 433.351 121.629 432.279 122.309 431.175C123.018 430.033 123.728 428.892 124.438 427.75C125.159 426.584 125.88 425.417 126.602 424.25C132.278 415.087 138.079 406.007 144 397C144.909 397.387 145.818 397.773 146.754 398.172C158.321 403.002 170.349 407.478 183 408C183.936 408.052 184.872 408.103 185.836 408.156C210.606 408.89 234.734 399.597 253 383C253.632 382.45 254.263 381.899 254.914 381.332C271.548 365.951 281.112 341.921 282.258 319.656C283.089 294.779 274.92 271.395 258.5 252.625C254.883 248.774 251.055 245.224 247.043 241.789C244.934 239.942 242.973 237.99 241 236C241.412 235.341 241.825 234.682 242.25 234.003C253.186 216.54 253.186 216.54 264 199Z" />
  <path d="M295 179C295.798 179.646 295.798 179.646 296.613 180.305C320.551 199.792 338.62 224.218 350 253C350 253.99 350 254.98 350 256C346.709 256.837 343.417 257.669 340.125 258.5C338.719 258.858 338.719 258.858 337.285 259.223C336.389 259.448 335.493 259.674 334.57 259.906C333.743 260.116 332.915 260.325 332.063 260.541C330 261 330 261 328 261C327.325 259.364 327.325 259.364 326.637 257.695C319.42 240.608 310.411 225.777 298 212C296.833 210.583 295.667 209.167 294.5 207.75C286.203 198.35 274.076 188.89 263 183C262.01 183 261.02 183 260 183C258.453 184.864 258.453 184.864 257.066 187.363C256.505 188.304 255.944 189.246 255.366 190.215C254.771 191.237 254.176 192.259 253.562 193.312C252.309 195.421 251.053 197.529 249.797 199.637C249.165 200.702 248.532 201.767 247.881 202.865C245.1 207.5 242.216 212.066 239.312 216.625C235.083 223.267 235.083 223.267 231 230C226.372 229.37 222.267 228.134 217.875 226.562C194.758 218.671 170.05 220.652 148 231C124.711 242.982 108.769 262.533 100 287C98.7344 291.302 97.7668 295.583 97 300C96.8698 300.701 96.7396 301.402 96.6055 302.125C92.9632 325.436 99.8597 350.645 113.574 369.629C121.9 380.846 121.9 380.846 133 389C132.428 392.948 131.254 395.58 129.086 398.914C128.489 399.841 127.892 400.768 127.277 401.723C126.65 402.68 126.022 403.638 125.375 404.625C124.468 406.027 124.468 406.027 123.543 407.457C122.321 409.345 121.096 411.231 119.866 413.114C117.348 417.009 114.904 420.95 112.467 424.896C111 427 111 427 109 428C102.344 423 96.1014 417.662 90 412C89.1086 411.207 89.1086 411.207 88.1992 410.398C71.8872 395.215 60.0639 372.48 55 351C54.178 351.217 53.356 351.435 52.509 351.658C49.4454 352.463 46.3795 353.257 43.3118 354.046C41.9869 354.388 40.6629 354.734 39.3401 355.085C37.4338 355.589 35.5236 356.078 33.6133 356.566C32.4664 356.865 31.3195 357.163 30.1379 357.471C27.0224 357.996 25.0136 357.852 22 357C17.2964 332.511 17.2964 332.511 17 323C16.96 321.822 16.9201 320.644 16.8789 319.43C16.1997 279.235 28.6969 239.439 54 208C54.4769 207.403 54.9539 206.807 55.4453 206.192C70.5783 187.448 88.6401 173.078 110 162C110.657 161.653 111.313 161.307 111.99 160.95C169.44 130.949 244.625 138.15 295 179Z" />
  <path d="M484 130C516.166 129.879 516.166 129.879 529.736 129.854C539.074 129.836 548.411 129.815 557.748 129.774C564.551 129.744 571.354 129.724 578.157 129.718C581.752 129.714 585.347 129.705 588.942 129.683C625.936 129.465 656.776 136.551 684 163C704.169 183.107 716.08 210.271 716.33 238.842C716.184 267.521 709.074 293.008 690 315C689.336 315.808 688.672 316.616 687.988 317.449C681.825 324.706 674.652 330.406 667 336C665.952 336.786 664.904 337.573 663.824 338.383C661 340 661 340 658.887 340.121C655.994 338.402 654.563 335.843 652.812 333.063C652.38 332.452 651.947 331.842 651.502 331.213C648.43 326.759 646.493 322.674 644.878 317.502C641.809 309.351 638.052 302.061 630 298C612.852 292.938 592.636 295.095 574.884 295.682C567.693 295.914 560.502 295.995 553.307 296.065C538.533 296.212 523.768 296.548 509 297C509 290.4 509 283.8 509 277C513.42 276.978 513.42 276.978 517.929 276.956C527.688 276.905 537.447 276.839 547.206 276.764C553.12 276.72 559.034 276.68 564.948 276.654C570.661 276.627 576.373 276.587 582.085 276.537C584.26 276.52 586.434 276.509 588.608 276.502C591.665 276.493 594.721 276.465 597.777 276.432C598.667 276.434 599.556 276.435 600.473 276.437C611.505 276.273 620.578 272.836 628.754 265.406C634.997 258.772 637.228 251.51 637.5 242.5C637.143 231.732 633.92 224.991 626.512 217.203C620.616 212.032 613.586 208.911 605.723 208.842C604.876 208.832 604.029 208.822 603.156 208.812C601.775 208.804 601.775 208.804 600.366 208.795C599.39 208.785 598.414 208.775 597.409 208.765C594.184 208.733 590.959 208.708 587.734 208.684C585.498 208.663 583.262 208.642 581.025 208.621C575.14 208.565 569.255 208.516 563.369 208.468C557.363 208.418 551.357 208.362 545.352 208.307C533.568 208.199 521.784 208.098 510 208C510 219.55 510 231.1 510 243C501.42 243 492.84 243 484 243C484 205.71 484 168.42 484 130Z" />
  <path d="M1492 216C1495.87 217.933 1498.49 220.134 1501.56 223.062C1505.44 226.69 1509.36 230.175 1513.5 233.5C1518.02 237.135 1522.28 240.967 1526.52 244.914C1529.75 247.904 1533.07 250.738 1536.5 253.5C1541.02 257.136 1545.28 260.968 1549.52 264.916C1552.73 267.887 1556.03 270.7 1559.44 273.438C1564.22 277.28 1568.69 281.368 1573.16 285.556C1577.37 289.479 1581.76 293.119 1586.25 296.723C1589.26 299.218 1592.14 301.838 1595 304.5C1598.73 307.974 1602.52 311.301 1606.5 314.5C1611.02 318.136 1615.28 321.968 1619.52 325.916C1622.73 328.887 1626.03 331.7 1629.44 334.438C1634.22 338.281 1638.69 342.37 1643.16 346.558C1646.51 349.676 1649.93 352.636 1653.5 355.5C1654.37 356.244 1655.25 356.988 1656.14 357.754C1658.31 359.459 1660.2 360.704 1662.57 362.027C1666.86 364.727 1670.01 367.221 1672 372C1673.65 383.218 1672.79 394.731 1672 406C1667.96 403.657 1664.77 401.091 1661.38 397.875C1657.54 394.288 1653.66 390.846 1649.56 387.562C1644.78 383.719 1640.31 379.63 1635.84 375.442C1632.49 372.324 1629.07 369.364 1625.5 366.5C1621.33 363.157 1617.4 359.649 1613.5 356C1608.74 351.541 1603.84 347.362 1598.75 343.277C1595.21 340.346 1591.86 337.232 1588.5 334.103C1584.24 330.163 1579.81 326.497 1575.28 322.875C1573 321 1573 321 1570 318C1569.67 372.12 1569.34 426.24 1569 482C1543.59 482 1518.18 482 1492 482C1492 394.22 1492 306.44 1492 216Z" />
  <path d="M765 214C783.81 214 802.62 214 822 214C822 246.34 822 278.68 822 312C828.93 312 835.86 312 843 312C843 369.75 843 427.5 843 487C832.874 483.625 832.874 483.625 829.551 482.198C828.422 481.715 828.422 481.715 827.269 481.224C826.482 480.883 825.694 480.542 824.883 480.191C824.027 479.825 823.172 479.458 822.29 479.08C820.48 478.302 818.669 477.523 816.86 476.742C814.196 475.593 811.53 474.449 808.863 473.307C794.184 466.995 779.604 460.491 765 454C765 374.8 765 295.6 765 214Z" />
  <path d="M1338 209C1356.81 209 1375.62 209 1395 209C1395 241.34 1395 273.68 1395 307C1401.93 307 1408.86 307 1416 307C1416 364.75 1416 422.5 1416 482C1405.87 478.625 1405.87 478.625 1402.55 477.198C1401.42 476.715 1401.42 476.715 1400.27 476.224C1399.48 475.883 1398.69 475.542 1397.88 475.191C1397.03 474.825 1396.17 474.458 1395.29 474.08C1393.48 473.302 1391.67 472.523 1389.86 471.742C1387.2 470.593 1384.53 469.449 1381.86 468.307C1367.18 461.995 1352.6 455.491 1338 449C1338 369.8 1338 290.6 1338 209Z" />
  <path d="M1119 282C1156.95 282 1194.9 282 1234 282C1234 305.43 1234 328.86 1234 353C1216.18 353 1198.36 353 1180 353C1179.34 354.98 1178.68 356.96 1178 359C1176.7 361.321 1175.39 363.529 1173.94 365.75C1173.54 366.361 1173.14 366.971 1172.74 367.6C1169 373.227 1164.71 378.157 1160 383C1159.38 383.684 1158.75 384.369 1158.11 385.074C1140.15 404.243 1113.76 413.729 1088 415C1081.99 415.172 1076.01 415.095 1070 415C1070 406.42 1070 397.84 1070 389C1073.8 388.917 1077.59 388.835 1081.5 388.75C1104.48 387.937 1125.13 380.971 1141.67 364.312C1144.7 360.997 1147.51 357.739 1150 354C1130.86 353.67 1111.72 353.34 1092 353C1092.74 348.536 1093.46 345.404 1095.07 341.321C1095.71 339.684 1095.71 339.684 1096.36 338.013C1096.83 336.847 1097.29 335.682 1097.77 334.48C1098.25 333.267 1098.72 332.054 1099.22 330.804C1100.23 328.24 1101.24 325.677 1102.26 323.116C1103.55 319.857 1104.83 316.595 1106.12 313.333C1107.35 310.194 1108.59 307.056 1109.83 303.918C1110.29 302.758 1110.75 301.599 1111.22 300.404C1111.66 299.303 1112.09 298.202 1112.54 297.067C1112.92 296.11 1113.3 295.154 1113.69 294.168C1115.38 290.078 1117.2 286.044 1119 282Z" />
  <path d="M786 130C811.74 130 837.48 130 864 130C864 183.46 864 236.92 864 292C856.74 292 849.48 292 842 292C842 259.66 842 227.32 842 194C823.52 194 805.04 194 786 194C786 172.88 786 151.76 786 130Z" />
  <path d="M1359 125C1384.74 125 1410.48 125 1437 125C1437 178.46 1437 231.92 1437 287C1429.74 287 1422.48 287 1415 287C1415 254.66 1415 222.32 1415 189C1396.52 189 1378.04 189 1359 189C1359 167.88 1359 146.76 1359 125Z" />
  <path d="M1622 554C1627.31 558.125 1631.73 562.07 1635 568C1632.09 570.323 1629.17 572.632 1626.25 574.938C1625.01 575.927 1625.01 575.927 1623.75 576.936C1622.95 577.564 1622.15 578.192 1621.33 578.84C1620.6 579.421 1619.86 580.002 1619.11 580.601C1617 582.002 1615.51 582.699 1613 583C1611.18 581.707 1611.18 581.707 1609.31 579.813C1602.59 573.515 1594.65 570.639 1585.5 570.789C1575.71 571.616 1568.97 575.937 1562.25 582.813C1556.76 590.592 1554.17 598.402 1555.37 607.949C1557.11 616.377 1560.5 623.662 1567.54 628.883C1569.98 630.376 1572.43 631.728 1575 633C1576.32 633.66 1577.64 634.32 1579 635C1579 638.3 1579 641.6 1579 645C1594.16 644.615 1606.22 642.455 1618 632C1618.73 630.933 1619.45 629.865 1620.2 628.766C1623.23 625.776 1623.66 625.587 1627.64 625.414C1629.37 625.454 1631.09 625.525 1632.81 625.625C1633.7 625.652 1634.58 625.679 1635.49 625.707C1637.66 625.777 1639.83 625.885 1642 626C1638.34 638.202 1628.94 648.194 1618.25 654.813C1603.17 662.927 1585.49 665.085 1568.81 660.438C1551.87 654.105 1539.68 643.06 1532.03 626.645C1525.64 610.264 1526.63 592.969 1533.29 576.898C1541.03 561.583 1554.75 550.605 1570.88 545.188C1588.59 540.778 1606.85 544.15 1622 554Z" />
  <path d="M1151 554C1156.31 558.125 1160.73 562.07 1164 568C1161.09 570.323 1158.17 572.632 1155.25 574.938C1154.01 575.927 1154.01 575.927 1152.75 576.936C1151.95 577.564 1151.15 578.192 1150.33 578.84C1149.6 579.421 1148.86 580.002 1148.11 580.601C1146 582.002 1144.51 582.699 1142 583C1140.18 581.707 1140.18 581.707 1138.31 579.813C1131.59 573.515 1123.65 570.639 1114.5 570.789C1104.71 571.616 1097.97 575.937 1091.25 582.813C1085.76 590.592 1083.17 598.402 1084.37 607.949C1086.11 616.377 1089.5 623.662 1096.54 628.883C1098.98 630.376 1101.43 631.728 1104 633C1105.32 633.66 1106.64 634.32 1108 635C1108 638.3 1108 641.6 1108 645C1123.16 644.615 1135.22 642.455 1147 632C1147.73 630.933 1148.45 629.865 1149.2 628.766C1152.23 625.776 1152.66 625.587 1156.64 625.414C1158.37 625.454 1160.09 625.525 1161.81 625.625C1162.7 625.652 1163.58 625.679 1164.49 625.707C1166.66 625.777 1168.83 625.885 1171 626C1167.34 638.202 1157.94 648.194 1147.25 654.813C1132.17 662.927 1114.49 665.085 1097.81 660.438C1080.87 654.105 1068.68 643.06 1061.03 626.645C1054.64 610.264 1055.63 592.969 1062.29 576.898C1070.03 561.583 1083.75 550.605 1099.88 545.188C1117.59 540.778 1135.85 544.15 1151 554Z" />
  <path d="M1416 551C1421.94 551 1427.88 551 1434 551C1434 563.21 1434 575.42 1434 588C1436.64 588 1439.28 588 1442 588C1442 593.94 1442 599.88 1442 606C1444.79 605.872 1447.59 605.745 1450.47 605.613C1453.2 605.527 1455.92 605.461 1458.65 605.396C1460.54 605.341 1462.42 605.266 1464.31 605.17C1479.9 604.399 1479.9 604.399 1484.87 608.188C1486.96 611.029 1488.49 613.819 1490 617C1490.95 618.499 1491.92 619.986 1492.91 621.457C1493.82 622.906 1494.73 624.358 1495.62 625.812C1496.65 627.446 1497.67 629.078 1498.69 630.711C1499.48 631.987 1499.48 631.987 1500.3 633.288C1502.12 636.193 1503.96 639.086 1505.81 641.977C1506.45 642.969 1507.08 643.962 1507.74 644.985C1508.97 646.921 1510.21 648.856 1511.46 650.79C1512.02 651.673 1512.58 652.555 1513.16 653.465C1513.66 654.245 1514.16 655.024 1514.68 655.828C1515.9 657.843 1516.98 659.874 1518 662C1513.57 662.249 1509.15 662.429 1504.71 662.549C1503.21 662.599 1501.7 662.667 1500.2 662.754C1487.79 663.454 1487.79 663.454 1483.61 660.055C1481.77 657.457 1480.38 654.868 1479 652C1478.03 650.423 1477.05 648.854 1476.05 647.297C1475.13 645.783 1474.22 644.268 1473.31 642.75C1472.39 641.223 1471.47 639.697 1470.55 638.172C1469.91 637.104 1469.91 637.104 1469.25 636.014C1468.1 634.164 1466.9 632.369 1465.67 630.578C1464 628 1464 628 1464 626C1456.74 626 1449.48 626 1442 626C1442 634.58 1442 643.16 1442 652C1438.27 653.65 1434.53 655.3 1430.69 657C1429.51 657.522 1428.34 658.044 1427.13 658.582C1426.21 658.988 1425.28 659.394 1424.32 659.812C1423.38 660.231 1422.43 660.65 1421.45 661.082C1419 662 1419 662 1416 662C1416 625.37 1416 588.74 1416 551Z" />
  <path d="M1190 544C1218.05 544 1246.1 544 1275 544C1275 552.58 1275 561.16 1275 570C1255.86 570 1236.72 570 1217 570C1217 576.27 1217 582.54 1217 589C1236.14 589 1255.28 589 1275 589C1272 599 1272 599 1265 616C1250.48 616 1235.96 616 1221 616C1221 613.03 1221 610.06 1221 607C1213.41 607 1205.82 607 1198 607C1198 602.38 1198 597.76 1198 593C1195.36 593 1192.72 593 1190 593C1190 576.83 1190 560.66 1190 544Z" />
  <path d="M710 549C737.72 549 765.44 549 794 549C794 557.91 794 566.82 794 576C774.86 576 755.72 576 736 576C736 581.61 736 587.22 736 593C755.14 593 774.28 593 794 593C793.288 597.271 792.722 600.123 791.152 603.961C790.83 604.758 790.508 605.555 790.176 606.376C789.767 607.366 789.358 608.355 788.938 609.375C787.638 612.551 786.339 615.727 785 619C772.13 619 759.26 619 746 619C746 615.04 746 611.08 746 607C738.08 607 730.16 607 722 607C722 602.05 722 597.1 722 592C718.04 592 714.08 592 710 592C710 577.81 710 563.62 710 549Z" />
  <path d="M920 549C928.58 549 937.16 549 946 549C946 563.52 946 578.04 946 593C948.97 593 951.94 593 955 593C955 596.96 955 600.92 955 605C965.56 605 976.12 605 987 605C987 609.62 987 614.24 987 619C973.47 619 959.94 619 946 619C946 633.52 946 648.04 946 663C937.42 663 928.84 663 920 663C920 625.38 920 587.76 920 549Z" />
  <path d="M1378 553C1388.55 560.84 1395.47 570.349 1399 583C1396.36 583.33 1393.72 583.66 1391 584C1390.72 583.383 1390.44 582.765 1390.15 582.129C1385.63 572.577 1380.17 564.58 1371 559C1370.01 558.67 1369.02 558.34 1368 558C1367.62 559.073 1367.62 559.073 1367.23 560.168C1365.91 563.202 1364.31 565.632 1362.37 568.312C1361.43 569.637 1361.43 569.637 1360.46 570.988C1359.98 571.652 1359.5 572.316 1359 573C1358.2 572.76 1357.4 572.52 1356.58 572.273C1346.32 569.505 1338.1 569.457 1328.62 574.625C1321.91 579.076 1317.7 584.838 1315.47 592.586C1313.82 601.022 1314.71 608.502 1319 616C1321.16 618.85 1323.48 621.464 1326 624C1320.03 635.706 1320.03 635.706 1315 640C1307.92 633.772 1303.79 627.589 1300 619C1299.34 617.663 1298.68 616.328 1298 615C1295.36 615.33 1292.72 615.66 1290 616C1288.23 610.649 1287.65 605.937 1287.69 600.312C1287.69 599.522 1287.7 598.732 1287.7 597.918C1288 582.688 1293.64 570.101 1304 559C1324.85 539.227 1354.04 538.376 1378 553Z" />
  <path d="M1370 566C1375.64 567.367 1378.79 571.439 1382 576C1384.4 580.524 1386.38 585.142 1388 590C1390.97 589.67 1393.94 589.34 1397 589C1401.41 599.924 1400.21 615.196 1396 626C1389.18 641.046 1379.13 651.981 1363.75 658.438C1362.18 658.989 1360.59 659.512 1359 660C1358.31 660.223 1357.62 660.446 1356.91 660.676C1343.06 664.467 1327.97 662.256 1315.31 655.875C1301.92 648.171 1293 637.586 1288 623C1290.31 622.34 1292.62 621.68 1295 621C1295.4 621.75 1295.8 622.5 1296.21 623.273C1301.44 632.678 1307.44 641.608 1317 647C1317.53 646.252 1318.06 645.505 1318.61 644.734C1319.32 643.75 1320.02 642.765 1320.75 641.75C1321.45 640.775 1322.14 639.801 1322.86 638.797C1324.76 636.308 1326.73 634.15 1329 632C1330.24 632.464 1330.24 632.464 1331.5 632.938C1340.07 635.539 1347.41 635.514 1355.65 631.809C1363.35 627.562 1368.06 622.432 1370.88 614.062C1373.19 604.963 1372.29 597.43 1368 589C1365.87 586.107 1363.56 583.514 1361 581C1363.58 575.549 1366.38 570.825 1370 566Z" />
  <path d="M1759 536C1761.46 538.459 1762.39 540.791 1763.81 543.973C1764.09 544.591 1764.37 545.209 1764.65 545.846C1765.26 547.201 1765.87 548.556 1766.48 549.912C1768.14 553.633 1769.82 557.348 1771.5 561.062C1771.85 561.855 1772.21 562.647 1772.58 563.463C1777.37 574.064 1782.29 584.606 1787.21 595.15C1791.22 603.75 1795.21 612.357 1799.06 621.027C1799.36 621.691 1799.66 622.354 1799.97 623.037C1801.22 625.88 1802 627.856 1802 631C1784.18 631 1766.36 631 1748 631C1751 622 1751 622 1752 621C1754.69 620.763 1757.36 620.578 1760.06 620.438C1760.82 620.394 1761.58 620.351 1762.36 620.307C1764.24 620.2 1766.12 620.1 1768 620C1767.76 619.465 1767.52 618.93 1767.27 618.379C1766.17 615.963 1765.09 613.544 1764 611.125C1763.62 610.283 1763.24 609.441 1762.84 608.574C1762.3 607.366 1762.3 607.366 1761.75 606.133C1761.41 605.389 1761.08 604.646 1760.73 603.879C1760 602 1760 602 1760 600C1759.34 600 1758.68 600 1758 600C1757.92 600.681 1757.84 601.361 1757.75 602.062C1757 605 1757 605 1753 612C1743.43 612 1733.86 612 1724 612C1726.25 605.25 1726.25 605.25 1727.76 602C1728.1 601.269 1728.44 600.538 1728.79 599.785C1729.16 599.007 1729.52 598.23 1729.89 597.43C1730.28 596.603 1730.66 595.776 1731.06 594.924C1732.31 592.24 1733.56 589.557 1734.81 586.875C1735.67 585.029 1736.53 583.184 1737.39 581.338C1739.11 577.641 1740.83 573.945 1742.56 570.249C1744.75 565.538 1746.94 560.821 1749.11 556.102C1749.72 554.789 1750.33 553.477 1750.93 552.165C1752.04 549.765 1753.15 547.365 1754.25 544.964C1754.98 543.389 1754.98 543.389 1755.73 541.781C1756.15 540.874 1756.56 539.968 1756.99 539.033C1758 537 1758 537 1759 536Z" />
  <path d="M903.125 563.375C904.074 564.241 905.022 565.108 906 566C900.45 572.784 894.236 578.855 888 585C884.311 583.198 880.773 581.172 877.219 579.121C870.879 575.918 863.077 576.03 856.273 577.648C848.783 580.362 842.434 584.811 838.625 591.938C838.047 593.276 837.504 594.631 837 596C836.764 596.638 836.528 597.276 836.285 597.934C833.836 605.89 835.243 613.507 838.812 620.883C840.635 624.131 842.736 627.044 845 630C843.431 631.536 841.844 633.053 840.25 634.563C839.368 635.409 838.487 636.256 837.578 637.129C835 639 835 639 832.859 638.996C826.681 635.686 823.182 627.346 821 621C819.579 615.664 818.708 610.543 819 605C815.37 605 811.74 605 808 605C808.813 587.734 815.301 573.88 828 562C850.664 544.671 881.188 544.772 903.125 563.375Z" />
  <path d="M1440 544C1446.49 543.908 1452.98 543.828 1459.48 543.78C1461.68 543.76 1463.89 543.733 1466.09 543.698C1469.27 543.649 1472.46 543.627 1475.64 543.609C1476.62 543.589 1477.59 543.568 1478.59 543.547C1490.18 543.543 1499.4 547.634 1507.68 555.625C1515.41 563.944 1517.37 573.509 1517.29 584.574C1516.41 595.13 1511.07 603.075 1503.88 610.484C1501.71 612.231 1499.59 613.017 1497 614C1496.38 612.615 1496.38 612.615 1495.75 611.202C1493.4 606.641 1490.94 602.033 1485.87 600.25C1479.77 599.173 1473.6 599.477 1467.44 599.688C1465.55 599.705 1463.67 599.716 1461.78 599.721C1457.18 599.746 1452.59 599.851 1448 600C1448 597.36 1448 594.72 1448 592C1449.04 591.98 1450.08 591.96 1451.15 591.94C1455.01 591.864 1458.87 591.775 1462.73 591.683C1464.4 591.644 1466.07 591.61 1467.74 591.578C1470.15 591.532 1472.55 591.474 1474.95 591.414C1475.7 591.403 1476.44 591.391 1477.21 591.379C1482.43 591.246 1482.43 591.246 1487 589C1489.31 585.079 1490.1 582.859 1489.56 578.313C1487.62 574.201 1485.98 573.148 1482 571C1479.27 570.598 1476.92 570.395 1474.2 570.391C1473.11 570.366 1473.11 570.366 1472 570.341C1469.71 570.292 1467.42 570.271 1465.12 570.25C1463.56 570.222 1462 570.192 1460.44 570.16C1456.63 570.087 1452.81 570.037 1449 570C1449 573.96 1449 577.92 1449 582C1446.03 582 1443.06 582 1440 582C1440 569.46 1440 556.92 1440 544Z" />
  <path d="M991 549C999.58 549 1008.16 549 1017 549C1017 586.62 1017 624.24 1017 663C1010.98 660.994 1005.26 658.941 999.5 656.375C998.429 655.907 998.429 655.907 997.336 655.43C992.136 653.136 992.136 653.136 991 652C990.907 650.404 990.883 648.804 990.886 647.205C990.887 646.184 990.887 645.163 990.887 644.111C990.892 643.001 990.897 641.89 990.902 640.746C990.904 639.616 990.905 638.485 990.907 637.32C990.912 633.693 990.925 630.065 990.938 626.438C990.943 623.985 990.947 621.533 990.951 619.08C990.961 613.053 990.981 607.027 991 601C980.11 601 969.22 601 958 601C958 598.36 958 595.72 958 593C968.89 593 979.78 593 991 593C991 578.48 991 563.96 991 549Z" />
  <path d="M710 596C712.64 596 715.28 596 718 596C718 600.95 718 605.9 718 611C725.92 611 733.84 611 742 611C742 613.64 742 616.28 742 619C740.02 619 738.04 619 736 619C736 624.94 736 630.88 736 637C755.14 637 774.28 637 794 637C794 645.58 794 654.16 794 663C766.28 663 738.56 663 710 663C710 640.89 710 618.78 710 596Z" />
  <path d="M599 549C606.26 549 613.52 549 621 549C621 553.29 621 557.58 621 562C630.24 562 639.48 562 649 562C649 574.54 649 587.08 649 600C653.29 600 657.58 600 662 600C662 620.79 662 641.58 662 663C653.09 663 644.18 663 635 663C635 634.29 635 605.58 635 576C623.12 576 611.24 576 599 576C599 567.09 599 558.18 599 549Z" />
  <path d="M1183 599C1185.97 599 1188.94 599 1192 599C1192 603.62 1192 608.24 1192 613C1199.59 613 1207.18 613 1215 613C1215 616.3 1215 619.6 1215 623C1213.35 623 1211.7 623 1210 623C1210 627.29 1210 631.58 1210 636C1229.14 636 1248.28 636 1268 636C1268 644.58 1268 653.16 1268 662C1239.95 662 1211.9 662 1183 662C1183 641.21 1183 620.42 1183 599Z" />
  <path d="M1717 618C1726.57 618 1736.14 618 1746 618C1743 627 1743 627 1739 636C1757.81 636 1776.62 636 1796 636C1802 650 1802 650 1801 654C1798.99 655.28 1798.99 655.28 1796.38 656.359C1794.98 656.949 1794.98 656.949 1793.54 657.551C1792.56 657.947 1791.58 658.342 1790.56 658.75C1789.58 659.161 1788.6 659.572 1787.59 659.996C1780.34 663 1780.34 663 1778 663C1775 657.25 1775 657.25 1775 655C1759.82 655 1744.64 655 1729 655C1728.67 656.65 1728.34 658.3 1728 660C1727.34 660.99 1726.68 661.98 1726 663C1723.11 663.341 1723.11 663.341 1719.46 663.293C1717.51 663.278 1717.51 663.278 1715.52 663.264C1714.14 663.239 1712.76 663.213 1711.38 663.188C1709.99 663.172 1708.6 663.159 1707.21 663.146C1703.81 663.111 1700.4 663.062 1697 663C1698.52 658.104 1700.48 653.541 1702.62 648.898C1702.97 648.14 1703.32 647.381 1703.68 646.599C1704.78 644.19 1705.89 641.782 1707 639.375C1707.75 637.75 1708.49 636.125 1709.23 634.5C1709.95 632.945 1710.66 631.391 1711.38 629.836C1711.71 629.11 1712.04 628.384 1712.39 627.636C1713.88 624.397 1715.41 621.19 1717 618Z" />
  <path d="M808 608C810.64 608 813.28 608 816 608C816.135 608.932 816.271 609.864 816.41 610.824C818.435 622.816 822.488 632.973 831 642C835.809 641.55 837.84 639.54 841.25 636.25C846.224 631.988 846.224 631.988 849.609 632.039C851.905 632.842 853.891 633.796 856 635C863.693 637.564 871.591 636.435 878.863 633.156C881.519 631.719 883.793 630.06 886 628C889.702 629.28 892.041 630.677 894.77 633.477C895.43 634.147 896.091 634.817 896.771 635.508C897.782 636.556 897.782 636.556 898.812 637.625C899.852 638.685 899.852 638.685 900.912 639.766C902.615 641.504 904.311 643.249 906 645C902.014 653.401 892.251 657.576 884 661C869.186 665.589 852.241 664.447 838.348 657.715C824.861 650.254 815.023 638.588 810 624C808.581 618.663 807.708 613.544 808 608Z" />
  <path d="M1655 572C1661.6 572 1668.2 572 1675 572C1675 582.56 1675 593.12 1675 604C1677.31 604 1679.62 604 1682 604C1682 623.14 1682 642.28 1682 662C1677.56 661.26 1674.96 660.742 1671.07 658.969C1670.2 658.57 1669.32 658.172 1668.41 657.762C1667.51 657.345 1666.61 656.929 1665.69 656.5C1664.77 656.084 1663.85 655.667 1662.9 655.238C1656.16 652.156 1656.16 652.156 1655 651C1654.91 648.536 1654.87 646.099 1654.89 643.635C1654.89 642.864 1654.89 642.093 1654.89 641.299C1654.89 638.74 1654.89 636.18 1654.9 633.621C1654.9 631.851 1654.91 630.082 1654.91 628.312C1654.91 623.644 1654.92 618.977 1654.93 614.31C1654.94 609.551 1654.95 604.792 1654.95 600.033C1654.96 590.689 1654.98 581.344 1655 572Z" />
  <path d="M625 549C649.09 549 673.18 549 698 549C697.265 552.674 696.501 555.609 695.188 559.047C694.834 559.974 694.481 560.901 694.117 561.855C693.749 562.811 693.38 563.766 693 564.75C692.631 565.721 692.263 566.691 691.883 567.691C689.133 574.867 689.133 574.867 688 576C686.073 576.087 684.143 576.107 682.215 576.098C681.045 576.094 679.875 576.091 678.67 576.088C677.438 576.08 676.207 576.071 674.938 576.062C673.084 576.056 673.084 576.056 671.193 576.049C668.129 576.037 665.064 576.019 662 576C662 582.6 662 589.2 662 596C659.03 596 656.06 596 653 596C653 583.46 653 570.92 653 558C643.76 558 634.52 558 625 558C625 555.03 625 552.06 625 549Z" />
  <path d="M1598 594C1610.87 594 1623.74 594 1637 594C1637 601.92 1637 609.84 1637 618C1631.06 618 1625.12 618 1619 618C1618.34 619.65 1617.68 621.3 1617 623C1611.69 630.58 1604.93 635.569 1596 638C1592.35 638.195 1592.35 638.195 1588.62 638.125C1587.38 638.107 1586.13 638.089 1584.85 638.07C1583.91 638.047 1582.97 638.024 1582 638C1582 635.03 1582 632.06 1582 629C1582.75 628.986 1583.5 628.972 1584.27 628.957C1591.71 628.611 1597.86 627.403 1604 623C1605.32 621.35 1606.64 619.7 1608 618C1602.06 618 1596.12 618 1590 618C1591 612 1591 612 1598 594Z" />
  <path d="M1127 594C1139.87 594 1152.74 594 1166 594C1166 601.92 1166 609.84 1166 618C1160.06 618 1154.12 618 1148 618C1147.34 619.65 1146.68 621.3 1146 623C1140.69 630.58 1133.93 635.569 1125 638C1121.35 638.195 1121.35 638.195 1117.62 638.125C1116.38 638.107 1115.13 638.089 1113.85 638.07C1112.91 638.047 1111.97 638.024 1111 638C1111 635.03 1111 632.06 1111 629C1111.75 628.986 1112.5 628.972 1113.27 628.957C1120.71 628.611 1126.86 627.403 1133 623C1134.32 621.35 1135.64 619.7 1137 618C1131.06 618 1125.12 618 1119 618C1120 612 1120 612 1127 594Z" />
  <path d="M1662 544C1670.91 544 1679.82 544 1689 544C1689 561.82 1689 579.64 1689 598C1686.36 598 1683.72 598 1681 598C1681 587.44 1681 576.88 1681 566C1674.73 566 1668.46 566 1662 566C1662 558.74 1662 551.48 1662 544Z" />
  <path d="M1228 15C1231.08 17.8901 1233.9 20.9878 1234.11 25.3384C1234.11 26.2915 1234.1 27.2446 1234.1 28.2266C1234.09 29.2578 1234.09 30.2891 1234.09 31.3516C1234.08 32.9719 1234.08 32.9719 1234.06 34.625C1234.06 35.713 1234.05 36.8009 1234.05 37.9219C1234.04 40.6146 1234.02 43.3073 1234 46C1232.02 46 1230.04 46 1228 46C1228 41.05 1228 36.1 1228 31C1226.02 31 1224.04 31 1222 31C1221.71 30.1956 1221.42 29.3912 1221.12 28.5625C1220.27 25.8674 1220.27 25.8674 1218 25C1215.89 24.8026 1215.89 24.8026 1213.56 24.8125C1212.78 24.7983 1212 24.7841 1211.19 24.7695C1208.71 24.8591 1208.71 24.8591 1206 27C1205.49 29.0228 1205.49 29.0228 1205.49 31.3516C1205.45 32.2023 1205.42 33.0531 1205.38 33.9297C1205.35 35.2639 1205.35 35.2639 1205.31 36.625C1205.28 37.5222 1205.24 38.4194 1205.21 39.3437C1205.13 41.5624 1205.06 43.7806 1205 46C1202.69 46 1200.38 46 1198 46C1198 41.05 1198 36.1 1198 31C1196.02 31 1194.04 31 1192 31C1191.91 25.6369 1192.61 21.8444 1196.06 17.625C1204.6 8.93401 1217.91 8.35185 1228 15Z" />
  <path d="M1149 15C1152.08 17.8901 1154.9 20.9878 1155.11 25.3384C1155.11 26.2915 1155.1 27.2446 1155.1 28.2266C1155.09 29.2578 1155.09 30.2891 1155.09 31.3516C1155.08 32.9719 1155.08 32.9719 1155.06 34.625C1155.06 35.713 1155.05 36.8009 1155.05 37.9219C1155.04 40.6146 1155.02 43.3073 1155 46C1153.02 46 1151.04 46 1149 46C1149 41.05 1149 36.1 1149 31C1147.02 31 1145.04 31 1143 31C1142.71 30.1956 1142.42 29.3912 1142.12 28.5625C1141.27 25.8674 1141.27 25.8674 1139 25C1136.89 24.8026 1136.89 24.8026 1134.56 24.8125C1133.78 24.7983 1133 24.7841 1132.19 24.7695C1129.71 24.8591 1129.71 24.8591 1127 27C1126.49 29.0228 1126.49 29.0228 1126.49 31.3516C1126.45 32.2023 1126.42 33.0531 1126.38 33.9297C1126.35 35.2639 1126.35 35.2639 1126.31 36.625C1126.28 37.5222 1126.24 38.4194 1126.21 39.3437C1126.13 41.5624 1126.06 43.7806 1126 46C1123.69 46 1121.38 46 1119 46C1119 41.05 1119 36.1 1119 31C1117.02 31 1115.04 31 1113 31C1112.91 25.6369 1113.61 21.8444 1117.06 17.625C1125.6 8.93401 1138.91 8.35185 1149 15Z" />
  <path d="M1099 15C1102.08 17.8901 1104.9 20.9878 1105.11 25.3384C1105.11 26.2915 1105.1 27.2446 1105.1 28.2266C1105.09 29.2578 1105.09 30.2891 1105.09 31.3516C1105.08 32.9719 1105.08 32.9719 1105.06 34.625C1105.06 35.713 1105.05 36.8009 1105.05 37.9219C1105.04 40.6146 1105.02 43.3073 1105 46C1103.02 46 1101.04 46 1099 46C1099 41.05 1099 36.1 1099 31C1097.02 31 1095.04 31 1093 31C1092.71 30.1956 1092.42 29.3912 1092.12 28.5625C1091.27 25.8674 1091.27 25.8674 1089 25C1086.89 24.8026 1086.89 24.8026 1084.56 24.8125C1083.78 24.7983 1083 24.7841 1082.19 24.7695C1079.71 24.8591 1079.71 24.8591 1077 27C1076.49 29.0228 1076.49 29.0228 1076.49 31.3516C1076.45 32.2023 1076.42 33.0531 1076.38 33.9297C1076.35 35.2639 1076.35 35.2639 1076.31 36.625C1076.28 37.5222 1076.24 38.4194 1076.21 39.3437C1076.13 41.5624 1076.06 43.7806 1076 46C1073.69 46 1071.38 46 1069 46C1069 41.05 1069 36.1 1069 31C1067.02 31 1065.04 31 1063 31C1062.91 25.6369 1063.61 21.8444 1067.06 17.625C1075.6 8.93401 1088.91 8.35185 1099 15Z" />
  <path d="M993 15C996.082 17.8901 998.902 20.9878 999.114 25.3384C999.108 26.2915 999.103 27.2446 999.098 28.2266C999.094 29.2578 999.091 30.2891 999.088 31.3516C999.075 32.9719 999.075 32.9719 999.063 34.625C999.058 35.713 999.053 36.8009 999.049 37.9219C999.037 40.6146 999.021 43.3073 999 46C997.02 46 995.04 46 993 46C993 41.05 993 36.1 993 31C991.02 31 989.04 31 987 31C986.711 30.1956 986.423 29.3912 986.125 28.5625C985.267 25.8674 985.267 25.8674 983 25C980.89 24.8026 980.89 24.8026 978.563 24.8125C977.78 24.7983 976.998 24.7841 976.191 24.7695C973.708 24.8591 973.708 24.8591 971 27C970.494 29.0228 970.494 29.0228 970.488 31.3516C970.453 32.2023 970.417 33.0531 970.381 33.9297C970.347 35.2639 970.347 35.2639 970.313 36.625C970.278 37.5222 970.244 38.4194 970.209 39.3437C970.126 41.5624 970.057 43.7806 970 46C967.69 46 965.38 46 963 46C963 41.05 963 36.1 963 31C961.02 31 959.04 31 957 31C956.913 25.6369 957.612 21.8444 961.063 17.625C969.598 8.93401 982.906 8.35185 993 15Z" />
  <path d="M917 15C920.082 17.8901 922.902 20.9878 923.114 25.3384C923.108 26.2915 923.103 27.2446 923.098 28.2266C923.094 29.2578 923.091 30.2891 923.088 31.3516C923.075 32.9719 923.075 32.9719 923.063 34.625C923.058 35.713 923.053 36.8009 923.049 37.9219C923.037 40.6146 923.021 43.3073 923 46C921.02 46 919.04 46 917 46C917 41.05 917 36.1 917 31C915.02 31 913.04 31 911 31C910.711 30.1956 910.423 29.3912 910.125 28.5625C909.267 25.8674 909.267 25.8674 907 25C904.89 24.8026 904.89 24.8026 902.563 24.8125C901.78 24.7983 900.998 24.7841 900.191 24.7695C897.708 24.8591 897.708 24.8591 895 27C894.494 29.0228 894.494 29.0228 894.488 31.3516C894.453 32.2023 894.417 33.0531 894.381 33.9297C894.347 35.2639 894.347 35.2639 894.313 36.625C894.278 37.5222 894.244 38.4194 894.209 39.3437C894.126 41.5624 894.057 43.7806 894 46C891.69 46 889.38 46 887 46C887 41.05 887 36.1 887 31C885.02 31 883.04 31 881 31C880.913 25.6369 881.612 21.8444 885.063 17.625C893.598 8.93401 906.906 8.35185 917 15Z" />
  <path d="M811 15C814.082 17.8901 816.902 20.9878 817.114 25.3384C817.108 26.2915 817.103 27.2446 817.098 28.2266C817.094 29.2578 817.091 30.2891 817.088 31.3516C817.075 32.9719 817.075 32.9719 817.063 34.625C817.058 35.713 817.053 36.8009 817.049 37.9219C817.037 40.6146 817.021 43.3073 817 46C815.02 46 813.04 46 811 46C811 41.05 811 36.1 811 31C809.02 31 807.04 31 805 31C804.711 30.1956 804.423 29.3912 804.125 28.5625C803.267 25.8674 803.267 25.8674 801 25C798.89 24.8026 798.89 24.8026 796.563 24.8125C795.78 24.7983 794.998 24.7841 794.191 24.7695C791.708 24.8591 791.708 24.8591 789 27C788.494 29.0228 788.494 29.0228 788.488 31.3516C788.453 32.2023 788.417 33.0531 788.381 33.9297C788.347 35.2639 788.347 35.2639 788.313 36.625C788.278 37.5222 788.244 38.4194 788.209 39.3437C788.126 41.5624 788.057 43.7806 788 46C785.69 46 783.38 46 781 46C781 41.05 781 36.1 781 31C779.02 31 777.04 31 775 31C774.913 25.6369 775.612 21.8444 779.063 17.625C787.598 8.93401 800.906 8.35185 811 15Z" />
  <path d="M678 15C681.082 17.8901 683.902 20.9878 684.114 25.3384C684.108 26.2915 684.103 27.2446 684.098 28.2266C684.094 29.2578 684.091 30.2891 684.088 31.3516C684.075 32.9719 684.075 32.9719 684.063 34.625C684.058 35.713 684.053 36.8009 684.049 37.9219C684.037 40.6146 684.021 43.3073 684 46C682.02 46 680.04 46 678 46C678 41.05 678 36.1 678 31C676.02 31 674.04 31 672 31C671.711 30.1956 671.423 29.3912 671.125 28.5625C670.267 25.8674 670.267 25.8674 668 25C665.89 24.8026 665.89 24.8026 663.563 24.8125C662.78 24.7983 661.998 24.7841 661.191 24.7695C658.708 24.8591 658.708 24.8591 656 27C655.494 29.0228 655.494 29.0228 655.488 31.3516C655.453 32.2023 655.417 33.0531 655.381 33.9297C655.347 35.2639 655.347 35.2639 655.313 36.625C655.278 37.5222 655.244 38.4194 655.209 39.3437C655.126 41.5624 655.057 43.7806 655 46C652.69 46 650.38 46 648 46C648 41.05 648 36.1 648 31C646.02 31 644.04 31 642 31C641.913 25.6369 642.612 21.8444 646.063 17.625C654.598 8.93401 667.906 8.35185 678 15Z" />
  <path d="M492 15C495.082 17.8901 497.902 20.9878 498.114 25.3384C498.108 26.2915 498.103 27.2446 498.098 28.2266C498.094 29.2578 498.091 30.2891 498.088 31.3516C498.075 32.9719 498.075 32.9719 498.063 34.625C498.058 35.713 498.053 36.8009 498.049 37.9219C498.037 40.6146 498.021 43.3073 498 46C496.02 46 494.04 46 492 46C492 41.05 492 36.1 492 31C490.02 31 488.04 31 486 31C485.711 30.1956 485.423 29.3912 485.125 28.5625C484.267 25.8674 484.267 25.8674 482 25C479.89 24.8026 479.89 24.8026 477.563 24.8125C476.78 24.7983 475.998 24.7841 475.191 24.7695C472.708 24.8591 472.708 24.8591 470 27C469.494 29.0228 469.494 29.0228 469.488 31.3516C469.453 32.2023 469.417 33.0531 469.381 33.9297C469.347 35.2639 469.347 35.2639 469.313 36.625C469.278 37.5222 469.244 38.4194 469.209 39.3437C469.126 41.5624 469.057 43.7806 469 46C466.69 46 464.38 46 462 46C462 41.05 462 36.1 462 31C460.02 31 458.04 31 456 31C455.913 25.6369 456.612 21.8444 460.063 17.625C468.598 8.93401 481.906 8.35185 492 15Z" />
  <path d="M386 15C389.082 17.8901 391.902 20.9878 392.114 25.3384C392.108 26.2915 392.103 27.2446 392.098 28.2266C392.094 29.2578 392.091 30.2891 392.088 31.3516C392.075 32.9719 392.075 32.9719 392.063 34.625C392.058 35.713 392.053 36.8009 392.049 37.9219C392.037 40.6146 392.021 43.3073 392 46C390.02 46 388.04 46 386 46C386 41.05 386 36.1 386 31C384.02 31 382.04 31 380 31C379.711 30.1956 379.423 29.3912 379.125 28.5625C378.267 25.8674 378.267 25.8674 376 25C373.89 24.8026 373.89 24.8026 371.563 24.8125C370.78 24.7983 369.998 24.7841 369.191 24.7695C366.708 24.8591 366.708 24.8591 364 27C363.494 29.0228 363.494 29.0228 363.488 31.3516C363.453 32.2023 363.417 33.0531 363.381 33.9297C363.347 35.2639 363.347 35.2639 363.313 36.625C363.278 37.5222 363.244 38.4194 363.209 39.3437C363.126 41.5624 363.057 43.7806 363 46C360.69 46 358.38 46 356 46C356 41.05 356 36.1 356 31C354.02 31 352.04 31 350 31C349.913 25.6369 350.612 21.8444 354.063 17.625C362.598 8.93401 375.906 8.35185 386 15Z" />
  <path d="M310 15C313.082 17.8901 315.902 20.9878 316.114 25.3384C316.108 26.2915 316.103 27.2446 316.098 28.2266C316.094 29.2578 316.091 30.2891 316.088 31.3516C316.075 32.9719 316.075 32.9719 316.063 34.625C316.058 35.713 316.053 36.8009 316.049 37.9219C316.037 40.6146 316.021 43.3073 316 46C314.02 46 312.04 46 310 46C310 41.05 310 36.1 310 31C308.02 31 306.04 31 304 31C303.711 30.1956 303.423 29.3912 303.125 28.5625C302.267 25.8674 302.267 25.8674 300 25C297.89 24.8026 297.89 24.8026 295.563 24.8125C294.78 24.7983 293.998 24.7841 293.191 24.7695C290.708 24.8591 290.708 24.8591 288 27C287.494 29.0228 287.494 29.0228 287.488 31.3516C287.453 32.2023 287.417 33.0531 287.381 33.9297C287.347 35.2639 287.347 35.2639 287.313 36.625C287.278 37.5222 287.244 38.4194 287.209 39.3437C287.126 41.5624 287.057 43.7806 287 46C284.69 46 282.38 46 280 46C280 41.05 280 36.1 280 31C278.02 31 276.04 31 274 31C273.913 25.6369 274.612 21.8444 278.063 17.625C286.598 8.93401 299.906 8.35185 310 15Z" />
  <path d="M259 15C262.082 17.8901 264.902 20.9878 265.114 25.3384C265.108 26.2915 265.103 27.2446 265.098 28.2266C265.094 29.2578 265.091 30.2891 265.088 31.3516C265.075 32.9719 265.075 32.9719 265.063 34.625C265.058 35.713 265.053 36.8009 265.049 37.9219C265.037 40.6146 265.021 43.3073 265 46C263.02 46 261.04 46 259 46C259 41.05 259 36.1 259 31C257.02 31 255.04 31 253 31C252.711 30.1956 252.423 29.3912 252.125 28.5625C251.267 25.8674 251.267 25.8674 249 25C246.89 24.8026 246.89 24.8026 244.563 24.8125C243.78 24.7983 242.998 24.7841 242.191 24.7695C239.708 24.8591 239.708 24.8591 237 27C236.494 29.0228 236.494 29.0228 236.488 31.3516C236.453 32.2023 236.417 33.0531 236.381 33.9297C236.347 35.2639 236.347 35.2639 236.313 36.625C236.278 37.5222 236.244 38.4194 236.209 39.3437C236.126 41.5624 236.057 43.7806 236 46C233.69 46 231.38 46 229 46C229 41.05 229 36.1 229 31C227.02 31 225.04 31 223 31C222.913 25.6369 223.612 21.8444 227.063 17.625C235.598 8.93401 248.906 8.35185 259 15Z" />
  <path d="M154 15C157.082 17.8901 159.902 20.9878 160.114 25.3384C160.108 26.2915 160.103 27.2446 160.098 28.2266C160.094 29.2578 160.091 30.2891 160.088 31.3516C160.075 32.9719 160.075 32.9719 160.062 34.625C160.058 35.713 160.053 36.8009 160.049 37.9219C160.037 40.6146 160.021 43.3073 160 46C158.02 46 156.04 46 154 46C154 41.05 154 36.1 154 31C152.02 31 150.04 31 148 31C147.711 30.1956 147.422 29.3912 147.125 28.5625C146.267 25.8674 146.267 25.8674 144 25C141.89 24.8026 141.89 24.8026 139.562 24.8125C138.78 24.7983 137.998 24.7841 137.191 24.7695C134.708 24.8591 134.708 24.8591 132 27C131.494 29.0228 131.494 29.0228 131.488 31.3516C131.453 32.2023 131.417 33.0531 131.381 33.9297C131.347 35.2639 131.347 35.2639 131.312 36.625C131.278 37.5222 131.244 38.4194 131.209 39.3437C131.126 41.5624 131.057 43.7806 131 46C128.69 46 126.38 46 124 46C124 41.05 124 36.1 124 31C122.02 31 120.04 31 118 31C117.913 25.6369 118.612 21.8444 122.062 17.625C130.598 8.93401 143.906 8.35185 154 15Z" />
  <path d="M48 15C51.0818 17.8901 53.9023 20.9878 54.1135 25.3384C54.1083 26.2915 54.103 27.2446 54.0977 28.2266C54.0944 29.2578 54.0912 30.2891 54.0879 31.3516C54.0753 32.9719 54.0753 32.9719 54.0625 34.625C54.058 35.713 54.0535 36.8009 54.0488 37.9219C54.037 40.6146 54.0205 43.3073 54 46C52.02 46 50.04 46 48 46C48 41.05 48 36.1 48 31C46.02 31 44.04 31 42 31C41.7112 30.1956 41.4225 29.3912 41.125 28.5625C40.2674 25.8674 40.2674 25.8674 38 25C35.8904 24.8026 35.8904 24.8026 33.5625 24.8125C32.78 24.7983 31.9976 24.7841 31.1914 24.7695C28.7079 24.8591 28.7079 24.8591 26 27C25.4938 29.0228 25.4938 29.0228 25.4883 31.3516C25.4528 32.2023 25.4174 33.0531 25.3809 33.9297C25.347 35.2639 25.347 35.2639 25.3125 36.625C25.2783 37.5222 25.2442 38.4194 25.209 39.3437C25.1264 41.5624 25.0573 43.7806 25 46C22.69 46 20.38 46 18 46C18 41.05 18 36.1 18 31C16.02 31 14.04 31 12 31C11.9131 25.6369 12.6117 21.8444 16.0625 17.625C24.5977 8.93401 37.9062 8.35185 48 15Z" />
  <path d="M1192 32C1193.65 32 1195.3 32 1197 32C1197 37.28 1197 42.56 1197 48C1199.64 48 1202.28 48 1205 48C1205.27 48.8044 1205.54 49.6087 1205.81 50.4375C1206.2 51.2831 1206.6 52.1288 1207 53C1211.86 54.6196 1216.07 54.2316 1221 53C1221.33 46.07 1221.66 39.14 1222 32C1223.65 32 1225.3 32 1227 32C1227 37.28 1227 42.56 1227 48C1229.31 48 1231.62 48 1234 48C1234.49 53.6328 1234.23 57.0067 1230.61 61.4609C1225.47 66.3755 1218.99 68.107 1212 68C1204.82 67.2271 1199.67 64.8826 1194.69 59.5C1192.12 55.6993 1191.87 52.5395 1191.9 48.0156C1191.91 47.0811 1191.91 46.1465 1191.91 45.1836C1191.92 44.2155 1191.93 43.2474 1191.94 42.25C1191.94 41.2664 1191.95 40.2829 1191.95 39.2695C1191.96 36.8463 1191.98 34.4232 1192 32Z" />
  <path d="M1113 32C1114.65 32 1116.3 32 1118 32C1118 37.28 1118 42.56 1118 48C1120.64 48 1123.28 48 1126 48C1126.27 48.8044 1126.54 49.6087 1126.81 50.4375C1127.2 51.2831 1127.6 52.1288 1128 53C1132.86 54.6196 1137.07 54.2316 1142 53C1142.33 46.07 1142.66 39.14 1143 32C1144.65 32 1146.3 32 1148 32C1148 37.28 1148 42.56 1148 48C1150.31 48 1152.62 48 1155 48C1155.49 53.6328 1155.23 57.0067 1151.61 61.4609C1146.47 66.3755 1139.99 68.107 1133 68C1125.82 67.2271 1120.67 64.8826 1115.69 59.5C1113.12 55.6993 1112.87 52.5395 1112.9 48.0156C1112.91 47.0811 1112.91 46.1465 1112.91 45.1836C1112.92 44.2155 1112.93 43.2474 1112.94 42.25C1112.94 41.2664 1112.95 40.2829 1112.95 39.2695C1112.96 36.8463 1112.98 34.4232 1113 32Z" />
  <path d="M1063 32C1064.65 32 1066.3 32 1068 32C1068 37.28 1068 42.56 1068 48C1070.64 48 1073.28 48 1076 48C1076.27 48.8044 1076.54 49.6087 1076.81 50.4375C1077.2 51.2831 1077.6 52.1288 1078 53C1082.86 54.6196 1087.07 54.2316 1092 53C1092.33 46.07 1092.66 39.14 1093 32C1094.65 32 1096.3 32 1098 32C1098 37.28 1098 42.56 1098 48C1100.31 48 1102.62 48 1105 48C1105.49 53.6328 1105.23 57.0067 1101.61 61.4609C1096.47 66.3755 1089.99 68.107 1083 68C1075.82 67.2271 1070.67 64.8826 1065.69 59.5C1063.12 55.6993 1062.87 52.5395 1062.9 48.0156C1062.91 47.0811 1062.91 46.1465 1062.91 45.1836C1062.92 44.2155 1062.93 43.2474 1062.94 42.25C1062.94 41.2664 1062.95 40.2829 1062.95 39.2695C1062.96 36.8463 1062.98 34.4232 1063 32Z" />
  <path d="M957 32C958.65 32 960.3 32 962 32C962 37.28 962 42.56 962 48C964.64 48 967.28 48 970 48C970.268 48.8044 970.536 49.6087 970.812 50.4375C971.204 51.2831 971.596 52.1288 972 53C976.859 54.6196 981.074 54.2316 986 53C986.33 46.07 986.66 39.14 987 32C988.65 32 990.3 32 992 32C992 37.28 992 42.56 992 48C994.31 48 996.62 48 999 48C999.494 53.6328 999.23 57.0067 995.609 61.4609C990.47 66.3755 983.991 68.107 977 68C969.818 67.2271 964.666 64.8826 959.687 59.5C957.122 55.6993 956.875 52.5395 956.902 48.0156C956.906 47.0811 956.909 46.1465 956.912 45.1836C956.92 44.2155 956.929 43.2474 956.937 42.25C956.942 41.2664 956.947 40.2829 956.951 39.2695C956.963 36.8463 956.979 34.4232 957 32Z" />
  <path d="M881 32C882.65 32 884.3 32 886 32C886 37.28 886 42.56 886 48C888.64 48 891.28 48 894 48C894.268 48.8044 894.536 49.6087 894.812 50.4375C895.204 51.2831 895.596 52.1288 896 53C900.859 54.6196 905.074 54.2316 910 53C910.33 46.07 910.66 39.14 911 32C912.65 32 914.3 32 916 32C916 37.28 916 42.56 916 48C918.31 48 920.62 48 923 48C923.494 53.6328 923.23 57.0067 919.609 61.4609C914.47 66.3755 907.991 68.107 901 68C893.818 67.2271 888.666 64.8826 883.687 59.5C881.122 55.6993 880.875 52.5395 880.902 48.0156C880.906 47.0811 880.909 46.1465 880.912 45.1836C880.92 44.2155 880.929 43.2474 880.937 42.25C880.942 41.2664 880.947 40.2829 880.951 39.2695C880.963 36.8463 880.979 34.4232 881 32Z" />
  <path d="M775 32C776.65 32 778.3 32 780 32C780 37.28 780 42.56 780 48C782.64 48 785.28 48 788 48C788.268 48.8044 788.536 49.6087 788.812 50.4375C789.204 51.2831 789.596 52.1288 790 53C794.859 54.6196 799.074 54.2316 804 53C804.33 46.07 804.66 39.14 805 32C806.65 32 808.3 32 810 32C810 37.28 810 42.56 810 48C812.31 48 814.62 48 817 48C817.494 53.6328 817.23 57.0067 813.609 61.4609C808.47 66.3755 801.991 68.107 795 68C787.818 67.2271 782.666 64.8826 777.687 59.5C775.122 55.6993 774.875 52.5395 774.902 48.0156C774.906 47.0811 774.909 46.1465 774.912 45.1836C774.92 44.2155 774.929 43.2474 774.937 42.25C774.942 41.2664 774.947 40.2829 774.951 39.2695C774.963 36.8463 774.979 34.4232 775 32Z" />
  <path d="M642 32C643.65 32 645.3 32 647 32C647 37.28 647 42.56 647 48C649.64 48 652.28 48 655 48C655.268 48.8044 655.536 49.6087 655.812 50.4375C656.204 51.2831 656.596 52.1288 657 53C661.859 54.6196 666.074 54.2316 671 53C671.33 46.07 671.66 39.14 672 32C673.65 32 675.3 32 677 32C677 37.28 677 42.56 677 48C679.31 48 681.62 48 684 48C684.494 53.6328 684.23 57.0067 680.609 61.4609C675.47 66.3755 668.991 68.107 662 68C654.818 67.2271 649.666 64.8826 644.687 59.5C642.122 55.6993 641.875 52.5395 641.902 48.0156C641.906 47.0811 641.909 46.1465 641.912 45.1836C641.92 44.2155 641.929 43.2474 641.937 42.25C641.942 41.2664 641.947 40.2829 641.951 39.2695C641.963 36.8463 641.979 34.4232 642 32Z" />
  <path d="M456 32C457.65 32 459.3 32 461 32C461 37.28 461 42.56 461 48C463.64 48 466.28 48 469 48C469.268 48.8044 469.536 49.6087 469.813 50.4375C470.204 51.2831 470.596 52.1288 471 53C475.859 54.6196 480.074 54.2316 485 53C485.33 46.07 485.66 39.14 486 32C487.65 32 489.3 32 491 32C491 37.28 491 42.56 491 48C493.31 48 495.62 48 498 48C498.494 53.6328 498.23 57.0067 494.609 61.4609C489.47 66.3755 482.991 68.107 476 68C468.818 67.2271 463.666 64.8826 458.688 59.5C456.122 55.6993 455.875 52.5395 455.902 48.0156C455.906 47.0811 455.909 46.1465 455.912 45.1836C455.92 44.2155 455.929 43.2474 455.938 42.25C455.942 41.2664 455.947 40.2829 455.951 39.2695C455.963 36.8463 455.979 34.4232 456 32Z" />
  <path d="M350 32C351.65 32 353.3 32 355 32C355 37.28 355 42.56 355 48C357.64 48 360.28 48 363 48C363.268 48.8044 363.536 49.6087 363.813 50.4375C364.204 51.2831 364.596 52.1288 365 53C369.859 54.6196 374.074 54.2316 379 53C379.33 46.07 379.66 39.14 380 32C381.65 32 383.3 32 385 32C385 37.28 385 42.56 385 48C387.31 48 389.62 48 392 48C392.494 53.6328 392.23 57.0067 388.609 61.4609C383.47 66.3755 376.991 68.107 370 68C362.818 67.2271 357.666 64.8826 352.688 59.5C350.122 55.6993 349.875 52.5395 349.902 48.0156C349.906 47.0811 349.909 46.1465 349.912 45.1836C349.92 44.2155 349.929 43.2474 349.938 42.25C349.942 41.2664 349.947 40.2829 349.951 39.2695C349.963 36.8463 349.979 34.4232 350 32Z" />
  <path d="M274 32C275.65 32 277.3 32 279 32C279 37.28 279 42.56 279 48C281.64 48 284.28 48 287 48C287.268 48.8044 287.536 49.6087 287.813 50.4375C288.204 51.2831 288.596 52.1288 289 53C293.859 54.6196 298.074 54.2316 303 53C303.33 46.07 303.66 39.14 304 32C305.65 32 307.3 32 309 32C309 37.28 309 42.56 309 48C311.31 48 313.62 48 316 48C316.494 53.6328 316.23 57.0067 312.609 61.4609C307.47 66.3755 300.991 68.107 294 68C286.818 67.2271 281.666 64.8826 276.688 59.5C274.122 55.6993 273.875 52.5395 273.902 48.0156C273.906 47.0811 273.909 46.1465 273.912 45.1836C273.92 44.2155 273.929 43.2474 273.938 42.25C273.942 41.2664 273.947 40.2829 273.951 39.2695C273.963 36.8463 273.979 34.4232 274 32Z" />
  <path d="M223 32C224.65 32 226.3 32 228 32C228 37.28 228 42.56 228 48C230.64 48 233.28 48 236 48C236.268 48.8044 236.536 49.6087 236.812 50.4375C237.204 51.2831 237.596 52.1288 238 53C242.859 54.6196 247.074 54.2316 252 53C252.33 46.07 252.66 39.14 253 32C254.65 32 256.3 32 258 32C258 37.28 258 42.56 258 48C260.31 48 262.62 48 265 48C265.494 53.6328 265.23 57.0067 261.609 61.4609C256.47 66.3755 249.991 68.107 243 68C235.818 67.2271 230.666 64.8826 225.687 59.5C223.122 55.6993 222.875 52.5395 222.902 48.0156C222.906 47.0811 222.909 46.1465 222.912 45.1836C222.92 44.2155 222.929 43.2474 222.937 42.25C222.942 41.2664 222.947 40.2829 222.951 39.2695C222.963 36.8463 222.979 34.4232 223 32Z" />
  <path d="M118 32C119.65 32 121.3 32 123 32C123 37.28 123 42.56 123 48C125.64 48 128.28 48 131 48C131.268 48.8044 131.536 49.6087 131.813 50.4375C132.204 51.2831 132.596 52.1288 133 53C137.859 54.6196 142.074 54.2316 147 53C147.33 46.07 147.66 39.14 148 32C149.65 32 151.3 32 153 32C153 37.28 153 42.56 153 48C155.31 48 157.62 48 160 48C160.494 53.6328 160.23 57.0067 156.609 61.4609C151.47 66.3755 144.991 68.107 138 68C130.818 67.2271 125.666 64.8826 120.688 59.5C118.122 55.6993 117.875 52.5395 117.902 48.0156C117.906 47.0811 117.909 46.1465 117.912 45.1836C117.92 44.2155 117.929 43.2474 117.938 42.25C117.942 41.2664 117.947 40.2829 117.951 39.2695C117.963 36.8463 117.979 34.4232 118 32Z" />
  <path d="M12 32C13.65 32 15.3 32 17 32C17 37.28 17 42.56 17 48C19.64 48 22.28 48 25 48C25.2681 48.8044 25.5363 49.6087 25.8125 50.4375C26.2044 51.2831 26.5963 52.1288 27 53C31.8587 54.6196 36.0737 54.2316 41 53C41.33 46.07 41.66 39.14 42 32C43.65 32 45.3 32 47 32C47 37.28 47 42.56 47 48C49.31 48 51.62 48 54 48C54.4941 53.6328 54.2297 57.0067 50.6094 61.4609C45.4703 66.3755 38.9912 68.107 32 68C24.8183 67.2271 19.6664 64.8826 14.6875 59.5C12.122 55.6993 11.8748 52.5395 11.9023 48.0156C11.9056 47.0811 11.9088 46.1465 11.9121 45.1836C11.9205 44.2155 11.9289 43.2474 11.9375 42.25C11.942 41.2664 11.9465 40.2829 11.9512 39.2695C11.9629 36.8463 11.9794 34.4232 12 32Z" />
  <path d="M1248 28C1249.65 28 1251.3 28 1253 28C1253 32.95 1253 37.9 1253 43C1255.64 43 1258.28 43 1261 43C1261 50.59 1261 58.18 1261 66C1256.71 66 1252.42 66 1248 66C1248 53.46 1248 40.92 1248 28Z" />
  <path d="M1170 28C1171.65 28 1173.3 28 1175 28C1175 32.95 1175 37.9 1175 43C1177.64 43 1180.28 43 1183 43C1183 50.59 1183 58.18 1183 66C1178.71 66 1174.42 66 1170 66C1170 53.46 1170 40.92 1170 28Z" />
  <path d="M1041 28C1042.65 28 1044.3 28 1046 28C1046 32.95 1046 37.9 1046 43C1048.64 43 1051.28 43 1054 43C1054 50.59 1054 58.18 1054 66C1049.71 66 1045.42 66 1041 66C1041 53.46 1041 40.92 1041 28Z" />
  <path d="M1014 28C1015.65 28 1017.3 28 1019 28C1019 32.95 1019 37.9 1019 43C1021.64 43 1024.28 43 1027 43C1027 50.59 1027 58.18 1027 66C1022.71 66 1018.42 66 1014 66C1014 53.46 1014 40.92 1014 28Z" />
  <path d="M859 28C860.65 28 862.3 28 864 28C864 32.95 864 37.9 864 43C866.64 43 869.28 43 872 43C872 50.59 872 58.18 872 66C867.71 66 863.42 66 859 66C859 53.46 859 40.92 859 28Z" />
  <path d="M832 28C833.65 28 835.3 28 837 28C837 32.95 837 37.9 837 43C839.64 43 842.28 43 845 43C845 50.59 845 58.18 845 66C840.71 66 836.42 66 832 66C832 53.46 832 40.92 832 28Z" />
  <path d="M754 28C755.65 28 757.3 28 759 28C759 32.95 759 37.9 759 43C761.64 43 764.28 43 767 43C767 50.59 767 58.18 767 66C762.71 66 758.42 66 754 66C754 53.46 754 40.92 754 28Z" />
  <path d="M726 28C727.65 28 729.3 28 731 28C731 32.95 731 37.9 731 43C733.64 43 736.28 43 739 43C739 50.59 739 58.18 739 66C734.71 66 730.42 66 726 66C726 53.46 726 40.92 726 28Z" />
  <path d="M699 28C700.65 28 702.3 28 704 28C704 32.95 704 37.9 704 43C706.64 43 709.28 43 712 43C712 50.59 712 58.18 712 66C707.71 66 703.42 66 699 66C699 53.46 699 40.92 699 28Z" />
  <path d="M595 28C596.65 28 598.3 28 600 28C600 32.95 600 37.9 600 43C602.64 43 605.28 43 608 43C608 50.59 608 58.18 608 66C603.71 66 599.42 66 595 66C595 53.46 595 40.92 595 28Z" />
  <path d="M568 28C569.65 28 571.3 28 573 28C573 32.95 573 37.9 573 43C575.64 43 578.28 43 581 43C581 50.59 581 58.18 581 66C576.71 66 572.42 66 568 66C568 53.46 568 40.92 568 28Z" />
  <path d="M540 28C541.65 28 543.3 28 545 28C545 32.95 545 37.9 545 43C547.64 43 550.28 43 553 43C553 50.59 553 58.18 553 66C548.71 66 544.42 66 540 66C540 53.46 540 40.92 540 28Z" />
  <path d="M513 28C514.65 28 516.3 28 518 28C518 32.95 518 37.9 518 43C520.64 43 523.28 43 526 43C526 50.59 526 58.18 526 66C521.71 66 517.42 66 513 66C513 53.46 513 40.92 513 28Z" />
  <path d="M434 28C435.65 28 437.3 28 439 28C439 32.95 439 37.9 439 43C441.64 43 444.28 43 447 43C447 50.59 447 58.18 447 66C442.71 66 438.42 66 434 66C434 53.46 434 40.92 434 28Z" />
  <path d="M407 28C408.65 28 410.3 28 412 28C412 32.95 412 37.9 412 43C414.64 43 417.28 43 420 43C420 50.59 420 58.18 420 66C415.71 66 411.42 66 407 66C407 53.46 407 40.92 407 28Z" />
  <path d="M202 28C203.65 28 205.3 28 207 28C207 32.95 207 37.9 207 43C209.64 43 212.28 43 215 43C215 50.59 215 58.18 215 66C210.71 66 206.42 66 202 66C202 53.46 202 40.92 202 28Z" />
  <path d="M174 28C175.65 28 177.3 28 179 28C179 32.95 179 37.9 179 43C181.64 43 184.28 43 187 43C187 50.59 187 58.18 187 66C182.71 66 178.42 66 174 66C174 53.46 174 40.92 174 28Z" />
  <path d="M96 28C97.65 28 99.3 28 101 28C101 32.95 101 37.9 101 43C103.64 43 106.28 43 109 43C109 50.59 109 58.18 109 66C104.71 66 100.42 66 96 66C96 53.46 96 40.92 96 28Z" />
  <path d="M69 28C70.65 28 72.3 28 74 28C74 32.95 74 37.9 74 43C76.64 43 79.28 43 82 43C82 50.59 82 58.18 82 66C77.71 66 73.42 66 69 66C69 53.46 69 40.92 69 28Z" />
  <path d="M1248 12C1252.29 12 1256.58 12 1261 12C1261 21.57 1261 31.14 1261 41C1258.69 41 1256.38 41 1254 41C1254 36.05 1254 31.1 1254 26C1249.38 26 1244.76 26 1240 26C1244.62 16.5 1244.62 16.5 1248 12Z" />
  <path d="M1170 12C1174.29 12 1178.58 12 1183 12C1183 21.57 1183 31.14 1183 41C1180.69 41 1178.38 41 1176 41C1176 36.05 1176 31.1 1176 26C1171.38 26 1166.76 26 1162 26C1166.62 16.5 1166.62 16.5 1170 12Z" />
  <path d="M1041 12C1045.29 12 1049.58 12 1054 12C1054 21.57 1054 31.14 1054 41C1051.69 41 1049.38 41 1047 41C1047 36.05 1047 31.1 1047 26C1042.38 26 1037.76 26 1033 26C1037.62 16.5 1037.62 16.5 1041 12Z" />
  <path d="M1014 12C1018.29 12 1022.58 12 1027 12C1027 21.57 1027 31.14 1027 41C1024.69 41 1022.38 41 1020 41C1020 36.05 1020 31.1 1020 26C1015.38 26 1010.76 26 1006 26C1010.62 16.5 1010.62 16.5 1014 12Z" />
  <path d="M859 12C863.29 12 867.58 12 872 12C872 21.57 872 31.14 872 41C869.69 41 867.38 41 865 41C865 36.05 865 31.1 865 26C860.38 26 855.76 26 851 26C855.625 16.5 855.625 16.5 859 12Z" />
  <path d="M832 12C836.29 12 840.58 12 845 12C845 21.57 845 31.14 845 41C842.69 41 840.38 41 838 41C838 36.05 838 31.1 838 26C833.38 26 828.76 26 824 26C828.625 16.5 828.625 16.5 832 12Z" />
  <path d="M754 12C758.29 12 762.58 12 767 12C767 21.57 767 31.14 767 41C764.69 41 762.38 41 760 41C760 36.05 760 31.1 760 26C755.38 26 750.76 26 746 26C750.625 16.5 750.625 16.5 754 12Z" />
  <path d="M726 12C730.29 12 734.58 12 739 12C739 21.57 739 31.14 739 41C736.69 41 734.38 41 732 41C732 36.05 732 31.1 732 26C727.38 26 722.76 26 718 26C722.625 16.5 722.625 16.5 726 12Z" />
  <path d="M699 12C703.29 12 707.58 12 712 12C712 21.57 712 31.14 712 41C709.69 41 707.38 41 705 41C705 36.05 705 31.1 705 26C700.38 26 695.76 26 691 26C695.625 16.5 695.625 16.5 699 12Z" />
  <path d="M595 12C599.29 12 603.58 12 608 12C608 21.57 608 31.14 608 41C605.69 41 603.38 41 601 41C601 36.05 601 31.1 601 26C596.38 26 591.76 26 587 26C591.625 16.5 591.625 16.5 595 12Z" />
  <path d="M568 12C572.29 12 576.58 12 581 12C581 21.57 581 31.14 581 41C578.69 41 576.38 41 574 41C574 36.05 574 31.1 574 26C569.38 26 564.76 26 560 26C564.625 16.5 564.625 16.5 568 12Z" />
  <path d="M540 12C544.29 12 548.58 12 553 12C553 21.57 553 31.14 553 41C550.69 41 548.38 41 546 41C546 36.05 546 31.1 546 26C541.38 26 536.76 26 532 26C536.625 16.5 536.625 16.5 540 12Z" />
  <path d="M513 12C517.29 12 521.58 12 526 12C526 21.57 526 31.14 526 41C523.69 41 521.38 41 519 41C519 36.05 519 31.1 519 26C514.38 26 509.76 26 505 26C509.625 16.5 509.625 16.5 513 12Z" />
  <path d="M434 12C438.29 12 442.58 12 447 12C447 21.57 447 31.14 447 41C444.69 41 442.38 41 440 41C440 36.05 440 31.1 440 26C435.38 26 430.76 26 426 26C430.625 16.5 430.625 16.5 434 12Z" />
  <path d="M407 12C411.29 12 415.58 12 420 12C420 21.57 420 31.14 420 41C417.69 41 415.38 41 413 41C413 36.05 413 31.1 413 26C408.38 26 403.76 26 399 26C403.625 16.5 403.625 16.5 407 12Z" />
  <path d="M202 12C206.29 12 210.58 12 215 12C215 21.57 215 31.14 215 41C212.69 41 210.38 41 208 41C208 36.05 208 31.1 208 26C203.38 26 198.76 26 194 26C198.625 16.5 198.625 16.5 202 12Z" />
  <path d="M174 12C178.29 12 182.58 12 187 12C187 21.57 187 31.14 187 41C184.69 41 182.38 41 180 41C180 36.05 180 31.1 180 26C175.38 26 170.76 26 166 26C170.625 16.5 170.625 16.5 174 12Z" />
  <path d="M96 12C100.29 12 104.58 12 109 12C109 21.57 109 31.14 109 41C106.69 41 104.38 41 102 41C102 36.05 102 31.1 102 26C97.38 26 92.76 26 88 26C92.625 16.5 92.625 16.5 96 12Z" />
  <path d="M69 12C73.29 12 77.58 12 82 12C82 21.57 82 31.14 82 41C79.69 41 77.38 41 75 41C75 36.05 75 31.1 75 26C70.38 26 65.76 26 61 26C65.625 16.5 65.625 16.5 69 12Z" />
</g>

</svg>
